<svg xmlns="http://www.w3.org/2000/svg" width="13.035" height="10.707" viewBox="0 0 13.035 10.707">
  <path id="Icon_ionic-ios-airplane" data-name="Icon ionic-ios-airplane" d="M13.18,9.485c-.1,0-.431,0-.524.009l-1.888.049a.054.054,0,0,1-.049-.026L7.888,5.278a.468.468,0,0,0-.393-.215h-.69c-.163,0-.218.163-.16.314L8.1,9.532a.057.057,0,0,1-.052.079l-3.561.052a.234.234,0,0,1-.192-.09L3.221,8.263a.462.462,0,0,0-.367-.177H2.365a.116.116,0,0,0-.111.154l.579,2a.474.474,0,0,1,0,.346l-.579,2a.116.116,0,0,0,.111.154h.486a.471.471,0,0,0,.367-.177l1.1-1.33a.238.238,0,0,1,.192-.09l3.541.079A.058.058,0,0,1,8.1,11.3L6.642,15.455c-.058.151,0,.314.16.314h.69a.464.464,0,0,0,.393-.215l2.834-4.236a.057.057,0,0,1,.049-.026l1.888.049c.1.006.425.009.524.009,1.289,0,2.1-.416,2.1-.931S14.472,9.485,13.18,9.485Z" transform="translate(-2.248 -5.063)" fill="#2b2b2b"/>
</svg>
