<svg xmlns="http://www.w3.org/2000/svg" width="62.164" height="59.507" viewBox="0 0 62.164 59.507">
  <g id="Group_16" data-name="Group 16" transform="translate(-1756 -381)">
    <path id="Path_57" data-name="Path 57" d="M84.159,33.027A1,1,0,0,0,83.138,32H23.016A1,1,0,0,0,22,33.027V81a1.036,1.036,0,0,0,1.021,1.072h20.69l-2.061,7.305H38A1.063,1.063,0,0,0,38,91.5h30.16a1.063,1.063,0,0,0,0-2.125H64.509l-2.061-7.305h20.69A1.036,1.036,0,0,0,84.159,81V72.1h0V69.977h0Zm-60.038,1.1H82.034V69.987H24.121ZM62.3,89.379H43.852l2.061-7.305H60.241Zm19.732-9.431H24.121V72.112H82.034Z" transform="translate(1734.005 349.002)" fill="#fff"/>
    <path id="Path_58" data-name="Path 58" d="M162.129,64.678l-.85-.227a1.11,1.11,0,0,1-.76-.651,3.628,3.628,0,0,0-3.4-2.271H130.5l-3.055-4.905A1.293,1.293,0,0,0,126.378,56H124.27A1.286,1.286,0,0,0,123,57.283V67.8a1.267,1.267,0,0,0,.769,1.161l4.259,1.8a18.711,18.711,0,0,0,7.425,1.5h5.584l-3.8,6.932a1.3,1.3,0,0,0,.019,1.273,1.284,1.284,0,0,0,1.088.641h5.445a1.3,1.3,0,0,0,.953-.466l7.263-8.38h9.122a3.859,3.859,0,0,0,1-7.592Zm-36.6-6.15h.151l1.842,3h-1.993Zm35.6,11.215h-9.7a1.3,1.3,0,0,0-.953.466l-7.263,8.38h-2.733l3.8-6.92a1.314,1.314,0,0,0-.02-1.279,1.289,1.289,0,0,0-1.088-.648h-7.721a16.206,16.206,0,0,1-6.431-1.3l-3.5-1.475V64.056h31.6a1.111,1.111,0,0,1,1.052.689,3.665,3.665,0,0,0,2.453,2.158l.849.221a1.329,1.329,0,0,1-.349,2.618Z" transform="translate(1643.134 333.765)" fill="#fff"/>
  </g>
</svg>
