<svg enable-background="new 0 0 640 480" height="273.861279" viewBox="0 0 640 480" width="365.148372" xmlns="http://www.w3.org/2000/svg"><g fill="#fb0000"><path d="m332.97 364.32c9.75.02 19.3-.04 29.33.05-3.33 10.45-6.51 20.41-9.75 30.56-1.1-.07-2.02.03-2.85-.21-4.81-1.39-9.59-1.2-14.43-.06-3.32.78-6.71 1.38-10.11 1.76-8.02.9-15.43-1.13-22.18-5.42-5.55-3.53-8.27-8.97-9.43-15.28-1.73-9.36 1.35-17.47 6.85-24.77 7.05-9.34 16.67-14.72 28-17.15 6.75-1.45 13.49-1.39 20.04.95 8.08 2.88 13.82 8.14 16.03 16.72.44 1.69.44 2.73.04 4.21-1.66.54-18.58.71-21.81.21-.1-.1-.24-.2-.29-.32-1.9-4.25-6.53-5.96-11.37-5.14-5.98 1-10.89 3.79-14.42 8.77-2.11 2.97-2.87 6.38-2.52 9.97.38 3.95 2.47 6.87 5.98 8.61 4.06 2.01 8.34 2.37 12.62.7 2.16-.84 4.1-2.03 4.65-4.77-2.48-.83-5.14.25-7.84-.83.92-2.94 2.21-5.57 3.46-8.56z"/><path d="m546.79 394.49c-1.98 6.21-3.96 12.41-5.98 18.77-7.38.06-14.49.09-22.03.09.35-1.26.54-2.11.81-2.94 4.42-13.76 8.84-27.51 13.26-41.26 1.6-4.99 3.18-10 4.81-14.99.94-2.88 1.57-3.3 4.5-2.82 5.06.85 9.99-.03 14.96-.82 6.11-.97 12.29-1.41 18.4-.25 6.21 1.17 11.14 4.39 14.02 10.25 2.11 4.29 2.36 8.81 1.24 13.36-2.22 9.07-7.46 15.86-15.8 20.17-3.66 1.89-7.67 2.44-11.7 2.68-5.36.33-10.65-.08-15.67-2.22-.13-.07-.3-.02-.82-.02zm4.2-12.83c.53.24.87.51 1.21.53 3.18.17 6.38.54 9.54.37 3.35-.18 6.45-1.41 8.4-4.37 2-3.06 3.04-6.46 2.69-10.16-.21-2.21-1.14-4.09-3.07-5.34-3.69-2.4-9.51-2.67-12.87 2.34-.59.87-1.11 1.83-1.45 2.82-1.4 4.01-2.74 8.05-4.08 12.09-.16.48-.22 1.01-.37 1.72z"/><path d="m227.89 395.13c-3.18.7-20.63.51-22.51-.3 4.39-14.8 9.04-29.55 13.84-44.53 2.75-.05 5.54-.4 8.3.31 3.32.86 6.53.79 9.88-.15 5.81-1.64 11.77-2.44 17.83-2.03 2.9.2 5.71.84 8.37 2.08 7.57 3.51 10.39 10.91 8.58 18.44-1.38 5.76-3.31 11.38-5.01 17.06-.67 2.26-1.35 4.52-2.08 6.76-.27.84-.69 1.64-.98 2.32-2.86.7-20.79.57-22.66-.19.2-.74.38-1.53.62-2.31 2.17-7.05 4.35-14.09 6.53-21.14.41-1.32.85-2.65-.44-4.34-.48-.16-1.38-.71-2.29-.72-2.12-.02-4.25.23-6.38.35-2.03.11-3.16 1.25-3.7 3.13-.42 1.46-.89 2.91-1.33 4.36-1.92 6.25-3.83 12.5-5.76 18.75-.23.72-.53 1.41-.81 2.15z"/><path d="m473.41 351.23h22.1c-.21 1.05-.3 1.92-.55 2.74-1.87 6.11-3.78 12.21-5.67 18.31-.38 1.24-.82 2.46-1.07 3.73-.44 2.16.6 3.74 2.8 3.78 2.5.05 5.01-.24 7.5-.55 1.55-.2 2.18-1.5 2.6-2.88 1.34-4.36 2.69-8.72 4.03-13.08.98-3.2 1.94-6.41 2.93-9.6.25-.79.59-1.55.94-2.44h21.42c.9.9.28 1.78.03 2.6-1.58 5.25-3.17 10.48-4.8 15.71-2.42 7.77-4.87 15.54-7.31 23.3-.25.79-.55 1.57-.9 2.55-2.12.56-4.38.69-6.47.14-4.65-1.2-9.08-.93-13.68.42-3.25.95-6.73 1.22-10.14 1.54-4.29.4-8.53-.09-12.55-1.76-7.82-3.25-11.02-9.95-9.36-18.17.98-4.83 2.7-9.51 4.11-14.24.95-3.21 1.93-6.41 2.94-9.6.28-.84.72-1.63 1.1-2.5z"/><path d="m67.68 332.98c1.2-.1 2.24-.26 3.29-.26 5.78-.05 11.57-.09 17.35-.05 1.2.01 2.67-.34 3.51 1.35-.3.96-.62 2.05-.98 3.11-3.52 10.36-7.05 20.72-10.58 31.08-.17.5-.31 1.02-.48 1.52-.72 2.05-.1 3.7 1.64 5.26h2.83c6.7 0 13.4-.01 20.1.03 1.09.01 2.19.27 3.15.4.9 3.45-4.23 17.8-7.1 20.26-.36.04-.81.12-1.26.12-11.11.01-22.23.01-33.34 0-2.87 0-5.6-.63-8.02-2.23-4.96-3.27-6.34-8.2-5.87-13.72.22-2.53 1.01-5.06 1.84-7.49 4.16-12.15 8.41-24.27 12.65-36.39.34-.97.81-1.91 1.27-2.99z"/><path d="m167.23 396.41c-4 .1-8.66-.8-12.93-3.27-8.47-4.91-11.46-13.68-7.76-22.74 2.41-5.9 6.58-10.34 11.71-13.97 6.15-4.34 12.96-7.09 20.43-7.88 5.87-.62 11.73-.29 17.2 2.33 4.01 1.92 7.33 4.62 9.32 8.71 2.57 5.27 1.94 10.51-.41 15.62-2.73 5.92-7.3 10.24-12.62 13.81-6.53 4.37-15.36 7.54-24.94 7.39zm6.15-15.88c1.63-.36 3.31-.55 4.87-1.11 2.83-1.02 5.38-2.55 6.95-5.26 2.21-3.81.83-7.39-3.23-9.05-5.44-2.22-12.62 1.52-14.64 4.77-1.06 1.72-1.75 3.54-1.15 5.62.88 3.06 3.44 4.81 7.2 5.03z"/><path d="m424.02 396.8c-4.67.09-9.12-.74-13.23-2.99-9.22-5.06-12.21-14.49-7.65-23.97 3.2-6.65 8.44-11.3 14.72-14.85 6.97-3.94 14.46-5.98 22.51-5.62 4.38.2 8.57 1.19 12.43 3.39 8.16 4.65 11.1 12.63 7.86 21.44-1.5 4.09-4.04 7.51-7.18 10.45-8.27 7.78-18.11 11.82-29.46 12.15zm5.22-15.94c4.45-.28 8.36-1.76 11.03-5.5 2.9-4.06 1.21-8.46-3.64-9.71-4.72-1.22-8.72.44-12.22 3.42-2.5 2.13-3.3 5.27-2.23 7.82 1.27 3.02 3.82 3.91 6.84 3.96.07.01.15.01.22.01z"/><path d="m358.73 395.83c4.73-15.19 9.3-29.83 13.88-44.53 2.38 0 4.67-.22 6.89.05 3.45.41 6.82-.03 10.22-.4 3.24-.35 6.51-.68 9.76-.65 1.92.02 3.91.58 5.73 1.25 2.26.83 3.17 2.05 3.93 4.45-3.46 3.6-7.02 7.32-10.59 11.03-.7-.04-1.3-.06-1.9-.1-3.93-.26-7.39 2.1-8.5 5.82-2.01 6.77-4.01 13.55-6.02 20.33-.84 2.84-1.29 3.18-4.14 3.18-5.48 0-10.96.01-16.44-.03-.83 0-1.68-.23-2.82-.4z"/><path d="m124.11 350.38h22.6c-.11.82-.11 1.48-.29 2.09-4.2 13.66-8.43 27.32-12.66 40.97-.18.57-.45 1.11-.64 1.6-2.1.67-20.68.66-22.82-.08 4.56-14.9 9.15-29.79 13.81-44.58z"/><path d="m141.6 327.4c2.58-.1 4.97.56 7.17 1.85 3.28 1.92 4.16 4.66 2.64 8.12-1.61 3.66-4.72 5.69-8.23 7.11s-7.22 1.79-10.95.98c-1.17-.25-2.36-.68-3.37-1.31-3.9-2.4-4.45-7.45-1.25-10.74 4.16-4.26 8.15-5.98 13.99-6.01z"/><path d="m301.88 295.29c15.02-6.73 21.65-19.72 26.74-33.92.44-1.23.27-1.99-1.05-2.46-.98-.35-1.89-.9-3.05-1.47-1.6 3.09-3.06 6.08-4.67 8.98-4.98 8.93-10.91 17.09-19.48 22.95-5.05 3.45-10.53 5.46-16.8 4.06-4.28-.96-7.26-3.54-9.6-7.57 20.65-2.96 34.31-15.64 46-31.52-1.43-1.32-2.76-2.53-4.51-4.13-1.38 1.56-2.64 3.07-3.99 4.49-7.9 8.25-16.54 15.55-27.13 20.18-8.31 3.64-16.82 5.13-25.79 2.5-6.43-1.88-10.27-5.96-11.43-12.55-.12-.65-.11-1.33-.17-2.02 24.42 4.7 45.46-3.2 65.4-16.38-1.16-1.97-2.15-3.65-3.24-5.5-3.6 1.5-7.07 3.03-10.59 4.4-8.87 3.44-17.8 6.84-27.3 8.04-10.85 1.37-21.72 2.01-32.17-2.41-5.22-2.21-9.76-5.32-12.9-10.17-3.36-5.2-3.78-10.75-1.84-16.66 25.96 15.27 53.55 16.71 82.3 10.53-.29-1.57-.44-3.09-.89-4.52-.16-.5-1.04-1.05-1.61-1.08-1.43-.08-2.88.17-4.33.21-18.71.58-37.12-1.07-54.79-7.8-8.72-3.32-16.52-8.14-23.02-14.89-7.19-7.47-9.16-17.27-5.14-25.63.93-1.92 2.4-3.58 3.69-5.48.59.52.86.68 1.02.92 7.06 10.23 16.55 17.75 26.91 24.34 16.91 10.76 35.33 17.64 54.82 21.92.44.1.9.14 1.36.17.13.01.27-.12.57-.26.15-1.4.44-2.9.38-4.38-.02-.49-.83-1.18-1.42-1.4-12.84-4.69-25.19-10.48-36.81-17.62-16.99-10.44-31.85-23.29-41.92-40.87-5.13-8.96-7.49-18.48-4.06-28.7 2.39-7.11 6.91-11.86 14.73-12.83 8.88 42.68 35.07 72.24 70.97 94.95.73-1.66 1.53-2.92 1.79-4.29.13-.67-.59-1.73-1.21-2.27-5.75-4.98-11.82-9.62-17.32-14.87-21.52-20.52-35.77-45.31-42.23-74.34-2.77-12.42-2.62-24.98 1.59-37.19 2.21-6.41 5.84-11.74 12.64-14.1 5.05-1.75 10.02-1.07 14.96.49-13.79 58.74 10.34 113.9 36.79 134.56 1.5-1.62 2.88-3.47 4.61-4.91 11.18-9.32 23.89-11.96 37.62-7.28 14.12 4.81 22.72 15.03 25.59 29.63 4.32 22.05-12.31 43.53-34.68 45.2-1.17.09-2.28.14-1.8 1.76.42 1.4-.79 3.7 2.41 3.53 17.9-.92 33.74-13.63 38.85-31.35 7.62-26.41-9.3-52.78-36.5-56.55-13.3-1.84-25.17 1.83-35.46 10.5-.46.39-.93.79-1.66 1.41-15.66-17.96-24.94-38.7-28.11-62.47 2.5-.64 5.04-1.29 7.83-2.01-1.24-1.61-2.35-2.91-3.3-4.32-2.21-3.26-3.22-6.85-2.74-10.82.19-1.61.82-2.28 2.64-2.27 2.72.02 5.44-.41 8.16-.7 3.46-.36 6.91-.77 10.12-1.13-.14-2.62-.54-5.31-.37-7.97.23-3.55.68-3.44 4.25-3.34 4 .11 8.02-.34 12.02-.67 4.5-.37 9.01-1.9 12.79.3 1.17-2.54 2.09-4.94 3.36-7.12.79-1.36 2.03-1.39 3.72-.69 4.76 1.99 9.66 3.68 14.57 5.27 3.32 1.08 6.42 2.38 8.81 5.44.47-.82.83-1.44 1.17-2.06 1.18-2.18 3.02-3.49 5.47-3.54.88-.02 2.28.55 2.59 1.23 2.71 6 7.84 9.38 13.21 12.5 3.09 1.8 6.31 3.37 9.4 5.17 3.21 1.86 3.7 2.96 2.52 6.34-.55 1.57.05 2.14 1.19 2.88 4.89 3.17 10.32 3.88 15.97 3.72 3.62-.11 5.09 2.21 3.58 5.46-.3.64-.56 1.51-.37 2.12 1.55 4.87-2.37 12.87-7.13 15.81-.18-.51-.38-.97-.51-1.45-1.16-4.4-4.15-6.29-8.66-5.47-5.74 1.04-9.83 5.41-10.8 11.52-.11.68-.22 1.36-.26 2.04-.18 3.13-.01 6.08 3.17 7.94 3.13 1.83 6.27 2.7 9.71.96.86-.44 1.76-.8 2.64-1.19.25.12.5.25.75.37-.87 3.17-1.46 6.46-2.7 9.48-1.12 2.73-5.77 4.22-8.99 3.4-1.33-.34-2.65-.69-3.97-1.04-1.55-.42-2.28.38-2.6 1.77-1.7 7.45 2.63 16.47 7.56 19.04 1.28.66 2.45 1.55 3.59 2.43 2.42 1.86 2.5 3.76.33 5.91-.32.32-.68.61-1.06.87-3.44 2.34-4.18 5.1-2.1 8.75.85 1.5 1.92 2.98 3.2 4.12 1.71 1.54 2.07 3.39 1.61 5.36s-2.26 2.08-3.99 2.38c-.73.13-1.51 1.25-1.84 2.09-1.95 4.94-3.35 10.15-5.71 14.88-7.03 14.06-19.03 21.78-33.97 25.32-3.83.91-7.78 1.38-11.69 1.9-1.5.2-2 .52-1.85 2.24.38 4.31.85 8.68.48 12.96-.7 8.09-9.54 13.06-16.56 9.84 1.78-2.97 4.21-5.75 5.19-8.98 1.5-4.97 2.08-10.23 2.89-15.39.33-2.09.13-4.26.35-6.38.18-1.73-.28-2.6-2.15-2.6-.96 0-1.92-.3-2.96-.49-.9 4.87-1.66 9.58-2.67 14.24-1.26 5.77-3.28 11.3-6.84 16.06-3.92 5.23-8.89 8.5-15.87 7.29-2.44-.44-4.61-1.33-6.25-3.65zm62.1-182.22c-.01-3.51-4.95-6.72-8.31-6.02-3.97.83-6.84 4.79-5.99 8.37.71 2.95 3.24 5.05 5.56 4.4-.71-2.59-1.91-5.45.96-7.45 2.65-1.85 5.18.46 7.78.7zm25.83 9.02c1.94 2.4 3.55 4.4 5.41 6.71 1.55-2.98 2.91-5.57 4.35-8.33-3.35.56-6.21 1.03-9.76 1.62z"/></g></svg>