<svg xmlns="http://www.w3.org/2000/svg" xmlns:xlink="http://www.w3.org/1999/xlink" width="25.962" height="38.099" viewBox="0 0 25.962 38.099">
  <defs>
    <clipPath id="clip-path">
      <rect id="Rectangle_11582" data-name="Rectangle 11582" width="25.963" height="38.099" fill="none"/>
    </clipPath>
    <linearGradient id="linear-gradient" x1="0.5" x2="0.5" y2="1" gradientUnits="objectBoundingBox">
      <stop offset="0" stop-color="#a6d7ff"/>
      <stop offset="1" stop-color="#ebf6ff"/>
    </linearGradient>
    <linearGradient id="linear-gradient-2" x1="0.5" x2="0.5" y2="1" gradientUnits="objectBoundingBox">
      <stop offset="0" stop-color="#ffbe68"/>
      <stop offset="1" stop-color="#fba562"/>
    </linearGradient>
  </defs>
  <g id="activity-icon" clip-path="url(#clip-path)">
    <path id="Path_94947" data-name="Path 94947" d="M18.627,32.644a.357.357,0,0,1-.131-.032.287.287,0,0,1-.124-.393l5.585-10.657a.3.3,0,0,1,.394-.124.3.3,0,0,1,.124.4L18.882,32.489a.283.283,0,0,1-.255.156" transform="translate(-1.033 -1.206)" fill="#02166f" fill-rule="evenodd"/>
    <path id="Path_94948" data-name="Path 94948" d="M8.473,32.633a.3.3,0,0,1-.262-.156L2.518,21.633a.291.291,0,1,1,.517-.268L8.727,32.208A.289.289,0,0,1,8.6,32.6a.366.366,0,0,1-.131.032" transform="translate(-0.14 -1.194)" fill="#02166f" fill-rule="evenodd"/>
    <path id="Path_94949" data-name="Path 94949" d="M12.985,4.159A22.169,22.169,0,0,0,11.674,6C9.964,8.91,13.968,23.07,10.6,23.07c-3.5,0-4.285,1.159-6.581-1.128A12.673,12.673,0,0,1,12.985.3c3.784,0,.693,2.833,1.665,2.243,1.428-.391,3.683-3.736-1.665,1.614" transform="translate(-0.017 -0.017)" fill="#31cfff" fill-rule="evenodd"/>
    <path id="Path_94950" data-name="Path 94950" d="M12.968.582a12.381,12.381,0,1,0,8.75,21.137A11.929,11.929,0,0,0,24.425,8.358,12.43,12.43,0,0,0,12.968.582m0,25.345A12.964,12.964,0,1,1,24.959,8.136a12.643,12.643,0,0,1-2.831,13.993,12.879,12.879,0,0,1-9.16,3.8" transform="translate(0 0)" fill="#02166f" fill-rule="evenodd"/>
    <path id="Path_94951" data-name="Path 94951" d="M13.906.3a12.528,12.528,0,0,1,4.881,1.05c-.108,0-.215,0-.329.008a10.319,10.319,0,0,0-4.569,1.412c0-.935.008-1.584.008-2.035Z" transform="translate(-0.782 -0.017)" fill="#fff" fill-rule="evenodd"/>
    <path id="Path_94952" data-name="Path 94952" d="M14.175.591V.722c-.009.368-.009.87-.009,1.55a10.859,10.859,0,0,1,3.283-1.122A11.759,11.759,0,0,0,14.175.591m-.3,2.453A.23.23,0,0,1,13.723,3a.276.276,0,0,1-.139-.244c0-.935,0-1.584.008-2.042V.287a.3.3,0,0,1,.092-.206A.3.3,0,0,1,13.889,0a12.786,12.786,0,0,1,5,1.076.288.288,0,0,1,.166.326.3.3,0,0,1-.287.23h-.322a10.043,10.043,0,0,0-4.438,1.38.264.264,0,0,1-.139.032" transform="translate(-0.765 0)" fill="#02166f" fill-rule="evenodd"/>
    <path id="Path_94953" data-name="Path 94953" d="M25.958,9.746a12.17,12.17,0,0,1-2.437,11.507,7.784,7.784,0,0,0,.354-2.428,17.093,17.093,0,0,0-2.937-8.759A21.818,21.818,0,0,0,14.391,3.4a15.228,15.228,0,0,1,8.6,2.863,9.9,9.9,0,0,1,2.969,3.486" transform="translate(-0.811 -0.191)" stroke="rgba(0,0,0,0)" stroke-miterlimit="10" stroke-width="1" fill-rule="evenodd" fill="url(#linear-gradient)"/>
    <path id="Path_94954" data-name="Path 94954" d="M15.435,3.741a22.435,22.435,0,0,1,5.731,6.154,17.248,17.248,0,0,1,2.979,8.913,9.639,9.639,0,0,1-.075,1.215,11.877,11.877,0,0,0,1.6-10.186,9.759,9.759,0,0,0-2.879-3.363,14.657,14.657,0,0,0-7.356-2.732M23.5,21.533a.288.288,0,0,1-.141-.042.294.294,0,0,1-.138-.344,7.66,7.66,0,0,0,.336-2.339,16.7,16.7,0,0,0-2.888-8.6A21.438,21.438,0,0,0,14.22,3.628a.314.314,0,0,1-.123-.337.268.268,0,0,1,.287-.2,15.577,15.577,0,0,1,8.759,2.927A10.317,10.317,0,0,1,26.2,9.6a.1.1,0,0,1,.017.05,12.473,12.473,0,0,1-2.494,11.778.307.307,0,0,1-.221.107" transform="translate(-0.793 -0.174)" fill="#02166f" fill-rule="evenodd"/>
    <path id="Path_94955" data-name="Path 94955" d="M12.976,25.83a12.625,12.625,0,0,1-8.784-3.706c-.067-.075-.142-.139-.206-.212l-.042-.085a7.031,7.031,0,0,1-.58-2.976,16.683,16.683,0,0,1,2.885-8.587,21.213,21.213,0,0,1,6.718-6.743l-.008.262c0,2.756-.008,6.136-.008,9.375s.008,6.62.008,9.384c.008,1.313.008,2.221.017,2.839Z" transform="translate(-0.189 -0.198)" fill="#fff" fill-rule="evenodd"/>
    <path id="Path_94956" data-name="Path 94956" d="M4.214,21.727l.166.174a12.313,12.313,0,0,0,8.282,3.617v-.156c0-.616-.008-1.526-.008-2.839-.007-2.764-.007-6.144-.007-9.383,0-3.135,0-6.4.007-9.113A21.265,21.265,0,0,0,6.471,10.4a16.367,16.367,0,0,0-2.838,8.432A6.62,6.62,0,0,0,4.2,21.687Zm8.745,4.382h0a12.9,12.9,0,0,1-8.989-3.8l-.2-.214a.221.221,0,0,1-.057-.082l-.042-.075a7.426,7.426,0,0,1-.606-3.107A16.879,16.879,0,0,1,5.987,10.09,21.46,21.46,0,0,1,12.8,3.256a.273.273,0,0,1,.294,0,.289.289,0,0,1,.146.246v.262c-.008,2.757-.008,6.137-.008,9.375s0,6.619.008,9.383c0,1.3.009,2.222.009,2.839v.449a.274.274,0,0,1-.081.206.3.3,0,0,1-.206.092" transform="translate(-0.172 -0.181)" fill="#02166f" fill-rule="evenodd"/>
    <path id="Path_94957" data-name="Path 94957" d="M1.3,8.26a12.659,12.659,0,0,1,5.857-6.43,6.35,6.35,0,0,1,1.132-.075,9.769,9.769,0,0,1,4.126,1.215A15.615,15.615,0,0,0,3.623,5.906,10.917,10.917,0,0,0,1.3,8.26" transform="translate(-0.073 -0.099)" fill="#fff" fill-rule="evenodd"/>
    <path id="Path_94958" data-name="Path 94958" d="M7.231,2.091A12.427,12.427,0,0,0,2.6,6.341a9.364,9.364,0,0,1,.836-.682,15.5,15.5,0,0,1,7.825-2.92,8.26,8.26,0,0,0-2.991-.7,5.169,5.169,0,0,0-1.036.057M1.285,8.529A.256.256,0,0,1,1.146,8.5a.291.291,0,0,1-.131-.368A13.014,13.014,0,0,1,7,1.55a.171.171,0,0,1,.09-.025,5.651,5.651,0,0,1,1.189-.074A9.961,9.961,0,0,1,12.539,2.7a.29.29,0,0,1,.148.321.3.3,0,0,1-.272.231,15.245,15.245,0,0,0-8.629,2.87A10.706,10.706,0,0,0,1.522,8.406a.282.282,0,0,1-.238.124" transform="translate(-0.056 -0.082)" fill="#02166f" fill-rule="evenodd"/>
    <path id="Path_94959" data-name="Path 94959" d="M17.827,29.556a.275.275,0,0,1-.141-.04.3.3,0,0,1-.107-.4l2.141-3.706a.288.288,0,1,1,.5.286L18.08,29.407a.309.309,0,0,1-.253.148" transform="translate(-0.988 -1.423)" fill="#02166f" fill-rule="evenodd"/>
    <path id="Path_94960" data-name="Path 94960" d="M9.5,29.6a.279.279,0,0,1-.245-.148l-2.141-3.7a.285.285,0,0,1,.107-.394.276.276,0,0,1,.393.107l2.142,3.7a.287.287,0,0,1-.107.393A.342.342,0,0,1,9.5,29.6" transform="translate(-0.399 -1.426)" fill="#02166f" fill-rule="evenodd"/>
    <path id="Path_94961" data-name="Path 94961" d="M18.358,31.567l-.969,5.957c-.794,2.8-7.281,2.74-7.922-.116l-1-5.84Z" transform="translate(-0.477 -1.778)" fill="#fff" fill-rule="evenodd"/>
    <path id="Path_94962" data-name="Path 94962" d="M8.792,31.847l.944,5.494c.287,1.273,1.969,1.895,3.511,1.935,1.59.049,3.468-.514,3.846-1.854l.9-5.575Zm4.643,8.013h-.2c-1.639-.049-3.692-.707-4.067-2.4L8.162,31.6a.28.28,0,0,1,.064-.238.268.268,0,0,1,.222-.1H18.34a.293.293,0,0,1,.223.1.279.279,0,0,1,.063.238l-.965,5.946c-.453,1.624-2.421,2.314-4.226,2.314" transform="translate(-0.459 -1.761)" fill="#02166f" fill-rule="evenodd"/>
    <path id="Path_94963" data-name="Path 94963" d="M9.811,29.388a7.989,7.989,0,0,1,7.242,0c2,1.155,2.007,3.034,0,4.18a8,8,0,0,1-7.252,0c-2-1.154-2-3.025.01-4.18" transform="translate(-0.468 -1.606)" fill-rule="evenodd" fill="url(#linear-gradient-2)"/>
    <path id="Path_94964" data-name="Path 94964" d="M9.793,29.371m3.615-.577a7.1,7.1,0,0,0-3.477.829,2.259,2.259,0,0,0-1.352,1.836,2.269,2.269,0,0,0,1.352,1.848,7.708,7.708,0,0,0,6.962,0,2.287,2.287,0,0,0,1.354-1.848,2.277,2.277,0,0,0-1.354-1.836,7.11,7.11,0,0,0-3.486-.829m0,5.915a7.7,7.7,0,0,1-3.763-.9A2.815,2.815,0,0,1,8,31.459a2.826,2.826,0,0,1,1.649-2.343,8.348,8.348,0,0,1,7.539,0,2.826,2.826,0,0,1,1.647,2.343,2.814,2.814,0,0,1-1.647,2.347,7.754,7.754,0,0,1-3.776.9" transform="translate(-0.45 -1.589)" fill="#02166f" fill-rule="evenodd"/>
    <path id="Path_94965" data-name="Path 94965" d="M18.538,31.96v.769a2.214,2.214,0,0,1-.45.962,4.052,4.052,0,0,1-1.419,1.048,7.351,7.351,0,0,1-2.257.615,8.932,8.932,0,0,1-2.91-.162,6.547,6.547,0,0,1-1.879-.764,2.656,2.656,0,0,1-1.3-1.7V31.96a2.648,2.648,0,0,0,1.3,1.7,6.468,6.468,0,0,0,1.879.764,8.933,8.933,0,0,0,2.91.163,7.378,7.378,0,0,0,2.257-.615,4.065,4.065,0,0,0,1.419-1.049,2.214,2.214,0,0,0,.45-.959" transform="translate(-0.469 -1.8)" fill="#bdedf8" fill-rule="evenodd"/>
    <path id="Path_94966" data-name="Path 94966" d="M9.12,33.649a4.5,4.5,0,0,0,.648.524,6.318,6.318,0,0,0,1.79.723,8.684,8.684,0,0,0,2.8.148,7.225,7.225,0,0,0,2.176-.584,4.009,4.009,0,0,0,1.122-.771,5.8,5.8,0,0,1-.878.524,7.766,7.766,0,0,1-2.354.64,9.174,9.174,0,0,1-3-.162,6.581,6.581,0,0,1-1.97-.8,3.7,3.7,0,0,1-.338-.238m4.275,2.025a8.973,8.973,0,0,1-1.967-.212,6.606,6.606,0,0,1-1.97-.8A2.882,2.882,0,0,1,8.03,32.769l-.007-.827a.294.294,0,0,1,.261-.29.283.283,0,0,1,.311.231A2.391,2.391,0,0,0,9.768,33.4a6.209,6.209,0,0,0,1.79.722,8.4,8.4,0,0,0,2.8.148,7.165,7.165,0,0,0,2.176-.583,3.766,3.766,0,0,0,1.31-.977,1.832,1.832,0,0,0,.386-.828.292.292,0,0,1,.311-.231.3.3,0,0,1,.262.29v.769a2.549,2.549,0,0,1-.507,1.14,4.544,4.544,0,0,1-1.518,1.134,7.793,7.793,0,0,1-2.354.639c-.36.031-.7.049-1.033.049" transform="translate(-0.452 -1.783)" fill="#02166f" fill-rule="evenodd"/>
    <path id="Path_94967" data-name="Path 94967" d="M15.874,34.715a.262.262,0,0,1-.106-.022,6.454,6.454,0,0,0-4.372,0,.292.292,0,0,1-.212-.545,7.015,7.015,0,0,1,4.8,0,.3.3,0,0,1,.166.378.288.288,0,0,1-.272.188" transform="translate(-0.619 -1.9)" fill="#02166f" fill-rule="evenodd"/>
    <path id="Path_94968" data-name="Path 94968" d="M13.558,34.354a.292.292,0,0,1-.3-.287V27.144a.292.292,0,0,1,.583,0v6.923a.29.29,0,0,1-.287.287" transform="translate(-0.747 -1.513)" fill="#02166f" fill-rule="evenodd"/>
    <path id="Path_94969" data-name="Path 94969" d="M11.731,2.295a4.08,4.08,0,0,1,3.7,0,1.13,1.13,0,0,1,0,2.141,4.08,4.08,0,0,1-3.7,0,1.13,1.13,0,0,1,0-2.141" transform="translate(-0.617 -0.104)" fill-rule="evenodd" fill="url(#linear-gradient-2)"/>
    <path id="Path_94970" data-name="Path 94970" d="M13.558,2.121a3.53,3.53,0,0,0-1.706.41,1.036,1.036,0,0,0-.616.811,1.043,1.043,0,0,0,.616.822,3.832,3.832,0,0,0,3.411,0,1.035,1.035,0,0,0,.626-.822c0-.293-.223-.579-.626-.811a3.472,3.472,0,0,0-1.705-.41m0,3.025a4.009,4.009,0,0,1-1.993-.484,1.56,1.56,0,0,1-.91-1.321,1.584,1.584,0,0,1,.91-1.319,4.391,4.391,0,0,1,3.995,0,1.6,1.6,0,0,1,.911,1.319,1.574,1.574,0,0,1-.911,1.321,4.014,4.014,0,0,1-2,.484" transform="translate(-0.6 -0.087)" fill="#02166f" fill-rule="evenodd"/>
  </g>
</svg>
