<svg xmlns="http://www.w3.org/2000/svg" width="17.421" height="15.437" viewBox="0 0 17.421 15.437">
  <g id="EMTDesk" transform="translate(0.05 -29.264)">
    <g id="Group_73357" data-name="Group 73357" transform="translate(0 29.314)">
      <path id="Path_243615" data-name="Path 243615" d="M14.649,32.166H12.14V30.6a1.292,1.292,0,0,0-1.3-1.284H6.478a1.292,1.292,0,0,0-1.3,1.284v1.568H2.672A2.675,2.675,0,0,0,0,34.838v7.631a2.185,2.185,0,0,0,2.183,2.183H15.138a2.185,2.185,0,0,0,2.183-2.183V34.838A2.675,2.675,0,0,0,14.649,32.166ZM6.2,30.6a.267.267,0,0,1,.279-.266h4.364a.267.267,0,0,1,.279.266v1.568H6.2ZM16.3,42.469a1.166,1.166,0,0,1-1.165,1.165H2.183a1.166,1.166,0,0,1-1.165-1.165V37.714a2.2,2.2,0,0,0,.521.239l.029.008,5.185,1.267v.419a1.193,1.193,0,0,0,1.192,1.192h1.43a1.193,1.193,0,0,0,1.192-1.192v-.419l5.185-1.267.029-.008a2.2,2.2,0,0,0,.521-.239v4.754ZM7.772,39.647V38.211a.174.174,0,0,1,.174-.174h1.43a.174.174,0,0,1,.174.174v1.436a.174.174,0,0,1-.174.174H7.946A.174.174,0,0,1,7.772,39.647ZM16.3,35.864a1.162,1.162,0,0,1-.808,1.113l-4.928,1.2a1.193,1.193,0,0,0-1.191-1.162H7.946a1.193,1.193,0,0,0-1.191,1.162l-4.928-1.2a1.162,1.162,0,0,1-.808-1.113V34.838a1.656,1.656,0,0,1,1.654-1.654H14.649A1.656,1.656,0,0,1,16.3,34.838v1.026Z" transform="translate(0 -29.314)" fill="#202020" stroke="#202020" stroke-width="0.1"/>
      <g id="Path_243616" data-name="Path 243616" transform="translate(6.707 7.474)" fill="#fff">
        <path d="M 2.799999952316284 3.656255006790161 L 1.200000047683716 3.656255006790161 C 0.8140199780464172 3.656255006790161 0.5 3.342235088348389 0.5 2.956244945526123 L 0.5 1.200005054473877 C 0.5 0.8140249848365784 0.8140199780464172 0.5000050067901611 1.200000047683716 0.5000050067901611 L 2.799999952316284 0.5000050067901611 C 3.185980081558228 0.5000050067901611 3.5 0.8140249848365784 3.5 1.200005054473877 L 3.5 2.956244945526123 C 3.5 3.342235088348389 3.185980081558228 3.656255006790161 2.799999952316284 3.656255006790161 Z" stroke="none"/>
        <path d="M 1.200000047683716 0.9999949932098389 C 1.089720010757446 0.9999949932098389 1 1.089715003967285 1 1.200005054473877 L 1 2.956244945526123 C 1 3.066524982452393 1.089720010757446 3.156244993209839 1.200000047683716 3.156244993209839 L 2.799999952316284 3.156244993209839 C 2.910279989242554 3.156244993209839 3 3.066524982452393 3 2.956244945526123 L 3 1.200005054473877 C 3 1.089715003967285 2.910279989242554 0.9999949932098389 2.799999952316284 0.9999949932098389 L 1.200000047683716 0.9999949932098389 M 1.200000047683716 -4.76837158203125e-06 L 2.799999952316284 -4.76837158203125e-06 C 3.462739944458008 -4.76837158203125e-06 4 0.5372550487518311 4 1.200005054473877 L 4 2.956244945526123 C 4 3.618994951248169 3.462739944458008 4.156245231628418 2.799999952316284 4.156245231628418 L 1.200000047683716 4.156245231628418 C 0.5372600555419922 4.156245231628418 0 3.618994951248169 0 2.956244945526123 L 0 1.200005054473877 C 0 0.5372550487518311 0.5372600555419922 -4.76837158203125e-06 1.200000047683716 -4.76837158203125e-06 Z" stroke="none" fill="#008af8"/>
      </g>
    </g>
  </g>
</svg>
