<svg xmlns="http://www.w3.org/2000/svg" width="17.465" height="17.489" viewBox="0 0 17.465 17.489">
  <g id="EMTRoyale" transform="translate(-10592.292 5799.908)">
    <g id="diamond" transform="translate(10592.492 -5799.708)">
      <path id="Path_300015" data-name="Path 300015" d="M17.192,7.885,15.975,6.849a.255.255,0,1,0-.33.388l1.039.885H12.635l1.61-2.076L15.827,7.4a.255.255,0,1,0,.33-.388L14.372,5.485a.683.683,0,0,0-.442-.163h-.2a.685.685,0,0,0,.024-.179V4.674a.688.688,0,0,0-.341-.594L14.56,1.439a.429.429,0,0,0-.393-.6h-.748a.429.429,0,0,0-.209.054l-.739.412a.255.255,0,1,0,.248.445l.72-.4h.6L12.9,3.985h-8L3.757,1.349h.6L6.719,2.666a.292.292,0,0,0,.359-.061L8.9.552l1.822,2.053a.292.292,0,0,0,.359.061l1.964-1.1a.255.255,0,1,0-.248-.445l-1.81,1.016L9.219.143a.426.426,0,0,0-.637,0L6.814,2.135,4.59.894A.43.43,0,0,0,4.382.839H3.633a.429.429,0,0,0-.393.6L4.386,4.08a.688.688,0,0,0-.341.594v.469a.686.686,0,0,0,.024.179h-.2a.682.682,0,0,0-.442.163l-2.82,2.4a.682.682,0,0,0-.045,1l7.851,8a.682.682,0,0,0,.973,0l7.85-8a.682.682,0,0,0-.045-1Zm-7.3-2.054,1.713,2.29H6.194l1.713-2.29Zm.636,0h3.237L12.119,7.956ZM5.682,7.956,4.034,5.832H7.271Zm-.516.166H1.116L3.555,6.045Zm.345.51,1.133,2.982a.255.255,0,0,0,.476-.182l-1.063-2.8h5.689L8.9,16.055,6.972,11.023a.255.255,0,0,0-.476.182l1.885,4.919L1.031,8.631Zm6.78,0h4.479l-7.35,7.494ZM4.554,5.143V4.674a.179.179,0,0,1,.179-.179h8.333a.179.179,0,0,1,.179.179v.469a.179.179,0,0,1-.179.179H4.734A.179.179,0,0,1,4.554,5.143Z" transform="translate(-0.368 0)" fill="#202020" stroke="#202020" stroke-width="0.4"/>
    </g>
    <path id="Path_300016" data-name="Path 300016" d="M13.651,4.08,14.8,1.439a.429.429,0,0,0-.393-.6h-.748a.429.429,0,0,0-.209.054l-.739.412a.255.255,0,1,0,.248.445l.72-.4h.6L13.137,3.985h-8L3.994,1.349h.6L6.956,2.666a.292.292,0,0,0,.359-.061L9.137.552l1.822,2.053a.292.292,0,0,0,.359.061l1.964-1.1a.255.255,0,1,0-.248-.445l-1.81,1.016L9.456.143a.426.426,0,0,0-.637,0L7.051,2.135,4.827.894A.43.43,0,0,0,4.618.839H3.87a.429.429,0,0,0-.393.6L4.623,4.08C4.419,4.2,13.855,4.2,13.651,4.08Zm-8.668,0,8.464.075Z" transform="translate(10591.888 -5799.708)" fill="#008af8" stroke="#008af8" stroke-width="0.4"/>
    <path id="Path_300017" data-name="Path 300017" d="M.484-.7h7.7l.9.27L9.326.1H-.716l.23-.523Z" transform="translate(10596.705 -5795.309)" fill="#202020"/>
  </g>
</svg>
