<svg xmlns="http://www.w3.org/2000/svg" xmlns:xlink="http://www.w3.org/1999/xlink" width="46.708" height="40.775" viewBox="0 0 46.708 40.775">
  <defs>
    <linearGradient id="linear-gradient" x1="0.5" x2="0.5" y2="1" gradientUnits="objectBoundingBox">
      <stop offset="0" stop-color="#a6d7ff"/>
      <stop offset="1" stop-color="#ebf6ff"/>
    </linearGradient>
    <linearGradient id="linear-gradient-2" x1="0.5" x2="0.5" y2="1" gradientUnits="objectBoundingBox">
      <stop offset="0" stop-color="#ffbe68"/>
      <stop offset="1" stop-color="#fba562"/>
    </linearGradient>
  </defs>
  <g id="giftcard-icon" transform="translate(-135.621 -297.14)">
    <path id="Path_95075" data-name="Path 95075" d="M8569.812,21560.553l9.936-5.631v7.463l-9.936,5.586Z" transform="translate(-8398 -21235)" fill="url(#linear-gradient)"/>
    <path id="Path_95029" data-name="Path 95029" d="M71.619,135.217l.191-9.67a6.576,6.576,0,0,0-3.447-5.936L37.249,102a.783.783,0,0,0-1.149.67v12.35a1.328,1.328,0,0,0,.67,1.149L70.757,135.7A.6.6,0,0,0,71.619,135.217Z" transform="translate(99.85 201.599)" fill="none" stroke="#02166f" stroke-miterlimit="10" stroke-width="0.658"/>
    <path id="Path_95030" data-name="Path 95030" d="M71.35,118.065l-10.531,6.127L25.3,103.8" transform="translate(110.65 201.518)" fill="none" stroke="#02166f" stroke-miterlimit="10" stroke-width="0.658"/>
    <path id="Path_95031" data-name="Path 95031" d="M71.35,126.059l-10.34,5.936-4.021-4.308L25.3,109.4" transform="translate(110.65 201.279)" fill="none" stroke="#02166f" stroke-miterlimit="10" stroke-width="0.658"/>
    <line id="Line_230" data-name="Line 230" y2="5.361" transform="translate(164.959 321.976)" fill="none" stroke="#02166f" stroke-miterlimit="10" stroke-width="0.658"/>
    <line id="Line_231" data-name="Line 231" y2="3.638" transform="translate(161.895 325.71)" fill="none" stroke="#02166f" stroke-miterlimit="10" stroke-width="0.658"/>
    <line id="Line_232" data-name="Line 232" y2="5.457" transform="translate(159.118 318.53)" fill="none" stroke="#02166f" stroke-miterlimit="10" stroke-width="0.658"/>
    <line id="Line_233" data-name="Line 233" y2="5.457" transform="translate(143.418 309.434)" fill="none" stroke="#02166f" stroke-miterlimit="10" stroke-width="0.658"/>
    <line id="Line_234" data-name="Line 234" y2="5.457" transform="translate(138.726 306.755)" fill="none" stroke="#02166f" stroke-miterlimit="10" stroke-width="0.658"/>
    <path id="Path_95032" data-name="Path 95032" d="M54.1,121.106l6.7,3.925V113.638L54.1,110Z" transform="translate(93.625 201.254)" fill="#31cfff" stroke="#02166f" stroke-miterlimit="10" stroke-width="0.658"/>
    <line id="Line_235" data-name="Line 235" y2="11.297" transform="translate(150.98 312.785)" fill="none" stroke="#02166f" stroke-miterlimit="10" stroke-width="0.658"/>
    <line id="Line_236" data-name="Line 236" x1="10.723" y2="6.223" transform="translate(170.799 317.572)" fill="none" stroke="#02166f" stroke-miterlimit="10" stroke-width="0.658"/>
    <path id="Path_95033" data-name="Path 95033" d="M41.678,129.37c-.957,1.245-.191,3.638,1.34,5.074,1.436,1.245,2.968,1.245,3.638.191s.287-2.968-.862-4.308C44.454,128.7,42.539,128.125,41.678,129.37Z" transform="translate(119.738 200.457)" fill="#fffdfe" stroke="#02166f" stroke-miterlimit="10" stroke-width="0.806"/>
    <path id="Path_95034" data-name="Path 95034" d="M27.888,129.1c-.574-.191-1.245.287-1.532,1.053-.287.574-.1,1.149.383,1.245a1.365,1.365,0,0,0,1.34-.766C28.462,129.96,28.462,129.29,27.888,129.1Z" transform="translate(152.772 200.442)" fill="#fffdfe" stroke="#02166f" stroke-miterlimit="10" stroke-width="0.284"/>
    <path id="Path_95035" data-name="Path 95035" d="M34.941,133.2c-.479-.191-1.245.287-1.532.957-.287.574-.1,1.053.287,1.149a1.444,1.444,0,0,0,1.34-.766A.8.8,0,0,0,34.941,133.2Z" transform="translate(139.017 200.267)" fill="#fffdfe" stroke="#02166f" stroke-miterlimit="10" stroke-width="0.271"/>
    <path id="Path_95036" data-name="Path 95036" d="M43.131,130.988a1.743,1.743,0,0,0,.574,2.106c.574.479,1.245.479,1.532.1a1.7,1.7,0,0,0-.383-1.819C44.279,130.7,43.514,130.509,43.131,130.988Z" transform="translate(119.722 200.371)" fill="url(#linear-gradient-2)"/>
    <path id="Path_95037" data-name="Path 95037" d="M66.578,115.169c-.957,1.245-.191,3.638,1.34,5.074,1.436,1.245,2.968,1.245,3.638.191s.287-2.968-.862-4.308C69.45,114.4,67.535,113.924,66.578,115.169Z" transform="translate(70.999 201.063)" fill="#fffdfe" stroke="#02166f" stroke-miterlimit="10" stroke-width="0.806"/>
    <path id="Path_95038" data-name="Path 95038" d="M68.031,116.788a1.743,1.743,0,0,0,.574,2.106c.574.479,1.245.479,1.532.1a1.7,1.7,0,0,0-.383-1.819C69.275,116.5,68.414,116.309,68.031,116.788Z" transform="translate(70.983 200.976)" fill="url(#linear-gradient-2)"/>
    <path id="Path_95039" data-name="Path 95039" d="M25.3,101.729l9.1-5.649a3.112,3.112,0,0,1,3.159,0l31.69,18.573a3.344,3.344,0,0,1,1.723,2.872l.1,11.2a2.053,2.053,0,0,1-1.053,1.819l-8.234,4.787a1.975,1.975,0,0,1-1.915.191l-3.734-2.106" transform="translate(110.937 201.865)" fill="none" stroke="#02166f" stroke-miterlimit="10" stroke-width="0.658"/>
    <path id="Path_95040" data-name="Path 95040" d="M32.691,132.766l-.479-.574a.593.593,0,0,0-.766-.1l-2.681,1.532a1.322,1.322,0,0,0-.287.383L28,135.542Z" transform="translate(146.724 200.317)" fill="none" stroke="#02166f" stroke-miterlimit="10" stroke-width="0.284"/>
  </g>
</svg>
