<svg xmlns="http://www.w3.org/2000/svg" xmlns:xlink="http://www.w3.org/1999/xlink" width="44.016" height="36.702" viewBox="0 0 44.016 36.702">
  <defs>
    <linearGradient id="linear-gradient" x1="0.5" x2="0.5" y2="1" gradientUnits="objectBoundingBox">
      <stop offset="0" stop-color="#ffbe68"/>
      <stop offset="1" stop-color="#fba562"/>
    </linearGradient>
    <linearGradient id="linear-gradient-3" x1="0.5" x2="0.5" y2="1" gradientUnits="objectBoundingBox">
      <stop offset="0" stop-color="#a6d7ff"/>
      <stop offset="1" stop-color="#ebf6ff"/>
    </linearGradient>
  </defs>
  <g id="cabs-icon" transform="translate(-326.492 -300.855)">
    <path id="Path_78961" data-name="Path 78961" d="M1132.33,1802.728a3.17,3.17,0,0,1,1.014.976l-13.046,7.529a2.349,2.349,0,0,0-1.013-.975c-.377-.214-3.111-1.8-3.256-1.818l12.987-7.5a.2.2,0,0,1,.193.018Z" transform="translate(-788.994 -1496.775)" fill="#fff" fill-rule="evenodd"/>
    <path id="Path_78962" data-name="Path 78962" d="M1116.76,1808.433c.406.225,1.09.609,2.249,1.275l.457.263a2.438,2.438,0,0,1,.955.821l12.438-7.18a2.746,2.746,0,0,0-.688-.579l-3.064-1.729-12.347,7.129Zm3.553,3.159a.365.365,0,0,1-.287-.153,2.017,2.017,0,0,0-.871-.86l-.484-.271c-.685-.4-2.511-1.451-2.723-1.526a.309.309,0,0,1-.272-.27.36.36,0,0,1,.193-.359l12.988-7.5a.554.554,0,0,1,.512.008l3.14,1.78h.009a3.613,3.613,0,0,1,1.121,1.072.348.348,0,0,1,.058.271.3.3,0,0,1-.162.221l-13.046,7.537A.383.383,0,0,1,1120.313,1811.592Z" transform="translate(-788.753 -1498.458)" fill="#02166f" fill-rule="evenodd"/>
    <path id="Path_78967" data-name="Path 78967" d="M1128.223,1817.424c-.772-1.421-2.939-3.593-4.619-2.667l-2.494,1.442c1.846-.967,4.01,1.447,4.821,3.052.707,1.392,1.344,3.961-.2,4.948.485-.292,2.494-1.384,2.8-1.683C1129.778,1821.309,1129.006,1818.795,1128.223,1817.424Z" transform="translate(-788.781 -1497.155)" fill="#fff" fill-rule="evenodd"/>
    <path id="Path_78968" data-name="Path 78968" d="M1122.642,1815.729a1.171,1.171,0,0,1,.182.047,6.951,6.951,0,0,1,3.432,3.334,6.187,6.187,0,0,1,.655,4.039,13.6,13.6,0,0,0,1.392-.862c1.092-1.051.378-3.382-.367-4.686h0a5.831,5.831,0,0,0-2.9-2.627,1.565,1.565,0,0,0-1.259.1l-1.138.659Zm3.1,8.822a.353.353,0,0,1-.3-.166.333.333,0,0,1,.117-.464c1.306-.838.772-3.148.088-4.5a6.286,6.286,0,0,0-3.026-2.985,1.709,1.709,0,0,0-1.343.076.332.332,0,0,1-.454-.134.337.337,0,0,1,.125-.463l2.494-1.442a2.239,2.239,0,0,1,1.788-.151,6.469,6.469,0,0,1,3.3,2.954c.735,1.286,1.719,4.076.243,5.507a18.039,18.039,0,0,1-2.418,1.47l-.454.251A.315.315,0,0,1,1125.743,1824.55Z" transform="translate(-788.795 -1497.173)" fill="#02166f" fill-rule="evenodd"/>
    <path id="Path_78969" data-name="Path 78969" d="M1125.756,1818.805a6.589,6.589,0,0,0-2.3-2.436,2.3,2.3,0,0,0-2.31-.229h0a2.3,2.3,0,0,0-.959,2.114,6.74,6.74,0,0,0,.959,3.218,6.673,6.673,0,0,0,2.31,2.435,1.988,1.988,0,0,0,3.265-1.884,6.7,6.7,0,0,0-.956-3.218Z" transform="translate(-788.819 -1497.133)" fill="#fcfeff" fill-rule="evenodd"/>
    <path id="Path_78970" data-name="Path 78970" d="M1122.013,1816.279a1.376,1.376,0,0,0-.683.172,1.979,1.979,0,0,0-.785,1.817,6.871,6.871,0,0,0,3.09,5.353,1.658,1.658,0,0,0,2.755-1.584,6.22,6.22,0,0,0-.909-3.044l.289-.174-.289.166a6.291,6.291,0,0,0-2.184-2.31,2.66,2.66,0,0,0-1.285-.4Zm2.919,8.435a3.337,3.337,0,0,1-1.634-.492,7.107,7.107,0,0,1-2.435-2.57,7,7,0,0,1-1-3.384,2.322,2.322,0,0,1,3.777-2.182,6.936,6.936,0,0,1,2.438,2.558.09.09,0,0,1,.017.041v.008a6.843,6.843,0,0,1,.985,3.344,2.589,2.589,0,0,1-1.13,2.406A1.925,1.925,0,0,1,1124.932,1824.714Z" transform="translate(-788.833 -1497.152)" fill="#02166f" fill-rule="evenodd"/>
    <path id="Path_78973" data-name="Path 78973" d="M1145.469,1827.384c-.763-1.419-2.928-3.595-4.617-2.669l-2.493,1.441c1.844-.966,4.008,1.44,4.82,3.053.713,1.392,1.342,3.962-.2,4.937.483-.28,2.493-1.372,2.8-1.671C1147.024,1831.268,1146.252,1828.755,1145.469,1827.384Z" transform="translate(-789.247 -1497.342)" fill="#31cfff" fill-rule="evenodd"/>
    <path id="Path_78974" data-name="Path 78974" d="M1139.9,1825.687c.058.009.116.03.183.047a6.972,6.972,0,0,1,3.419,3.335,6.176,6.176,0,0,1,.659,4.04,14.1,14.1,0,0,0,1.392-.863c1.092-1.052.376-3.381-.369-4.686v-.008a5.8,5.8,0,0,0-2.9-2.619,1.557,1.557,0,0,0-1.256.1l-1.129.657Zm3.089,8.823a.348.348,0,0,1-.3-.167.342.342,0,0,1,.114-.471c1.317-.831.774-3.14.088-4.494a6.249,6.249,0,0,0-3.024-2.986,1.641,1.641,0,0,0-1.342.079.34.34,0,0,1-.454-.137.353.353,0,0,1,.125-.464l2.5-1.439a2.2,2.2,0,0,1,1.777-.154,6.5,6.5,0,0,1,3.305,2.945c.734,1.287,1.722,4.1.253,5.518a19.994,19.994,0,0,1-2.437,1.468l-.443.251A.34.34,0,0,1,1142.989,1834.51Z" transform="translate(-789.265 -1497.356)" fill="#02166f" fill-rule="evenodd"/>
    <path id="Path_78975" data-name="Path 78975" d="M1143.014,1828.755a6.839,6.839,0,0,0-2.306-2.435,2.274,2.274,0,0,0-2.31-.222h0a2.287,2.287,0,0,0-.959,2.107,7.214,7.214,0,0,0,3.269,5.662,2.262,2.262,0,0,0,2.306.221,2.287,2.287,0,0,0,.959-2.106,6.664,6.664,0,0,0-.959-3.215Z" transform="translate(-789.194 -1497.284)" fill="#fcfeff" fill-rule="evenodd"/>
    <path id="Path_78976" data-name="Path 78976" d="M1139.26,1826.238a1.306,1.306,0,0,0-.676.162,2,2,0,0,0-.792,1.818,6.9,6.9,0,0,0,3.1,5.361,1.965,1.965,0,0,0,1.961.235,1.994,1.994,0,0,0,.784-1.818,6.317,6.317,0,0,0-.907-3.052l.3-.175-.3.175a6.3,6.3,0,0,0-2.184-2.31,2.583,2.583,0,0,0-1.287-.4Zm2.919,8.426a3.3,3.3,0,0,1-1.632-.495,7.553,7.553,0,0,1-3.439-5.95,2.326,2.326,0,0,1,3.785-2.176,6.984,6.984,0,0,1,2.426,2.564c.01.008.019.028.03.037v.008a6.932,6.932,0,0,1,.975,3.344,2.6,2.6,0,0,1-1.129,2.406A2,2,0,0,1,1142.178,1834.664Z" transform="translate(-789.211 -1497.298)" fill="#02166f" fill-rule="evenodd"/>
    <path id="Path_78977" data-name="Path 78977" d="M1136.679,1828.01l.842-.495v.011l-.842.484Z" transform="translate(-789.055 -1497.215)" fill="#fff" fill-rule="evenodd"/>
    <path id="Path_78979" data-name="Path 78979" d="M1152.637,1814.118l6.443,3.728c.833.5.967.842.977,1.075v7.825L1147,1834.285v-7.83c0-.27-.009-.513-.648-.888l-6.763-3.911Z" transform="translate(-789.886 -1497.778)" fill="#fff" fill-rule="evenodd"/>
    <path id="Path_78980" data-name="Path 78980" d="M1140.291,1821.67l6.253,3.612c.754.446.812.8.821,1.188v7.229l12.357-7.13v-7.633c0-.271-.5-.6-.8-.775l-6.272-3.631-12.36,7.141Zm6.725,12.967a.3.3,0,0,1-.164-.05.34.34,0,0,1-.175-.288v-7.83c0-.192,0-.308-.484-.589l-6.763-3.914a.349.349,0,0,1-.172-.3.361.361,0,0,1,.172-.3l13.054-7.526a.306.306,0,0,1,.338,0l6.446,3.719c.774.454,1.129.891,1.138,1.375v7.826a.36.36,0,0,1-.171.3l-13.046,7.526A.319.319,0,0,1,1147.016,1834.637Z" transform="translate(-789.9 -1497.792)" fill="#02166f" fill-rule="evenodd"/>
    <path id="Path_78981" data-name="Path 78981" d="M1159.757,1818.728v7.826l-13.054,7.538v-7.829Z" transform="translate(-789.588 -1497.584)" fill="#fff" fill-rule="evenodd"/>
    <path id="Path_78982" data-name="Path 78982" d="M1147.066,1826.467v7.038l12.357-7.131v-7.036l-12.357,7.128Zm-.349,7.976a.3.3,0,0,1-.164-.05.341.341,0,0,1-.175-.288v-7.83a.362.362,0,0,1,.175-.3l13.046-7.525a.307.307,0,0,1,.338,0,.341.341,0,0,1,.171.292v7.825a.361.361,0,0,1-.171.3l-13.046,7.526A.318.318,0,0,1,1146.717,1834.443Z" transform="translate(-789.601 -1497.598)" fill="#02166f" fill-rule="evenodd"/>
    <path id="Path_78983" data-name="Path 78983" d="M1147.665,1804.648a3.329,3.329,0,0,1,1.016.985l-13.045,7.525h0a3.3,3.3,0,0,0-1.025-.975l-11.391-6.542a.309.309,0,0,0-.105-.039l.047-.028,12.812-7.4c.137-.078.167-.116.32-.049Z" transform="translate(-789.449 -1496.894)" fill="#fff" fill-rule="evenodd"/>
    <path id="Path_78984" data-name="Path 78984" d="M1123.834,1805.607l10.965,6.289a3.438,3.438,0,0,1,.938.829l12.446-7.188a2.745,2.745,0,0,0-.676-.579l-11.373-6.521a.182.182,0,0,0,.118-.009l-.263-.243.175.3-12.329,7.121Zm11.816,7.914a.342.342,0,0,1-.28-.155,3.078,3.078,0,0,0-.909-.879l-11.4-6.542a.311.311,0,0,1-.28-.261.344.344,0,0,1,.175-.368l12.871-7.43a.592.592,0,0,1,.626-.058l11.394,6.542h.009a3.568,3.568,0,0,1,1.121,1.072.3.3,0,0,1,.046.271.335.335,0,0,1-.151.222l-13.054,7.537A.339.339,0,0,1,1135.65,1813.521Z" transform="translate(-789.456 -1496.908)" fill="#02166f" fill-rule="evenodd"/>
    <path id="Path_78985" data-name="Path 78985" d="M1115.508,1811.8l.426.254v1.447l-.426-.242Z" transform="translate(-789.016 -1496.941)" fill="#bdedf8" fill-rule="evenodd"/>
    <path id="Path_78987" data-name="Path 78987" d="M1116.088,1811.963l-.241-.137v-.212l-.339.192.426.254Z" transform="translate(-789.016 -1496.921)" fill="#bdedf8" fill-rule="evenodd"/>
    <path id="Path_78989" data-name="Path 78989" d="M1123.42,1805.3c.029-.02.067.021.105.039l11.391,6.542a3.056,3.056,0,0,1,.708.579,6.08,6.08,0,0,1,.655.938c1.363,2.289,3.11,6.591,3.731,7.827a1.655,1.655,0,0,0,.579.8l6.763,3.912.03.02c.542.318.609.543.618.782v7.916c0,.172-.126.237-.28.154l-2.048-1.18a.637.637,0,0,1-.279-.495,7.724,7.724,0,0,0-1.113-3.72l-.009-.018a7.758,7.758,0,0,0-2.656-2.8,2.3,2.3,0,0,0-3.781,2.182c0,.175-.125.253-.28.166h0c-2-1.159-8.146-4.735-9.856-5.731a.613.613,0,0,1-.279-.48v-.03a7.879,7.879,0,0,0-1.121-3.68,7.779,7.779,0,0,0-2.656-2.8,2.3,2.3,0,0,0-3.778,2.153c0,.175-.125.245-.28.154h0l-2.067-1.186a3.738,3.738,0,0,1-1.684-2.918v-5.653c0-.88,1-.725,1.433-.484a6.856,6.856,0,0,0,1.64.742Z" transform="translate(-789.003 -1498.149)" fill="#fff" fill-rule="evenodd"/>
    <path id="Path_78990" data-name="Path 78990" d="M1123.365,1805.642v0Zm16.572,20.106a3.81,3.81,0,0,1,1.863.571,7.953,7.953,0,0,1,2.784,2.919,8.081,8.081,0,0,1,1.16,3.911.286.286,0,0,0,.114.195l1.512-.476.3-6.114c-.008-.1-.008-.222-.454-.493l-6.792-3.923a1.71,1.71,0,0,1-.647-.821l-.067-.125c-.183-.376-.483-1.043-.832-1.846a65.681,65.681,0,0,0-2.878-5.95,5.347,5.347,0,0,0-.62-.89,2.271,2.271,0,0,0-.618-.512l-11.286-6.484-4.337,3.595c-.1.087-.328.27-2.039-.705a1,1,0,0,0-.8-.1c-.029.019-.105.067-.105.28v5.653a3.176,3.176,0,0,0,.443,1.488,3.113,3.113,0,0,0,1.063,1.127l1.839,1.066a2.84,2.84,0,0,1,1.284-2.447,2.951,2.951,0,0,1,2.994.271,7.928,7.928,0,0,1,2.793,2.928,8.039,8.039,0,0,1,1.159,3.846.28.28,0,0,0,.109.214c.8.463,2.549,1.487,4.4,2.559,1.993,1.16,4.091,2.378,5.229,3.031a2.848,2.848,0,0,1,1.275-2.472,2.362,2.362,0,0,1,1.151-.3Zm7.62,7.928a.549.549,0,0,1-.291-.086l-1.754.342a.962.962,0,0,1-.455-.783,7.977,7.977,0,0,0-3.6-6.241,2.3,2.3,0,0,0-2.33-.26,2.338,2.338,0,0,0-.938,2.144.506.506,0,0,1-.251.475.515.515,0,0,1-.539-.022c-1.113-.636-3.5-2.027-5.7-3.3-1.758-1.025-3.39-1.981-4.153-2.414a.972.972,0,0,1-.454-.783,7.313,7.313,0,0,0-1.075-3.54,7.219,7.219,0,0,0-2.531-2.674,2.367,2.367,0,0,0-2.319-.271,2.336,2.336,0,0,0-.945,2.124.531.531,0,0,1-.251.475.551.551,0,0,1-.542-.018l-2.059-1.191a4.078,4.078,0,0,1-1.856-3.216v-5.653a.952.952,0,0,1,.455-.872,1.632,1.632,0,0,1,1.488.1,9.534,9.534,0,0,0,1.38.658l4.377-3.622h0a.473.473,0,0,1,.493.008l11.4,6.542a3.486,3.486,0,0,1,.793.649,7.114,7.114,0,0,1,.7.993,64.142,64.142,0,0,1,2.911,6.03c.355.794.647,1.45.83,1.825l.058.128c.134.271.212.422.385.518l6.766,3.915c.579.349.8.646.821,1.084h0v.029l-.3,6.374a.542.542,0,0,1-.253.471A.563.563,0,0,1,1147.556,1833.676Z" transform="translate(-789.016 -1498.162)" fill="#02166f" fill-rule="evenodd"/>
    <path id="Path_78991" data-name="Path 78991" d="M1146.816,1832.2v1.392c0,.172-.126.238-.28.154l-2.047-1.179a.637.637,0,0,1-.279-.5,6.355,6.355,0,0,0-.2-1.5Z" transform="translate(-789.12 -1497.086)" fill="#66ceef" fill-rule="evenodd"/>
    <path id="Path_78992" data-name="Path 78992" d="M1144.5,1831.266a6.3,6.3,0,0,1,.058.821.285.285,0,0,0,.114.195l1.817,1.054v-.92l-1.989-1.15Zm2.176,2.879a.548.548,0,0,1-.291-.087l-2.059-1.189a.961.961,0,0,1-.454-.782,5.8,5.8,0,0,0-.183-1.41.338.338,0,0,1,.5-.376l2.81,1.622a.338.338,0,0,1,.175.292v1.392a.524.524,0,0,1-.262.471A.439.439,0,0,1,1146.678,1834.145Z" transform="translate(-789.14 -1497.1)" fill="#1a87c7" fill-rule="evenodd"/>
    <path id="Path_78993" data-name="Path 78993" d="M1130.828,1811.44l2.736,1.584a1.957,1.957,0,0,1,.6.571h0c.589.859,3.035,5.854,3.652,7.025.05.192-.037.33-.192.288a.6.6,0,0,1-.07-.028h0l-6.726-3.883a.626.626,0,0,1-.279-.484V1811.6C1130.549,1811.419,1130.674,1811.352,1130.828,1811.44Z" transform="translate(-789.158 -1497.105)" fill-rule="evenodd" fill="url(#linear-gradient)"/>
    <path id="Path_78994" data-name="Path 78994" d="M1130.842,1811.453l-.171.3h0l.171-.3Zm.071.434v4.64a.262.262,0,0,0,.105.183l6.279,3.631c-.193-.375-.464-.909-.764-1.508-.946-1.883-2.239-4.453-2.635-5.034a1.79,1.79,0,0,0-.484-.475l-2.5-1.438Zm6.772,9.384a.623.623,0,0,1-.126-.021,1.279,1.279,0,0,1-.162-.066l-6.725-3.874a.958.958,0,0,1-.445-.784v-4.911a.528.528,0,0,1,.25-.48.542.542,0,0,1,.542.029l2.734,1.572a2.108,2.108,0,0,1,.7.678c.426.618,1.681,3.111,2.7,5.12.425.851.792,1.574.984,1.943a.4.4,0,0,1,.029.088.575.575,0,0,1-.145.568A.458.458,0,0,1,1137.685,1821.271Z" transform="translate(-789.168 -1497.118)" fill="#02166f" fill-rule="evenodd"/>
    <path id="Path_78995" data-name="Path 78995" d="M1125.063,1808.1l4.512,2.6a.7.7,0,0,1,.313.532v5.151a.193.193,0,0,1-.313.175l-4.512-2.61a.673.673,0,0,1-.3-.521v-5.153C1124.763,1808.082,1124.9,1808.006,1125.063,1808.1Z" transform="translate(-789.084 -1497.037)" fill-rule="evenodd" fill="url(#linear-gradient)"/>
    <path id="Path_78996" data-name="Path 78996" d="M1125.077,1808.115l-.174.29h.012l.162-.29Zm.039.417v4.908a.336.336,0,0,0,.137.221l4.3,2.494v-4.909a.373.373,0,0,0-.125-.231l-4.311-2.482Zm4.61,8.414a.588.588,0,0,1-.3-.088l-4.512-2.6a1.029,1.029,0,0,1-.484-.821v-5.153a.549.549,0,0,1,.258-.493.57.57,0,0,1,.563.021h0l4.512,2.61a1.019,1.019,0,0,1,.475.82v5.151a.533.533,0,0,1-.263.484A.483.483,0,0,1,1129.725,1816.947Z" transform="translate(-789.09 -1497.046)" fill="#02166f" fill-rule="evenodd"/>
    <path id="Path_78997" data-name="Path 78997" d="M1123.7,1807.457a.642.642,0,0,1,.3.521v4.927c0,.193-.133.272-.3.172l-2.956-1.7c-.563-.327-.5-.781-.117-1.228l2.272-2.568A.545.545,0,0,1,1123.7,1807.457Z" transform="translate(-788.813 -1496.984)" fill="#fff" fill-rule="evenodd"/>
    <path id="Path_78998" data-name="Path 78998" d="M1123.361,1807.692c-.058,0-.107.039-.195.133l-2.26,2.573a.611.611,0,0,0-.213.443c.02.107.146.2.242.254l2.743,1.584v-4.686a.3.3,0,0,0-.132-.224.39.39,0,0,0-.184-.076Zm.493,5.787a.585.585,0,0,1-.308-.088l-2.948-1.7a1.083,1.083,0,0,1-.581-.743,1.2,1.2,0,0,1,.375-1l2.261-2.572a.879.879,0,0,1,1.229-.2h0a1.013,1.013,0,0,1,.484.821v4.928a.549.549,0,0,1-.261.493A.492.492,0,0,1,1123.854,1813.479Z" transform="translate(-788.827 -1496.991)" fill="#02166f" fill-rule="evenodd"/>
    <path id="Path_79001" data-name="Path 79001" d="M1146.706,1833.776l13.054-7.538a.224.224,0,0,1-.085.183l-13.045,7.526.029-.03A.165.165,0,0,0,1146.706,1833.776Z" transform="translate(-789.591 -1497.269)" fill="#fff" fill-rule="evenodd"/>
    <path id="Path_79002" data-name="Path 79002" d="M1146.644,1834.308a.338.338,0,0,1-.28-.154.328.328,0,0,1,.029-.422.411.411,0,0,1,.163-.245l13.046-7.536a.368.368,0,0,1,.357.009.343.343,0,0,1,.151.321.539.539,0,0,1-.2.414l-13.095,7.566A.373.373,0,0,1,1146.644,1834.308Z" transform="translate(-789.605 -1497.283)" fill="#1a87c7" fill-rule="evenodd"/>
    <path id="Path_79003" data-name="Path 79003" d="M1157.941,1824.205c-.6.347-1.093.067-1.093-.63a2.424,2.424,0,0,1,1.093-1.892c.609-.349,1.092-.07,1.092.626A2.413,2.413,0,0,1,1157.941,1824.205Z" transform="translate(-789.161 -1496.998)" fill="#fff" fill-rule="evenodd"/>
    <path id="Path_79004" data-name="Path 79004" d="M1158.448,1821.888a.7.7,0,0,0-.321.105,2.061,2.061,0,0,0-.918,1.6.508.508,0,0,0,.146.418.52.52,0,0,0,.433-.079h0a2.108,2.108,0,0,0,.921-1.6.471.471,0,0,0-.146-.4.247.247,0,0,0-.116-.03Zm-.975,2.824a.917.917,0,0,1-.455-.117,1.1,1.1,0,0,1-.493-1.006,2.751,2.751,0,0,1,1.264-2.191,1,1,0,0,1,1.606.925,2.738,2.738,0,0,1-1.267,2.193h0A1.349,1.349,0,0,1,1157.472,1824.711Z" transform="translate(-789.175 -1497.018)" fill="#02166f" fill-rule="evenodd"/>
    <path id="Path_79005" data-name="Path 79005" d="M1159.757,1827.008v-2.1l-13.054,7.53v2.105Z" transform="translate(-789.588 -1497.325)" fill="#fff" fill-rule="evenodd"/>
    <path id="Path_79006" data-name="Path 79006" d="M1159.171,1827.021h0Zm-12.136,5.633v1.3l11.8-7.13v-1.313l-11.8,7.139Zm-.333,2.241a.288.288,0,0,1-.156-.049.336.336,0,0,1-.167-.289v-2.1a.347.347,0,0,1,.167-.292l12.462-7.535a.324.324,0,0,1,.323,0,.344.344,0,0,1,.163.3v2.1a.361.361,0,0,1-.163.3l-12.462,7.526A.3.3,0,0,1,1146.7,1834.9Z" transform="translate(-788.986 -1497.338)" fill="#02166f" fill-rule="evenodd"/>
    <path id="Path_79007" data-name="Path 79007" d="M1150.752,1827.621a.373.373,0,0,1-.3-.175.347.347,0,0,1,.129-.471l5.266-3.035a.338.338,0,0,1,.463.124.334.334,0,0,1-.125.464l-5.266,3.044A.32.32,0,0,1,1150.752,1827.621Z" transform="translate(-789.432 -1497.038)" fill="#02166f" fill-rule="evenodd"/>
    <path id="Path_79008" data-name="Path 79008" d="M1150.752,1826.528a.34.34,0,0,1-.174-.639l5.266-3.034a.339.339,0,0,1,.338.589l-5.266,3.044A.322.322,0,0,1,1150.752,1826.528Z" transform="translate(-789.432 -1497.032)" fill="#02166f" fill-rule="evenodd"/>
    <path id="Path_79009" data-name="Path 79009" d="M1150.752,1828.705a.378.378,0,0,1-.3-.172.338.338,0,0,1,.129-.466l5.266-3.044a.34.34,0,0,1,.338.59l-5.266,3.044A.319.319,0,0,1,1150.752,1828.705Z" transform="translate(-789.432 -1497.044)" fill="#02166f" fill-rule="evenodd"/>
    <path id="Path_79010" data-name="Path 79010" d="M1148.63,1829.563c-.6.347-1.091.067-1.091-.628a2.414,2.414,0,0,1,1.091-1.894c.609-.346,1.093-.067,1.093.629A2.4,2.4,0,0,1,1148.63,1829.563Z" transform="translate(-789.111 -1497.241)" fill="#fff" fill-rule="evenodd"/>
    <path id="Path_79011" data-name="Path 79011" d="M1149.136,1827.25a.64.64,0,0,0-.321.1,2.07,2.07,0,0,0-.917,1.6c0,.2.05.358.145.406s.254.027.434-.077a2.08,2.08,0,0,0,.92-1.594.5.5,0,0,0-.145-.416.533.533,0,0,0-.117-.018Zm-.976,2.819a.819.819,0,0,1-.453-.125,1.073,1.073,0,0,1-.493-1,2.743,2.743,0,0,1,1.264-2.193,1.091,1.091,0,0,1,1.113-.076,1.123,1.123,0,0,1,.492,1,2.774,2.774,0,0,1-1.267,2.193A1.36,1.36,0,0,1,1148.16,1830.069Z" transform="translate(-789.132 -1497.255)" fill="#02166f" fill-rule="evenodd"/>
    <path id="Path_79012" data-name="Path 79012" d="M1146.827,1832.208l-3.07-1.78v2.109l3.07,1.776Z" transform="translate(-789.127 -1497.093)" fill="#31cfff" fill-rule="evenodd"/>
    <path id="Path_79013" data-name="Path 79013" d="M1144.108,1832.347l2.394,1.381v-1.3l-2.394-1.382v1.306Zm2.733,2.318a.31.31,0,0,1-.164-.049l-3.082-1.777a.336.336,0,0,1-.174-.287v-2.109a.333.333,0,0,1,.174-.289.312.312,0,0,1,.339,0l3.081,1.777a.339.339,0,0,1,.175.292v2.1a.328.328,0,0,1-.175.289A.325.325,0,0,1,1146.841,1834.664Z" transform="translate(-789.147 -1497.106)" fill="#02166f" fill-rule="evenodd"/>
    <path id="Path_79014" data-name="Path 79014" d="M1135.131,1812.854l13.045-7.526,4.066,8.367a1.58,1.58,0,0,0,.582.792l-13.046,7.538a1.031,1.031,0,0,1-.346-.35c-.09-.145-.157-.3-.233-.453-.659-1.315-2.609-6.116-3.99-8.252l-.029-.038Z" transform="translate(-789.562 -1497.159)" fill="#fff" fill-rule="evenodd"/>
    <path id="Path_79015" data-name="Path 79015" d="M1135.555,1812.288a55.19,55.19,0,0,1,2.805,5.743c.317.716.583,1.315.751,1.657l.034.072a3.271,3.271,0,0,0,.168.317.794.794,0,0,0,.072.1l11.36-6.555a2.892,2.892,0,0,1-.24-.442l-.052-.1-3.563-7.338-11.335,6.545Zm3.8,8.574a.262.262,0,0,1-.159-.046,1.129,1.129,0,0,1-.423-.414c-.071-.125-.133-.248-.193-.38-.2-.4-.469-1.013-.8-1.746a51.91,51.91,0,0,0-2.866-5.82l-.07-.1a.335.335,0,0,1-.045-.246.322.322,0,0,1,.152-.206l11.905-6.87a.3.3,0,0,1,.247-.028.325.325,0,0,1,.194.16l3.768,7.745a.972.972,0,0,0,.351.493.306.306,0,0,1,0,.536l-11.908,6.881A.332.332,0,0,1,1139.357,1820.862Z" transform="translate(-787.985 -1497.052)" fill="#02166f" fill-rule="evenodd"/>
    <path id="Path_79016" data-name="Path 79016" d="M1136.54,1813l10.162-5.865,3.158,6.376-10.154,5.857Z" transform="translate(-788.017 -1497.202)" fill-rule="evenodd" fill="url(#linear-gradient-3)"/>
    <path id="Path_79017" data-name="Path 79017" d="M1136.93,1813.107l2.893,5.816,9.614-5.56-2.882-5.8-9.624,5.546Zm2.76,6.563a.306.306,0,0,1-.088-.016.3.3,0,0,1-.194-.16l-3.167-6.368a.328.328,0,0,1,.125-.415l10.159-5.865a.394.394,0,0,1,.247-.027.325.325,0,0,1,.187.16l3.167,6.375a.315.315,0,0,1-.125.407l-10.151,5.865A.358.358,0,0,1,1139.69,1819.67Z" transform="translate(-788.009 -1497.182)" fill="#02166f" fill-rule="evenodd"/>
    <path id="Path_79023" data-name="Path 79023" d="M1141.913,1829.287a3.628,3.628,0,0,1,.53,1.769,1.094,1.094,0,0,1-1.794,1.042,3.726,3.726,0,0,1-1.277-1.343l-.011-.026a3.667,3.667,0,0,1-.512-1.741,1.264,1.264,0,0,1,.532-1.168h-.009a1.3,1.3,0,0,1,1.277.126A3.65,3.65,0,0,1,1141.913,1829.287Z" transform="translate(-789.124 -1497.207)" fill="#31cfff" fill-rule="evenodd"/>
    <path id="Path_79024" data-name="Path 79024" d="M1139.858,1828.055a.625.625,0,0,0-.3.075.96.96,0,0,0-.358.871,3.226,3.226,0,0,0,.474,1.567,3.332,3.332,0,0,0,1.159,1.247.762.762,0,0,0,1.276-.746,3.363,3.363,0,0,0-.475-1.594h0a3.225,3.225,0,0,0-1.147-1.218,1.252,1.252,0,0,0-.629-.2Zm1.6,4.637a1.979,1.979,0,0,1-.975-.289,4.357,4.357,0,0,1-1.972-3.4,1.567,1.567,0,0,1,.705-1.459,1.591,1.591,0,0,1,1.613.117,3.99,3.99,0,0,1,1.393,1.467h0a4.065,4.065,0,0,1,.568,1.944,1.569,1.569,0,0,1-.694,1.459A1.21,1.21,0,0,1,1141.463,1832.692Z" transform="translate(-789.14 -1497.221)" fill="#02166f" fill-rule="evenodd"/>
    <path id="Path_79025" data-name="Path 79025" d="M1124.664,1819.328a3.627,3.627,0,0,1,.532,1.769,1.1,1.1,0,0,1-1.8,1.042,3.685,3.685,0,0,1-1.276-1.342l-.02-.029a3.713,3.713,0,0,1-.5-1.739,1.3,1.3,0,0,1,.521-1.168h0a1.3,1.3,0,0,1,1.276.126A3.764,3.764,0,0,1,1124.664,1819.328Z" transform="translate(-788.76 -1497.033)" fill="#31cfff" fill-rule="evenodd"/>
    <path id="Path_79026" data-name="Path 79026" d="M1122.612,1818.107a.59.59,0,0,0-.3.067.967.967,0,0,0-.358.868,3.244,3.244,0,0,0,.463,1.564,3.444,3.444,0,0,0,1.16,1.249.949.949,0,0,0,.93.126.964.964,0,0,0,.358-.871,3.332,3.332,0,0,0-.483-1.593h0a3.248,3.248,0,0,0-1.142-1.218,1.244,1.244,0,0,0-.626-.191Zm1.6,4.637a2,2,0,0,1-.975-.3,3.923,3.923,0,0,1-1.392-1.459,4.052,4.052,0,0,1-.576-1.942,1.577,1.577,0,0,1,.7-1.459,1.551,1.551,0,0,1,1.6.125,3.915,3.915,0,0,1,1.4,1.459h0a4.034,4.034,0,0,1,.57,1.943,1.588,1.588,0,0,1-.7,1.459A1.21,1.21,0,0,1,1124.214,1822.744Z" transform="translate(-788.774 -1497.051)" fill="#02166f" fill-rule="evenodd"/>
    <path id="Path_79033" data-name="Path 79033" d="M1142.236,1803.686l-1.15-.659-5.787,3.344,1.151.658Z" transform="translate(-789.188 -1496.687)" fill="#fff" fill-rule="evenodd"/>
    <path id="Path_79035" data-name="Path 79035" d="M1136.472,1806.894l-1.151-.658-.571,2.164,2.289,1.322Z" transform="translate(-789.081 -1496.947)" fill="#fff" fill-rule="evenodd"/>
    <path id="Path_79037" data-name="Path 79037" d="M1142.769,1806.489l-.579-2.83L1136.4,1807l.568,2.828Z" transform="translate(-789.182 -1496.958)" fill="#fff" fill-rule="evenodd"/>
  </g>
</svg>
