<svg xmlns="http://www.w3.org/2000/svg" width="22.737" height="25.843" viewBox="0 0 22.737 25.843">
  <g id="Group_20500" data-name="Group 20500" transform="translate(0.5 0.5)">
    <path id="Icon_awesome-calendar" data-name="Icon awesome-calendar" d="M.582,9.316H21.155a.584.584,0,0,1,.582.582V22.514a2.33,2.33,0,0,1-2.329,2.329H2.329A2.33,2.33,0,0,1,0,22.514V9.9A.584.584,0,0,1,.582,9.316ZM21.737,7.181V5.434a2.33,2.33,0,0,0-2.329-2.329H17.079V.582A.584.584,0,0,0,16.5,0H14.556a.584.584,0,0,0-.582.582V3.105H7.763V.582A.584.584,0,0,0,7.181,0H5.24a.584.584,0,0,0-.582.582V3.105H2.329A2.33,2.33,0,0,0,0,5.434V7.181a.584.584,0,0,0,.582.582H21.155A.584.584,0,0,0,21.737,7.181Z" fill="none" stroke="#b7b7b7" stroke-width="1"/>
    <path id="Icon_ionic-md-arrow-round-forward" data-name="Icon ionic-md-arrow-round-forward" d="M10.966,14.738l3.6-3.493a.794.794,0,0,0,.235-.584v-.01a.794.794,0,0,0-.235-.584l-3.6-3.493a.771.771,0,0,0-1.126,0,.862.862,0,0,0,0,1.178L12,9.822H6.425a.835.835,0,0,0,0,1.668H12L9.837,13.559a.862.862,0,0,0,0,1.178A.774.774,0,0,0,10.966,14.738Z" transform="translate(0.656 5.389)" fill="#b7b7b7"/>
  </g>
</svg>
