<svg xmlns="http://www.w3.org/2000/svg" width="15.514" height="17.726" viewBox="0 0 15.514 17.726">
  <g id="Group_3" data-name="Group 3" transform="translate(0)">
    <g id="Group_2" data-name="Group 2" transform="translate(0 0)">
      <path id="Path_1" data-name="Path 1" d="M365.128,104.906h6.886q1.865,2.137,3.732,4.272a.508.508,0,0,1,.148.383c-.013.293,0,.588,0,.882q0,3.849,0,7.7a2.293,2.293,0,0,1-1.912,2.234,8.35,8.35,0,0,1-.843.047.245.245,0,0,0-.012.049,2.356,2.356,0,0,1-2.354,2.16q-4.021-.042-8.043,0a2.378,2.378,0,0,1-2.343-2.334c.021-3.621.007-7.242.009-10.863a3.14,3.14,0,0,1,.035-.464,2.2,2.2,0,0,1,1.965-1.822c.251-.017.5,0,.758,0a2.338,2.338,0,0,1,.988-1.823A2.639,2.639,0,0,1,365.128,104.906Zm5.779,1.107h-5.432a1.157,1.157,0,0,0-1.211,1.221q0,5.423,0,10.846a1.159,1.159,0,0,0,1.229,1.221h8.061a1.16,1.16,0,0,0,1.23-1.237q0-3.71,0-7.421v-.2c-.287,0-.557,0-.826,0a9.057,9.057,0,0,1-1.054-.017,2.267,2.267,0,0,1-2-2.278C370.906,107.443,370.907,106.741,370.907,106.013Zm-7.751,2.235c-.213,0-.407,0-.6,0a1.121,1.121,0,0,0-1.062,1.157q.009,5.466,0,10.932a1.151,1.151,0,0,0,1.184,1.178q4.073,0,8.147,0a1.365,1.365,0,0,0,.439-.074,1.08,1.08,0,0,0,.723-1.03h-.2c-2.093,0-4.186-.023-6.279.009a2.383,2.383,0,0,1-2.359-2.355c.026-3.194.009-6.388.009-9.582Zm11.627,1.087-2.768-3.3v.213c0,.426.006.853,0,1.279a2.263,2.263,0,0,0,.48,1.412.885.885,0,0,0,.809.405c.362-.022.726,0,1.089,0Z" transform="translate(-360.38 -104.906)" fill="#9f9f9f"/>
      <path id="Path_5" data-name="Path 5" d="M730.5,143.734h-.392c-.363,0-.727-.017-1.089,0a.885.885,0,0,1-.809-.405,2.264,2.264,0,0,1-.48-1.412c.007-.426,0-.853,0-1.279v-.213Z" transform="translate(-716.097 -139.305)" fill="#fff"/>
      <path id="Path_6" data-name="Path 6" d="M555.938,438.32c-.824,0-1.648,0-2.472,0a.551.551,0,1,1-.013-1.1c.184-.007.369,0,.553,0h4.253c.058,0,.115,0,.173,0a.555.555,0,0,1,.548.573.548.548,0,0,1-.569.53C557.586,438.322,556.762,438.32,555.938,438.32Z" transform="translate(-546.793 -426.689)" fill="#9f9f9f"/>
      <path id="Path_7" data-name="Path 7" d="M555.9,350.987c-.824,0-1.648,0-2.472,0a.533.533,0,0,1-.492-.8.91.91,0,0,1,.351-.278.593.593,0,0,1,.271-.029q2.351,0,4.7,0a1.056,1.056,0,0,1,.355.052.537.537,0,0,1,.33.6.544.544,0,0,1-.538.448c-.836,0-1.671,0-2.507,0Z" transform="translate(-546.771 -342.123)" fill="#9f9f9f"/>
    </g>
  </g>
</svg>
