<svg xmlns="http://www.w3.org/2000/svg" xmlns:xlink="http://www.w3.org/1999/xlink" width="28.733" height="29.245" viewBox="0 0 28.733 29.245">
  <defs>
    <clipPath id="clip-path">
      <path id="path93" d="M0-682.665H28.733v29.245H0Z" transform="translate(0 682.665)" fill="#b7b7b7"/>
    </clipPath>
  </defs>
  <g id="g87" transform="translate(1.107 683.931)">
    <g id="g89" transform="translate(-1.107 -683.931)">
      <g id="g91" transform="translate(0 0)" clip-path="url(#clip-path)">
        <g id="g97" transform="translate(24.032 3.604)">
          <path id="path99" d="M0-19.264A.736.736,0,0,1,.736-20a.736.736,0,0,1,.736.736.736.736,0,0,1-.736.736A.736.736,0,0,1,0-19.264" transform="translate(0 20)" fill="#b7b7b7"/>
        </g>
        <g id="g101" transform="translate(25.503 9.538)">
          <path id="path103" d="M0-19.264A.736.736,0,0,1,.736-20a.736.736,0,0,1,.736.736.736.736,0,0,1-.736.736A.736.736,0,0,1,0-19.264" transform="translate(0 20)" fill="#b7b7b7"/>
        </g>
        <g id="g105" transform="translate(2.601 2.868)">
          <path id="path107" d="M-445.648-463.629a9.6,9.6,0,0,1-9.612-9.563,9.676,9.676,0,0,1,4.527-8.138c-.022,0-.042,0-.064,0a11.9,11.9,0,0,0-11.868,11.819A11.9,11.9,0,0,0-450.8-457.695a11.81,11.81,0,0,0,11.142-8.051A9.518,9.518,0,0,1-445.648-463.629Z" transform="translate(462.666 481.332)" fill="none" stroke="#b7b7b7" stroke-linecap="round" stroke-linejoin="round" stroke-miterlimit="10" stroke-width="1.2"/>
        </g>
        <g id="g109" transform="translate(15.94 4.34)">
          <path id="path111" d="M-77.057,0A2.942,2.942,0,0,1-80,2.942" transform="translate(80)" fill="none" stroke="#b7b7b7" stroke-linecap="round" stroke-linejoin="round" stroke-miterlimit="10" stroke-width="1.2"/>
        </g>
        <g id="g113" transform="translate(18.883 4.34)">
          <path id="path115" d="M0,0A2.942,2.942,0,0,0,2.942,2.942" fill="none" stroke="#b7b7b7" stroke-linecap="round" stroke-linejoin="round" stroke-miterlimit="10" stroke-width="1.2"/>
        </g>
        <g id="g117" transform="translate(15.94 7.282)">
          <path id="path119" d="M-77.057-78.342A2.985,2.985,0,0,0-80-81.333" transform="translate(80 81.333)" fill="none" stroke="#b7b7b7" stroke-linecap="round" stroke-linejoin="round" stroke-miterlimit="10" stroke-width="1.2"/>
        </g>
        <g id="g121" transform="translate(18.883 7.282)">
          <path id="path123" d="M0-78.342a2.985,2.985,0,0,1,2.942-2.991" transform="translate(0 81.333)" fill="none" stroke="#b7b7b7" stroke-linecap="round" stroke-linejoin="round" stroke-miterlimit="10" stroke-width="1.2"/>
        </g>
      </g>
    </g>
  </g>
</svg>
