<svg xmlns="http://www.w3.org/2000/svg" width="54.087" height="35.408" viewBox="0 0 54.087 35.408">
  <g id="flag_INR" transform="translate(0 0.002)">
    <path id="Path_677" data-name="Path 677" d="M57.8,397.214v-11.2h54.087v11.2c-.26.2-.413.574-.828.545-.158-.005-.316-.016-.474-.016H59.1c-.158,0-.316.01-.474.016C58.213,397.788,58.06,397.419,57.8,397.214Z" transform="translate(-57.8 -362.441)" fill="#6da12f"/>
    <path id="Path_678" data-name="Path 678" d="M57.8,219.21v-11.2c.271-.192.422-.567.833-.545.176.006.351.016.527.016h51.366c.176,0,.351-.011.527-.016.451-.005.607.368.833.651V219.21Z" transform="translate(-57.8 -207.466)" fill="#fea330"/>
    <path id="Path_679" data-name="Path 679" d="M57.8,296.408h54.087V308.24H57.8Zm27.056.925a5,5,0,1,0,3.528,1.476,4.991,4.991,0,0,0-3.528-1.476Z" transform="translate(-57.8 -284.665)" fill="#f2f3f4"/>
    <path id="Path_681" data-name="Path 681" d="M64.073,474.841c.158-.005.316-.016.474-.016h51.482c.158,0,.316.01.474.016a.849.849,0,0,1-.017.089H64.09a.781.781,0,0,1-.017-.089Z" transform="translate(-63.245 -439.524)" fill="#b1cc64"/>
    <path id="Path_686" data-name="Path 686" d="M229.824,303.414a4.991,4.991,0,1,1-5,4.992,4.991,4.991,0,0,1,5-4.992Zm-.865,3.821a.872.872,0,0,0,.01-.256c-.174-.514-.354-1.026-.535-1.537-.3-.846-.355-.847-1.089-.289-.324.246-.275.388,0,.623.535.452,1.041.937,1.613,1.459Zm1.621-.1c.094-.009.161.006.193-.021.4-.345.787-.7,1.177-1.046.743-.668.715-.782-.185-1.243-.291-.149-.35-.029-.43.2-.235.69-.493,1.375-.756,2.107Zm.374.45a8.009,8.009,0,0,0,1.828-.562c.841-.28.845-.358.275-1.087-.21-.268-.343-.317-.586-.027-.461.546-.96,1.061-1.518,1.673Zm-.266,2.031-.1.107c.2.537.371,1.085.6,1.608.11.252.035.719.423.7a1.543,1.543,0,0,0,.831-.52c.081-.076.162-.154.049-.257q-.9-.826-1.8-1.641Zm-2.145-1.983c-.033-.157-.029-.2-.048-.222q-.521-.587-1.048-1.17c-.657-.728-.71-.72-1.172.157-.032.062-.064.124-.1.185-.067.118-.037.19.092.236.733.256,1.465.52,2.275.81Zm2.466,1.659c.516.566,1.02,1.123,1.531,1.674.074.079.149.264.285.151a1.671,1.671,0,0,0,.626-.949c.045-.278-.354-.244-.556-.332-.368-.16-.753-.285-1.136-.41-.236-.082-.459-.257-.751-.137Zm-2,.438-.128-.083-1.727,1.575c-.091.083-.117.162-.011.26a3.482,3.482,0,0,0,.87.577c.1.047.163.014.2-.089l.8-2.243Zm-.407-.431c-.142-.028-.2-.059-.242-.045-.478.165-.953.335-1.428.506-.9.325-.951.542-.265,1.236a.368.368,0,0,1,.035.039c.088.119.178.155.295.027.525-.58,1.05-1.153,1.609-1.762Zm2.687-1.262.011.128c.567.037,1.135.078,1.7.11.958.053,1.041-.076.717-1.008-.08-.23-.154-.318-.4-.2-.667.333-1.348.646-2.025.967Zm0,.6-.022.125,1.678.8c.735.346.8.307.881-.536.01-.105.017-.211.029-.315.015-.135-.049-.2-.178-.189Zm-1.243-1.625a9.372,9.372,0,0,0,.9-1.709c.384-.778.334-.845-.57-.921a1.079,1.079,0,0,1-.157-.016c-.236-.055-.31.044-.3.274.049.743.081,1.487.13,2.372Zm-1.808,1.165a5.411,5.411,0,0,0-1.652-.959c-.618-.3-.67-.272-.781.393a2.774,2.774,0,0,1-.029.314c-.082.324.066.388.356.368.705-.049,1.407-.078,2.109-.115Zm1.4-2.544h.01c.009-.14.02-.279.027-.419.047-.9-.259-1.088-1.1-.7-.161.075-.209.15-.131.313.285.6.563,1.2.849,1.8.042.088.08.211.219.169.112-.034.075-.143.079-.223.026-.311.037-.625.051-.94Zm-2.67,2.936v-.01c-.122-.008-.244-.024-.366-.021-.276.008-.7-.15-.794.044a1.467,1.467,0,0,0,.122,1.061c.045.13.11.21.267.135.629-.3,1.262-.592,1.89-.894a.225.225,0,0,0,.117-.154c0-.121-.1-.11-.189-.114Zm2.684,2.637h-.011c-.015-.314-.026-.628-.046-.942-.006-.094.044-.232-.1-.255-.125-.02-.166.1-.21.194-.275.583-.552,1.165-.822,1.751-.038.083-.133.2,0,.27a1.606,1.606,0,0,0,1.11.2c.28-.07.078-.421.1-.644a3.48,3.48,0,0,0-.017-.574Zm.319.062h-.01c-.007.1-.014.209-.02.314-.051.95.126,1.074,1.033.722a.464.464,0,0,1,.05-.014c.161-.045.232-.127.149-.3-.293-.615-.578-1.232-.871-1.847-.035-.073-.078-.169-.191-.138s-.086.135-.091.216q-.021.523-.046,1.048Zm.591-2.85a.754.754,0,1,0-.768.741.732.732,0,0,0,.772-.741Z" transform="translate(-202.768 -290.745)" fill="#283d8e"/>
    <path id="Path_687" data-name="Path 687" d="M244.073,316.122c-.573-.522-1.078-1.007-1.611-1.459-.277-.235-.326-.377,0-.623.733-.558.789-.556,1.089.289.181.511.362,1.023.535,1.537a.873.873,0,0,1-.013.256Z" transform="translate(-217.883 -299.632)" fill="#e4e6ed"/>
    <path id="Path_688" data-name="Path 688" d="M268.432,315.958c.263-.732.516-1.417.755-2.107.08-.231.139-.351.43-.2.9.461.928.575.185,1.243q-.585.527-1.177,1.046C268.594,315.964,268.526,315.949,268.432,315.958Z" transform="translate(-240.621 -299.571)" fill="#e4e6ed"/>
    <path id="Path_689" data-name="Path 689" d="M271.264,322.67c.558-.612,1.057-1.127,1.516-1.676.243-.29.376-.241.586.027.571.729.567.807-.275,1.087a8.007,8.007,0,0,1-1.827.562Z" transform="translate(-243.079 -305.834)" fill="#e4e6ed"/>
    <path id="Path_690" data-name="Path 690" d="M268.618,350.361q.9.818,1.806,1.637c.113.1.032.181-.049.257a1.543,1.543,0,0,1-.831.52c-.388.02-.313-.447-.423-.7-.228-.523-.4-1.071-.6-1.608Z" transform="translate(-240.699 -331.494)" fill="#e4e6ed"/>
    <path id="Path_691" data-name="Path 691" d="M237.214,322.743c-.811-.291-1.542-.554-2.275-.814-.13-.046-.159-.118-.092-.236.034-.061.066-.123.1-.185.462-.878.516-.885,1.172-.157q.526.583,1.048,1.17A1.04,1.04,0,0,1,237.214,322.743Z" transform="translate(-211.44 -305.859)" fill="#e4e6ed"/>
    <path id="Path_692" data-name="Path 692" d="M271.682,347.642c.292-.119.514.056.75.133.383.125.768.25,1.136.41.2.088.6.054.556.332a1.671,1.671,0,0,1-.626.949c-.135.113-.211-.071-.285-.151C272.7,348.765,272.2,348.208,271.682,347.642Z" transform="translate(-243.442 -329.098)" fill="#e5e6ed"/>
    <path id="Path_693" data-name="Path 693" d="M243.847,350.683l-.8,2.24c-.037.1-.1.135-.2.089a3.482,3.482,0,0,1-.87-.577c-.106-.1-.079-.177.011-.26l1.727-1.575Z" transform="translate(-217.602 -331.702)" fill="#e4e6ed"/>
    <path id="Path_694" data-name="Path 694" d="M237.679,347.642c-.559.613-1.084,1.186-1.606,1.762-.116.128-.206.092-.295-.027a.365.365,0,0,0-.035-.039c-.685-.694-.639-.911.265-1.236.475-.171.951-.341,1.428-.506C237.479,347.583,237.536,347.614,237.679,347.642Z" transform="translate(-211.841 -329.092)" fill="#e5e6ed"/>
    <path id="Path_695" data-name="Path 695" d="M273.834,331.7c.677-.32,1.357-.633,2.028-.965.248-.123.321-.035.4.2.325.932.241,1.06-.717,1.008-.568-.031-1.135-.073-1.7-.11Z" transform="translate(-245.31 -314.408)" fill="#e5e6ed"/>
    <path id="Path_696" data-name="Path 696" d="M273.69,342.193l2.388-.119c.129-.006.193.054.178.189-.012.1-.019.21-.029.315-.082.842-.146.882-.881.536q-.84-.4-1.678-.8Z" transform="translate(-245.166 -324.301)" fill="#e5e6ed"/>
    <path id="Path_697" data-name="Path 697" d="M263.57,313.177c-.046-.885-.081-1.629-.127-2.372-.014-.229.06-.329.3-.274a1.084,1.084,0,0,0,.157.016c.9.076.954.143.57.921A9.366,9.366,0,0,1,263.57,313.177Z" transform="translate(-236.289 -296.91)" fill="#e5e6ed"/>
    <path id="Path_698" data-name="Path 698" d="M234.394,331.976c-.7.037-1.4.066-2.1.116-.29.021-.438-.043-.356-.368.025-.1.011-.211.029-.314.111-.665.163-.7.781-.393a5.411,5.411,0,0,1,1.646.959Z" transform="translate(-208.921 -314.544)" fill="#e5e6ed"/>
    <path id="Path_699" data-name="Path 699" d="M253.267,311.626c-.014.314-.025.629-.044.943,0,.08.032.189-.079.223-.139.042-.177-.081-.219-.169-.285-.6-.563-1.2-.849-1.8-.078-.163-.03-.238.131-.313.838-.392,1.144-.2,1.1.7-.007.14-.018.279-.027.419Z" transform="translate(-226.393 -296.738)" fill="#e5e6ed"/>
    <path id="Path_700" data-name="Path 700" d="M233.067,341.9l1.047.049c.084,0,.193-.007.189.114a.225.225,0,0,1-.117.154c-.628.3-1.261.594-1.89.894-.157.075-.222-.005-.267-.135a1.467,1.467,0,0,1-.122-1.061c.1-.2.518-.037.794-.044.122,0,.244.013.366.021Z" transform="translate(-208.863 -324.079)" fill="#e5e6ed"/>
    <path id="Path_701" data-name="Path 701" d="M253.169,354.551a3.48,3.48,0,0,1,.025.575c-.025.223.176.574-.1.644a1.606,1.606,0,0,1-1.11-.2c-.135-.072-.04-.187,0-.27.27-.585.547-1.168.822-1.751.044-.093.084-.214.21-.194.145.023.1.161.1.255.019.314.031.628.046.942Z" transform="translate(-226.281 -334.09)" fill="#e5e6ed"/>
    <path id="Path_702" data-name="Path 702" d="M263.6,354.55c.016-.349.031-.7.05-1.048,0-.081-.023-.185.091-.216s.156.065.191.138c.293.614.578,1.232.871,1.847.083.174.012.256-.149.3a.149.149,0,0,0-.05.014c-.907.352-1.084.228-1.033-.722.006-.1.013-.21.02-.314Z" transform="translate(-236.397 -334.027)" fill="#e5e6ed"/>
    <path id="Path_703" data-name="Path 703" d="M258.413,336.266a.754.754,0,1,1-.741-.768.731.731,0,0,1,.741.768Zm-.323-.017a.4.4,0,0,0-.434-.421.424.424,0,0,0,0,.848C257.934,336.676,258.066,336.514,258.09,336.249Z" transform="translate(-230.615 -318.593)" fill="#d9dbe7"/>
    <path id="Path_704" data-name="Path 704" d="M260.264,338.421c-.024.264-.156.427-.429.427a.424.424,0,0,1-.005-.848.4.4,0,0,1,.434.421Z" transform="translate(-232.789 -320.765)" fill="#22398b"/>
  </g>
</svg>
