<svg xmlns="http://www.w3.org/2000/svg" width="54.087" height="35.504" viewBox="0 0 54.087 35.504">
  <g id="flag_AED" transform="translate(0 0.005)">
    <path id="Path_724" data-name="Path 724" d="M101.982,260.264V226.038c.221-.211.335-.567.731-.541l5.949.012,10,.016q.006,5.855.011,11.71v2.692q0,10.425-.008,20.85c-.263.005-.526.014-.789.015l-15.163.013C102.317,260.831,102.2,260.475,101.982,260.264Z" transform="translate(-101.982 -225.404)" fill="#e93546"/>
    <path id="Path_725" data-name="Path 725" d="M266.59,314.408v11.831H229.316V314.408Z" transform="translate(-212.503 -302.576)" fill="#f2f3f4"/>
    <path id="Path_726" data-name="Path 726" d="M229.152,404.015h37.274v11.2c-.315.124-.414.584-.837.54a.925.925,0,0,0-.1-.012H229.157l-.026-.023c0-.475.008-.949.008-1.424Q229.144,409.157,229.152,404.015Z" transform="translate(-212.339 -380.352)" fill="#353744"/>
    <path id="Path_727" data-name="Path 727" d="M266.394,237.259H229.121l-.02-.01-.011-11.7.031-.017h33.586c.95,0,1.9-.006,2.851-.01.45-.008.577.4.835.644Z" transform="translate(-212.307 -225.428)" fill="#6da12f"/>
    <path id="Path_728" data-name="Path 728" d="M265.645,224.9c-.95,0-1.9.01-2.851.01H229.208a.22.22,0,0,1-.017-.1h36.445A.19.19,0,0,0,265.645,224.9Z" transform="translate(-212.394 -224.8)" fill="#b1cc64"/>
    <path id="Path_729" data-name="Path 729" d="M229.21,492.829h36.332a.909.909,0,0,1,.1.012.2.2,0,0,0-.008.093H229.193a.308.308,0,0,1,.017-.1Z" transform="translate(-212.397 -457.435)" fill="#8c8d95"/>
    <path id="Path_730" data-name="Path 730" d="M123.586,224.8a.221.221,0,0,0,.017.1l-.031.016a.23.23,0,0,0-.1,0l-10-.016-5.949-.012a.28.28,0,0,0,.008-.093Z" transform="translate(-106.79 -224.8)" fill="#f18b95"/>
    <path id="Path_731" data-name="Path 731" d="M123.6,492.707a.308.308,0,0,0-.017.1H107.529a.281.281,0,0,0-.008-.093l15.163-.013c.263,0,.526-.01.789-.015h.052l.052-.008Z" transform="translate(-106.79 -457.313)" fill="#f18b95"/>
    <path id="Path_736" data-name="Path 736" d="M228.441,337.883l-.052.008h-.052q0-10.425.007-20.85v-2.692a.872.872,0,0,0,.1-.01l.02.01V326.18q-.008,5.142-.017,10.284C228.449,336.934,228.444,337.409,228.441,337.883Z" transform="translate(-211.654 -302.513)" fill="#eb505e"/>
    <path id="Path_737" data-name="Path 737" d="M228.45,237.372a.854.854,0,0,1-.1.01q-.006-5.855-.011-11.71a.232.232,0,0,1,.1,0Q228.444,231.52,228.45,237.372Z" transform="translate(-211.656 -225.55)" fill="#eb505c"/>
  </g>
</svg>
