<svg xmlns="http://www.w3.org/2000/svg" xmlns:xlink="http://www.w3.org/1999/xlink" width="64.131" height="49.178" viewBox="0 0 64.131 49.178">
  <defs>
    <linearGradient id="linear-gradient" x1="0.5" x2="0.5" y2="1" gradientUnits="objectBoundingBox">
      <stop offset="0" stop-color="#ffd196"/>
      <stop offset="1" stop-color="#fba562"/>
    </linearGradient>
    <linearGradient id="linear-gradient-2" x1="0.5" x2="0.5" y2="1" gradientUnits="objectBoundingBox">
      <stop offset="0" stop-color="#a6d7ff"/>
      <stop offset="1" stop-color="#ebf6ff"/>
    </linearGradient>
    <linearGradient id="linear-gradient-6" x1="0.5" x2="0.5" y2="1" gradientUnits="objectBoundingBox">
      <stop offset="0" stop-color="#ffbe68"/>
      <stop offset="1" stop-color="#fba562"/>
    </linearGradient>
  </defs>
  <g id="flight-icon" transform="translate(0 0)">
    <path id="Path_78671" data-name="Path 78671" d="M1209.637,1812.86l-6.81-3.138,7.655-4.41,1.49.864c.724.429,1.048.977.806,1.572l-1.893,5.676Z" transform="translate(-1191.952 -1797.344)" fill="#fff" fill-rule="evenodd"/>
    <path id="Path_78672" data-name="Path 78672" d="M1210.006,1812.6l.766.341,1.773-5.181c.08-.361-.122-.7-.644-1.006l-1.248-.729-6.647,3.818,6,2.757Zm1.048,1.462a.387.387,0,0,1-.2-.041l-1.208-.563h0l-6.85-3.14a.547.547,0,0,1-.281-.411.487.487,0,0,1,.243-.431l7.652-4.411a.492.492,0,0,1,.484,0l1.49.865a1.782,1.782,0,0,1,1.047,2.136l-1.934,5.677a.407.407,0,0,1-.281.281A.381.381,0,0,1,1211.054,1814.062Z" transform="translate(-1192.121 -1797.51)" fill="#02166f" fill-rule="evenodd"/>
    <path id="Path_78673" data-name="Path 78673" d="M1234.142,1818.5l-5.881-3.411c-1.491-.489-3.3,2.731-2.176,3.73l5.921,3.417c-.684-.581-.241-1.8.081-2.434a3.353,3.353,0,0,1,1.007-1.1A1.267,1.267,0,0,1,1234.142,1818.5Z" transform="translate(-1179.638 -1792.115)" fill="#fff" fill-rule="evenodd"/>
    <path id="Path_78674" data-name="Path 78674" d="M1228.1,1815.65c-.363,0-.927.453-1.328,1.156-.444.757-.524,1.542-.2,1.819l4.753,2.757a3.888,3.888,0,0,1,.524-1.64,3.461,3.461,0,0,1,1.167-1.261v-.016l-4.833-2.8c-.041-.008-.082-.01-.082-.01Zm4.068,7.222a.489.489,0,0,1-.241-.064L1226,1819.4c-.846-.744-.645-2.062-.082-3.061.6-1.009,1.612-1.868,2.619-1.531l6,3.456a.468.468,0,0,1-.363.858.727.727,0,0,0-.645.161,2.8,2.8,0,0,0-.886.93c-.283.516-.564,1.484-.161,1.833a.471.471,0,0,1-.323.83Z" transform="translate(-1179.799 -1792.281)" fill="#02166f" fill-rule="evenodd"/>
    <path id="Path_78675" data-name="Path 78675" d="M1231.043,1821.023a3.45,3.45,0,0,0,1.572-2.735c0-1.007-.686-1.416-1.572-.912a3.44,3.44,0,0,0-1.57,2.735C1229.473,1821.118,1230.157,1821.525,1231.043,1821.023Z" transform="translate(-1177.628 -1790.974)" fill-rule="evenodd" fill="url(#linear-gradient)"/>
    <path id="Path_78676" data-name="Path 78676" d="M1231.938,1817.8a.9.9,0,0,0-.483.154,3,3,0,0,0-1.33,2.323.76.76,0,0,0,.2.612.71.71,0,0,0,.644-.112h0a3.01,3.01,0,0,0,1.33-2.323.76.76,0,0,0-.2-.614.331.331,0,0,0-.16-.04Zm-1.45,4.073a1.372,1.372,0,0,1-.644-.164,1.567,1.567,0,0,1-.684-1.431,3.992,3.992,0,0,1,1.811-3.146,1.629,1.629,0,0,1,1.613-.113,1.578,1.578,0,0,1,.684,1.435,3.992,3.992,0,0,1-1.813,3.146h0A1.984,1.984,0,0,1,1230.488,1821.872Z" transform="translate(-1177.796 -1791.139)" fill="#02166f" fill-rule="evenodd"/>
    <path id="Path_78677" data-name="Path 78677" d="M1230.912,1828.165q5.316-8.486,10.634-16.967a1.186,1.186,0,0,0,.122-1.149,1.94,1.94,0,0,0-.967-1l-3.746-2.168-17.2,14.856Z" transform="translate(-1182.853 -1796.501)" fill-rule="evenodd" fill="url(#linear-gradient-2)"/>
    <path id="Path_78678" data-name="Path 78678" d="M1220.718,1821.829l10.191,5.864,10.392-16.584a.685.685,0,0,0,.082-.726,1.569,1.569,0,0,0-.766-.761l-3.464-2-16.435,14.21Zm10.353,6.977a.545.545,0,0,1-.241-.066l-11.158-6.425a.443.443,0,0,1-.2-.366.4.4,0,0,1,.16-.4l17.161-14.861a.5.5,0,0,1,.564-.052l3.745,2.171a2.4,2.4,0,0,1,1.17,1.241,1.694,1.694,0,0,1-.161,1.572l-10.636,16.969A.522.522,0,0,1,1231.07,1828.806Z" transform="translate(-1183.012 -1796.667)" fill="#02166f" fill-rule="evenodd"/>
    <path id="Path_78679" data-name="Path 78679" d="M1251.923,1844.538c-1.691-.455-3.544-.93-5.2-1.55a15.116,15.116,0,0,1-1.813-.88l-11.683-6.747-12.365-7.137-1.33-.969c-3.1-2.251-6.2-4.5-9.345-6.755l-9.75-8.887c-1.773-.567-.846-5.018,2.3-3.931l19.979,9.2,13.174,6.922,5,2.883,3.221,1.914,7.132,4.241a11.636,11.636,0,0,1,3.143,3.167c3.223,3.536,2.98,4.036,2.98,6.859a1.6,1.6,0,0,1-.886,1.21l-.484.277a4.436,4.436,0,0,1-2.537.5A10.552,10.552,0,0,1,1251.923,1844.538Z" transform="translate(-1193.714 -1796.161)" fill="#fff" fill-rule="evenodd"/>
    <path id="Path_78680" data-name="Path 78680" d="M1252.208,1844.247l.161.035a8.323,8.323,0,0,0,1.289.271,4.165,4.165,0,0,0,2.3-.45l.443-.269c.443-.291.6-.437.644-.86v-.5c.04-2.285.04-2.829-2.82-5.983a4.77,4.77,0,0,1-.523-.657,8.88,8.88,0,0,0-2.539-2.421l-10.354-6.155-4.994-2.88-13.132-6.918-19.981-9.185a1.774,1.774,0,0,0-1.814.266,2.307,2.307,0,0,0-.644,2.071.807.807,0,0,0,.524.713.3.3,0,0,1,.16.1l9.75,8.887,10.635,7.689,24.01,13.863a14.5,14.5,0,0,0,1.771.846,51.245,51.245,0,0,0,4.916,1.485l.2.049Zm1.813,1.256c-.122,0-.281,0-.4-.008a9.3,9.3,0,0,1-1.49-.3l-.163-.032v0l-.2-.049c-1.651-.45-3.426-.915-5.036-1.522a15.452,15.452,0,0,1-1.854-.9l-24.089-13.9-10.715-7.749-9.708-8.855a1.785,1.785,0,0,1-1.047-1.381,3.164,3.164,0,0,1,.968-2.979,2.685,2.685,0,0,1,2.778-.435l20.021,9.218,13.174,6.933,8.258,4.807,7.13,4.244a9.015,9.015,0,0,1,2.78,2.66c.2.23.361.435.483.6,2.981,3.292,3.1,4.09,3.1,6.628v.551a2.059,2.059,0,0,1-1.127,1.608l-.483.29A4.816,4.816,0,0,1,1254.021,1845.5Z" transform="translate(-1193.877 -1796.326)" fill="#02166f" fill-rule="evenodd"/>
    <path id="Path_78681" data-name="Path 78681" d="M1251.92,1844.007c-1.691-.455-3.544-.93-5.2-1.55a15.175,15.175,0,0,1-1.813-.88l-11.682-6.747-12.365-7.137-1.33-.969c-3.1-2.251-6.2-4.5-9.345-6.755l-9.75-8.887c-.888-.281-1.087-1.537-.684-2.586,2.054,2.861,12,10.966,22,17.255,14.341,9.018,30.252,18.763,34.765,16.238a2.143,2.143,0,0,0,.846-.858v1.207a1.594,1.594,0,0,1-.885,1.21l-.484.277a4.441,4.441,0,0,1-2.537.5A10.6,10.6,0,0,1,1251.92,1844.007Z" transform="translate(-1193.711 -1795.631)" fill-rule="evenodd" fill="url(#linear-gradient)"/>
    <path id="Path_78682" data-name="Path 78682" d="M1252.212,1843.718l.161.035a8.3,8.3,0,0,0,1.289.271,4.161,4.161,0,0,0,2.3-.451l.443-.269c.443-.283.6-.428.644-.827-.04.025-.08.049-.121.072-4.633,2.6-19.335-6.2-35.249-16.234-9.1-5.725-18.408-13.138-21.471-16.569a1.626,1.626,0,0,0,.12.644.761.761,0,0,0,.445.408.294.294,0,0,1,.16.1l9.75,8.887,10.636,7.689,24.009,13.863a14.322,14.322,0,0,0,1.771.846,51.18,51.18,0,0,0,4.916,1.486l.2.049Zm1.813,1.256c-.122,0-.281,0-.4-.008a9.343,9.343,0,0,1-1.49-.3l-.163-.032v0l-.2-.049c-1.651-.451-3.426-.915-5.036-1.518a16.305,16.305,0,0,1-1.854-.9l-24.089-13.9-10.715-7.749-9.708-8.855a1.743,1.743,0,0,1-.886-.861,2.876,2.876,0,0,1,0-2.313.457.457,0,0,1,.806-.106c2.094,2.852,12.084,10.958,21.873,17.129,11.158,7.014,29.809,18.744,34.322,16.227a1.842,1.842,0,0,0,.6-.614l.082-.109a.47.47,0,0,1,.523-.173.454.454,0,0,1,.321.448v1.211a2.045,2.045,0,0,1-1.127,1.6l-.483.3A4.817,4.817,0,0,1,1254.025,1844.974Z" transform="translate(-1193.881 -1795.797)" fill="#02166f" fill-rule="evenodd"/>
    <path id="Path_78683" data-name="Path 78683" d="M1235.752,1829.237c-2.255,1.3-4.027.1-6.122-.976l.925.069c2.82.219,6.568-2.088,5.841-3.618C1237.646,1826.49,1238.451,1827.681,1235.752,1829.237Z" transform="translate(-1177.543 -1786.914)" fill-rule="evenodd" fill="url(#linear-gradient)"/>
    <path id="Path_78684" data-name="Path 78684" d="M1235.926,1829.4h0Zm-4.069-.464a3.767,3.767,0,0,0,3.827.052h0c.967-.537,1.45-1.03,1.572-1.515a1.925,1.925,0,0,0-.363-1.3c-.04.072-.121.149-.161.229a7.533,7.533,0,0,1-4.874,2.534Zm2.1,1.507a8.343,8.343,0,0,1-3.707-1.258l-.684-.337a.5.5,0,0,1-.243-.549.524.524,0,0,1,.524-.346l.886.069a6.81,6.81,0,0,0,5.238-2.169.915.915,0,0,0,.2-.784.453.453,0,0,1,.161-.609.493.493,0,0,1,.644.141c.724,1.049,1.41,2.034,1.167,3.077-.16.767-.764,1.443-1.973,2.128h0A4.333,4.333,0,0,1,1233.953,1830.446Z" transform="translate(-1177.716 -1787.081)" fill="#02166f" fill-rule="evenodd"/>
    <path id="Path_78685" data-name="Path 78685" d="M1226.43,1824.691l-.162-.1a.485.485,0,0,0-.2-.062v.8a1.046,1.046,0,0,0,.442.806l.2.1a.338.338,0,0,0,.163.062.23.23,0,0,0,.04-.162v-.639A.986.986,0,0,0,1226.43,1824.691Z" transform="translate(-1179.459 -1787.013)" fill="#bdedf8" fill-rule="evenodd"/>
    <path id="Path_78686" data-name="Path 78686" d="M1227.042,1826.939l-.041,0a.9.9,0,0,1-.363-.121l-.16-.1a1.523,1.523,0,0,1-.726-1.216v-.64a.839.839,0,0,1,.042-.327.488.488,0,0,1,.523-.306.935.935,0,0,1,.363.121l.161.1a1.521,1.521,0,0,1,.724,1.218v.64a.914.914,0,0,1-.08.326A.444.444,0,0,1,1227.042,1826.939Z" transform="translate(-1179.628 -1787.18)" fill="#31cfff" fill-rule="evenodd"/>
    <path id="Path_78687" data-name="Path 78687" d="M1224.556,1823.588c-.081-.031-.12-.063-.2-.1a.293.293,0,0,0-.161-.061.219.219,0,0,0-.04.161v.637a.989.989,0,0,0,.481.809c.041.032.123.069.163.1a.449.449,0,0,0,.2.065v-.8A1.06,1.06,0,0,0,1224.556,1823.588Z" transform="translate(-1180.486 -1787.603)" fill="#bdedf8" fill-rule="evenodd"/>
    <path id="Path_78688" data-name="Path 78688" d="M1225.168,1825.841a.626.626,0,0,1-.08,0,.9.9,0,0,1-.363-.124l-.161-.1a1.526,1.526,0,0,1-.724-1.218v-.636a.883.883,0,0,1,.08-.33.46.46,0,0,1,.484-.306.848.848,0,0,1,.361.129l-.04.475v.008l.2-.391a1.54,1.54,0,0,1,.724,1.224v.634a.88.88,0,0,1-.04.329A.53.53,0,0,1,1225.168,1825.841Z" transform="translate(-1180.656 -1787.77)" fill="#31cfff" fill-rule="evenodd"/>
    <path id="Path_78689" data-name="Path 78689" d="M1222.632,1822.49c-.04-.033-.122-.065-.161-.1a.517.517,0,0,0-.2-.06v.8a1.06,1.06,0,0,0,.445.811.477.477,0,0,1,.16.1.92.92,0,0,0,.2.062c0-.045.04-.1.04-.166v-.636A1.105,1.105,0,0,0,1222.632,1822.49Z" transform="translate(-1181.501 -1788.193)" fill="#bdedf8" fill-rule="evenodd"/>
    <path id="Path_78690" data-name="Path 78690" d="M1223.243,1824.74h-.041a.916.916,0,0,1-.362-.122l-.121-.065a1.5,1.5,0,0,1-.766-1.256v-.637a.837.837,0,0,1,.042-.326.468.468,0,0,1,.483-.306,1,1,0,0,1,.4.12l.16.092v.006a1.5,1.5,0,0,1,.686,1.219v.636a.849.849,0,0,1-.04.326A.476.476,0,0,1,1223.243,1824.74Z" transform="translate(-1181.67 -1788.359)" fill="#31cfff" fill-rule="evenodd"/>
    <path id="Path_78691" data-name="Path 78691" d="M1220.718,1821.393a.553.553,0,0,0-.161-.1.309.309,0,0,0-.16-.06.21.21,0,0,0-.041.16v.636a.992.992,0,0,0,.483.81.583.583,0,0,0,.163.1.342.342,0,0,0,.16.065.235.235,0,0,0,.04-.166v-.636A.986.986,0,0,0,1220.718,1821.393Z" transform="translate(-1182.529 -1788.783)" fill="#bdedf8" fill-rule="evenodd"/>
    <path id="Path_78692" data-name="Path 78692" d="M1221.33,1823.646s0,0-.039,0a.883.883,0,0,1-.364-.125l-.161-.092a1.548,1.548,0,0,1-.724-1.225v-.636a.92.92,0,0,1,.08-.338.48.48,0,0,1,.484-.3,1.026,1.026,0,0,1,.361.124l.162.1a1.521,1.521,0,0,1,.725,1.216v.637a.857.857,0,0,1-.08.327A.445.445,0,0,1,1221.33,1823.646Z" transform="translate(-1182.698 -1788.95)" fill="#31cfff" fill-rule="evenodd"/>
    <path id="Path_78693" data-name="Path 78693" d="M1218.846,1820.3a.549.549,0,0,1-.161-.1.639.639,0,0,0-.2-.06c0,.045-.042.1-.042.16v.636a1.107,1.107,0,0,0,.484.811c.04.032.12.064.162.1a.523.523,0,0,0,.2.065v-.8A1.056,1.056,0,0,0,1218.846,1820.3Z" transform="translate(-1183.557 -1789.373)" fill="#bdedf8" fill-rule="evenodd"/>
    <path id="Path_78694" data-name="Path 78694" d="M1219.444,1822.545c-.042,0-.042,0-.042,0a.861.861,0,0,1-.4-.122l-.161-.1a1.485,1.485,0,0,1-.686-1.218v-.636a.814.814,0,0,1,.041-.324.472.472,0,0,1,.481-.312,1.048,1.048,0,0,1,.4.129l.162.092a1.5,1.5,0,0,1,.684,1.221v.637a.872.872,0,0,1-.04.327A.476.476,0,0,1,1219.444,1822.545Z" transform="translate(-1183.712 -1789.541)" fill="#31cfff" fill-rule="evenodd"/>
    <path id="Path_78695" data-name="Path 78695" d="M1216.918,1819.2l-.161-.1a.507.507,0,0,0-.2-.064v.8a1.058,1.058,0,0,0,.441.81l.2.1a.318.318,0,0,0,.16.06.212.212,0,0,0,.041-.16v-.637A.991.991,0,0,0,1216.918,1819.2Z" transform="translate(-1184.571 -1789.965)" fill="#bdedf8" fill-rule="evenodd"/>
    <path id="Path_78696" data-name="Path 78696" d="M1217.531,1821.447h-.04a.917.917,0,0,1-.363-.121l-.16-.1a1.539,1.539,0,0,1-.726-1.219v-.637a.889.889,0,0,1,.08-.33.433.433,0,0,1,.484-.306.871.871,0,0,1,.361.125l.163.1a1.529,1.529,0,0,1,.724,1.218v.637a.876.876,0,0,1-.08.324A.442.442,0,0,1,1217.531,1821.447Z" transform="translate(-1184.74 -1790.13)" fill="#31cfff" fill-rule="evenodd"/>
    <path id="Path_78697" data-name="Path 78697" d="M1215.1,1818.133c-.08-.032-.12-.066-.2-.1a.4.4,0,0,0-.161-.064c0,.049-.04.1-.04.165v.636a1.1,1.1,0,0,0,.484.811c.04.032.12.064.16.1a.476.476,0,0,0,.2.06v-.8A1.053,1.053,0,0,0,1215.1,1818.133Z" transform="translate(-1185.571 -1790.538)" fill="#bdedf8" fill-rule="evenodd"/>
    <path id="Path_78698" data-name="Path 78698" d="M1215.7,1820.38h-.04a1.194,1.194,0,0,1-.4-.12l-.16-.1a1.5,1.5,0,0,1-.686-1.222v-.636a.881.881,0,0,1,.04-.326.486.486,0,0,1,.483-.31.88.88,0,0,1,.365.126l.2.1h0a1.5,1.5,0,0,1,.684,1.222v.635a.863.863,0,0,1-.04.327A.473.473,0,0,1,1215.7,1820.38Z" transform="translate(-1185.726 -1790.704)" fill="#31cfff" fill-rule="evenodd"/>
    <path id="Path_78699" data-name="Path 78699" d="M1213.172,1817.035c-.039-.032-.122-.064-.16-.1a.439.439,0,0,0-.2-.064v.8a1.05,1.05,0,0,0,.443.806c.082.037.121.069.2.1a.345.345,0,0,0,.161.06c0-.045.04-.1.04-.161v-.641A.989.989,0,0,0,1213.172,1817.035Z" transform="translate(-1186.585 -1791.128)" fill="#bdedf8" fill-rule="evenodd"/>
    <path id="Path_78700" data-name="Path 78700" d="M1213.784,1819.284l-.042,0a.933.933,0,0,1-.363-.122l-.2-.1a1.581,1.581,0,0,1-.684-1.215v-.641a.879.879,0,0,1,.08-.338.416.416,0,0,1,.443-.294.913.913,0,0,1,.4.129l.161.093h0a1.527,1.527,0,0,1,.726,1.217v.641a.9.9,0,0,1-.082.329A.479.479,0,0,1,1213.784,1819.284Z" transform="translate(-1186.754 -1791.294)" fill="#31cfff" fill-rule="evenodd"/>
    <path id="Path_78701" data-name="Path 78701" d="M1218.952,1827.353l-5.921-3.415c-1.452-.485-3.3,2.731-2.134,3.735l5.881,3.412c-.484-.42-.364-1.233-.2-1.777a4.094,4.094,0,0,1,.644-1.159C1217.622,1827.68,1218.308,1827.141,1218.952,1827.353Z" transform="translate(-1187.813 -1787.357)" fill="#fff" fill-rule="evenodd"/>
    <path id="Path_78702" data-name="Path 78702" d="M1212.88,1824.5c-.363,0-.929.455-1.33,1.156-.445.758-.524,1.541-.2,1.82l4.8,2.752a3.566,3.566,0,0,1,.16-.912,5.257,5.257,0,0,1,.726-1.308,3.115,3.115,0,0,1,.8-.7l-4.874-2.8a.287.287,0,0,0-.078-.012Zm4.069,7.22a.277.277,0,0,1-.2-.061l-5.923-3.417c-.806-.661-.806-1.841-.082-3.052.564-1.009,1.612-1.873,2.619-1.539l6,3.456a.475.475,0,0,1-.4.856c-.361-.112-.846.239-1.209.646a3.359,3.359,0,0,0-.564,1.015c-.16.466-.2,1.04.082,1.268a.532.532,0,0,1,.082.634A.54.54,0,0,1,1216.949,1831.723Z" transform="translate(-1187.984 -1787.522)" fill="#02166f" fill-rule="evenodd"/>
    <path id="Path_78703" data-name="Path 78703" d="M1234.382,1826.158c-9.788,2.051-19.616,4.1-29.4,6.147a5.356,5.356,0,0,1-3.709-.481l-3.785-2.173,25.741-9.922Z" transform="translate(-1194.825 -1789.593)" fill-rule="evenodd" fill="url(#linear-gradient-2)"/>
    <path id="Path_78704" data-name="Path 78704" d="M1198.728,1829.9l2.9,1.677a5.09,5.09,0,0,0,3.422.428l28.159-5.9-9.868-5.7-24.615,9.485Zm5.157,3.17a5.324,5.324,0,0,1-2.7-.675l-3.747-2.173a.429.429,0,0,1-.241-.448.442.442,0,0,1,.281-.4l25.742-9.923a.452.452,0,0,1,.4.032l11.16,6.43a.453.453,0,0,1,.2.483.417.417,0,0,1-.363.387l-29.368,6.143A6.84,6.84,0,0,1,1203.885,1833.074Z" transform="translate(-1194.982 -1789.758)" fill="#02166f" fill-rule="evenodd"/>
    <path id="Path_78705" data-name="Path 78705" d="M1209.563,1813.622,1200.3,1815a4.508,4.508,0,0,1-2.74-.48l-1.49-.864,7.654-4.413Z" transform="translate(-1195.585 -1795.228)" fill="#fff" fill-rule="evenodd"/>
    <path id="Path_78706" data-name="Path 78706" d="M1197.164,1813.824l.806.455a3.877,3.877,0,0,0,2.417.418l8.137-1.208-4.673-3.509-6.687,3.844Zm2.658,1.853a4.649,4.649,0,0,1-2.336-.58l-1.491-.864a.47.47,0,0,1,0-.821l7.654-4.407a.464.464,0,0,1,.523.028l5.841,4.376a.462.462,0,0,1,.162.5.477.477,0,0,1-.362.355l-9.306,1.377A5.675,5.675,0,0,1,1199.823,1815.677Z" transform="translate(-1195.754 -1795.394)" fill="#02166f" fill-rule="evenodd"/>
    <path id="Path_78707" data-name="Path 78707" d="M1201.018,1811.618l-2.093-11.18,3.262,1.87,7.613,13.757Z" transform="translate(-1194.05 -1799.964)" fill-rule="evenodd" fill="url(#linear-gradient-6)"/>
    <path id="Path_78708" data-name="Path 78708" d="M1201.621,1811.47l7.17,3.646-6.808-12.3-2.216-1.293,1.854,9.943Zm8.339,5.235a.361.361,0,0,1-.2-.047l-8.779-4.451a.426.426,0,0,1-.243-.336l-2.094-11.182a.5.5,0,0,1,.16-.471.51.51,0,0,1,.525-.029l3.263,1.873a.933.933,0,0,1,.161.183l7.613,13.76a.472.472,0,0,1-.039.556A.577.577,0,0,1,1209.959,1816.705Z" transform="translate(-1194.208 -1800.129)" fill="#02166f" fill-rule="evenodd"/>
    <path id="Path_78709" data-name="Path 78709" d="M1230.992,1819.316a.5.5,0,0,1-.241-.064l-.926-.548a.475.475,0,0,1-.2-.644.482.482,0,0,1,.644-.175l.967.544a.437.437,0,0,1,.16.649A.452.452,0,0,1,1230.992,1819.316Z" transform="translate(-1177.577 -1790.618)" fill="#02166f" fill-rule="evenodd"/>
    <path id="Path_78710" data-name="Path 78710" d="M1215.98,1829.981a3.44,3.44,0,0,0,1.571-2.734c0-1-.686-1.413-1.571-.91a3.446,3.446,0,0,0-1.572,2.735C1214.408,1830.077,1215.094,1830.485,1215.98,1829.981Z" transform="translate(-1185.726 -1786.157)" fill-rule="evenodd" fill="url(#linear-gradient)"/>
    <path id="Path_78711" data-name="Path 78711" d="M1216.873,1826.76a.919.919,0,0,0-.483.151,3.053,3.053,0,0,0-1.37,2.326c0,.3.08.531.243.612a.7.7,0,0,0,.644-.114,3.048,3.048,0,0,0,1.37-2.323.762.762,0,0,0-.242-.612.353.353,0,0,0-.161-.04Zm-1.45,4.076a1.27,1.27,0,0,1-.645-.169,1.567,1.567,0,0,1-.686-1.43,3.983,3.983,0,0,1,1.814-3.146,1.607,1.607,0,0,1,1.61-.109,1.653,1.653,0,0,1,.686,1.43,3.986,3.986,0,0,1-1.813,3.146A1.916,1.916,0,0,1,1215.423,1830.836Z" transform="translate(-1185.895 -1786.322)" fill="#02166f" fill-rule="evenodd"/>
    <path id="Path_78712" data-name="Path 78712" d="M1215.929,1828.276a.491.491,0,0,1-.242-.065l-.967-.544a.509.509,0,0,1-.162-.649.477.477,0,0,1,.645-.172l.967.549a.5.5,0,0,1,.162.643A.456.456,0,0,1,1215.929,1828.276Z" transform="translate(-1185.675 -1785.801)" fill="#02166f" fill-rule="evenodd"/>
    <path id="Path_95187" data-name="Path 95187" d="M1201.018,1811.618l-2.093-11.18,3.262,1.87,7.613,13.757Z" transform="translate(-1194.05 -1799.964)" fill-rule="evenodd" fill="url(#linear-gradient-6)"/>
  </g>
</svg>
