<svg xmlns="http://www.w3.org/2000/svg" xmlns:xlink="http://www.w3.org/1999/xlink" width="42.69" height="45.725" viewBox="0 0 42.69 45.725">
  <defs>
    <linearGradient id="linear-gradient" x1="0.5" x2="0.5" y2="1" gradientUnits="objectBoundingBox">
      <stop offset="0" stop-color="#a6d7ff"/>
      <stop offset="1" stop-color="#ebf6ff"/>
    </linearGradient>
    <linearGradient id="linear-gradient-2" x1="0.5" x2="0.5" y2="1" gradientUnits="objectBoundingBox">
      <stop offset="0" stop-color="#ffbe68"/>
      <stop offset="1" stop-color="#fba562"/>
    </linearGradient>
  </defs>
  <g id="fph-icon" transform="translate(-50.31 -291.834)">
    <g id="Group_20482" data-name="Group 20482" transform="translate(50.31 307.645)">
      <path id="Path_78713" data-name="Path 78713" d="M2616.809,1235.386l15.753-9.1,17.3,9.989-15.753,9.1Z" transform="translate(-2616.582 -1216.902)" fill-rule="evenodd" fill="url(#linear-gradient)"/>
      <path id="Path_78714" data-name="Path 78714" d="M2649.343,1236.192l-15.318,8.839-16.868-9.73,15.318-8.839,16.869,9.73Zm-15.318,9.317a.253.253,0,0,0,.114-.032l15.753-9.1a.2.2,0,0,0,.114-.188.21.21,0,0,0-.114-.195l-17.3-9.987a.243.243,0,0,0-.227,0l-15.753,9.1a.216.216,0,0,0-.113.194.2.2,0,0,0,.113.188l17.3,9.988A.253.253,0,0,0,2634.024,1245.509Z" transform="translate(-2616.494 -1216.817)" fill="#1a87c7" fill-rule="evenodd"/>
      <path id="Path_78715" data-name="Path 78715" d="M2616.809,1249.223l15.753-9.1v1.224l-15.753,9.1Z" transform="translate(-2599.279 -1220.752)" fill="#fff" fill-rule="evenodd"/>
      <path id="Path_78716" data-name="Path 78716" d="M2632.266,1241.137l-15.318,8.835v-.709l15.3-8.841.019.715Zm-15.545,9.443a.2.2,0,0,0,.114-.031l15.753-9.09a.217.217,0,0,0,.114-.195v-1.224a.21.21,0,0,0-.114-.195.238.238,0,0,0-.227,0l-15.754,9.1a.252.252,0,0,0-.112.194v1.223a.25.25,0,0,0,.112.189A.2.2,0,0,0,2616.721,1250.58Z" transform="translate(-2599.19 -1220.665)" fill="#02166f" fill-rule="evenodd"/>
      <path id="Path_78717" data-name="Path 78717" d="M2655.936,1250.1l-17.3-9.987v-1.224l17.3,9.987Z" transform="translate(-2638.406 -1220.408)" fill="#31cfff" fill-rule="evenodd"/>
      <path id="Path_78718" data-name="Path 78718" d="M2655.622,1248.92v.709l-16.869-9.731v-.71l16.869,9.732Zm.227,1.317a.2.2,0,0,0,.114-.031.207.207,0,0,0,.113-.189v-1.223a.21.21,0,0,0-.113-.194l-17.324-9.987a.2.2,0,0,0-.208,0,.215.215,0,0,0-.113.194v1.224a.215.215,0,0,0,.113.193l17.3,9.983A.2.2,0,0,0,2655.849,1250.237Z" transform="translate(-2638.318 -1220.322)" fill="#02166f" fill-rule="evenodd"/>
      <path id="Path_78719" data-name="Path 78719" d="M2623.594,1242.285l10.817-6.237-.019-12-10.8,6.237Z" transform="translate(-2606.025 -1216.278)" fill="#fff" fill-rule="evenodd"/>
      <path id="Path_78720" data-name="Path 78720" d="M2634.123,1235.836l-10.363,5.978v-11.492l10.345-5.98.018,11.494Zm-10.59,6.587a.26.26,0,0,0,.114-.032l10.8-6.235a.211.211,0,0,0,.113-.195v-12a.249.249,0,0,0-.113-.193.213.213,0,0,0-.228,0l-10.8,6.235a.21.21,0,0,0-.113.195l.019,12a.233.233,0,0,0,.094.193A.26.26,0,0,0,2623.533,1242.423Z" transform="translate(-2605.965 -1216.191)" fill="#02166f" fill-rule="evenodd"/>
      <path id="Path_78721" data-name="Path 78721" d="M2651.667,1241.78v-12.009l-13.087-7.541.019,12.008Z" transform="translate(-2634.099 -1215.773)" fill="#fff" fill-rule="evenodd"/>
      <path id="Path_78722" data-name="Path 78722" d="M2651.353,1229.819l.019,11.492-12.651-7.283v-11.494l12.632,7.285Zm.227,12.1a.256.256,0,0,0,.113-.032.213.213,0,0,0,.114-.193v-12.009a.207.207,0,0,0-.114-.189l-13.087-7.542a.218.218,0,0,0-.227,0,.251.251,0,0,0-.113.19l.019,12.008a.209.209,0,0,0,.114.195l13.067,7.54A.259.259,0,0,0,2651.58,1241.919Z" transform="translate(-2634.011 -1215.687)" fill="#02166f" fill-rule="evenodd"/>
      <path id="Path_78723" data-name="Path 78723" d="M2652.549,1213.589l-10.8,6.237.813.465,9.985-5.773Z" transform="translate(-2637.268 -1213.369)" fill="#fff" fill-rule="evenodd"/>
      <path id="Path_78724" data-name="Path 78724" d="M2652.253,1214.308l-9.777,5.639-.359-.206,10.136-5.847v.414Zm-9.777,6.122a.279.279,0,0,0,.114-.03l9.985-5.772a.212.212,0,0,0,.114-.2v-.928a.208.208,0,0,0-.114-.187.18.18,0,0,0-.208,0l-10.817,6.234a.219.219,0,0,0,0,.384l.813.466A.273.273,0,0,0,2642.476,1220.431Z" transform="translate(-2637.181 -1213.284)" fill="#02166f" fill-rule="evenodd"/>
      <path id="Path_78725" data-name="Path 78725" d="M2635.894,1221.6l.813-.465-13.086-7.547v.928Z" transform="translate(-2608.34 -1213.369)" fill="#fff" fill-rule="evenodd"/>
      <path id="Path_78726" data-name="Path 78726" d="M2636.166,1221.052l-.378.209-12.046-6.952v-.414l12.425,7.157Zm-.378.684a.235.235,0,0,0,.113-.032l.814-.463a.217.217,0,0,0,0-.382l-13.086-7.541a.18.18,0,0,0-.209,0,.207.207,0,0,0-.113.187v.928a.211.211,0,0,0,.113.2l12.274,7.075A.133.133,0,0,0,2635.787,1221.736Z" transform="translate(-2608.234 -1213.284)" fill="#02166f" fill-rule="evenodd"/>
      <path id="Path_78727" data-name="Path 78727" d="M2637.115,1227.736l9.985-5.766-12.273-7.057-10.08,5.684Z" transform="translate(-2619.547 -1213.737)" fill="#fff" fill-rule="evenodd"/>
      <path id="Path_78728" data-name="Path 78728" d="M2646.578,1221.884l-9.549,5.508-11.914-6.876,9.625-5.438,11.838,6.806Zm-9.549,5.99a.286.286,0,0,0,.113-.03l9.985-5.774a.2.2,0,0,0,.113-.187.21.21,0,0,0-.113-.195l-12.291-7.057a.2.2,0,0,0-.209,0l-10.08,5.682a.22.22,0,0,0-.114.2.209.209,0,0,0,.114.194l12.367,7.141A.289.289,0,0,0,2637.029,1227.874Z" transform="translate(-2619.46 -1213.651)" fill="#02166f" fill-rule="evenodd"/>
      <path id="Path_78729" data-name="Path 78729" d="M2640.074,1222.644l2.572-1.493v-1.919l-2.572,1.486Z" transform="translate(-2626.155 -1214.939)" fill="#fff" fill-rule="evenodd"/>
      <path id="Path_78730" data-name="Path 78730" d="M2642.331,1220.939l-2.137,1.231v-1.407l2.137-1.235v1.411Zm-2.345,1.838a.143.143,0,0,0,.094-.03l2.591-1.487a.251.251,0,0,0,.114-.195v-1.918a.259.259,0,0,0-.114-.2.238.238,0,0,0-.227,0l-2.572,1.492a.208.208,0,0,0-.113.189v1.925a.209.209,0,0,0,.113.189A.2.2,0,0,0,2639.986,1222.777Z" transform="translate(-2626.067 -1214.853)" fill="#02166f" fill-rule="evenodd"/>
      <path id="Path_78731" data-name="Path 78731" d="M2642.57,1220.157l2.572-1.486-2.458-1.457-2.61,1.505Z" transform="translate(-2628.651 -1214.378)" fill="#fff" fill-rule="evenodd"/>
      <path id="Path_78732" data-name="Path 78732" d="M2644.62,1218.586l-2.137,1.229-2.061-1.181,2.156-1.248,2.043,1.2Zm-2.137,1.711a.185.185,0,0,0,.094-.03l2.591-1.494a.235.235,0,0,0,.114-.186.259.259,0,0,0-.114-.195l-2.458-1.452a.233.233,0,0,0-.228-.006l-2.61,1.505a.216.216,0,0,0-.113.195.209.209,0,0,0,.113.195l2.5,1.437A.259.259,0,0,0,2642.482,1220.3Z" transform="translate(-2628.564 -1214.292)" fill="#02166f" fill-rule="evenodd"/>
      <path id="Path_78733" data-name="Path 78733" d="M2646.133,1220.737l-2.5-1.437v1.925l2.5,1.438Z" transform="translate(-2632.214 -1214.958)" fill-rule="evenodd" fill="url(#linear-gradient-2)"/>
      <path id="Path_78734" data-name="Path 78734" d="M2645.846,1220.783v1.407l-2.061-1.18V1219.6l2.061,1.179Zm.227,2.014a.144.144,0,0,0,.094-.03.209.209,0,0,0,.113-.189v-1.925a.207.207,0,0,0-.113-.189l-2.5-1.436a.179.179,0,0,0-.208,0,.2.2,0,0,0-.113.188v1.925a.209.209,0,0,0,.113.19l2.5,1.437A.2.2,0,0,0,2646.073,1222.8Z" transform="translate(-2632.154 -1214.873)" fill="#02166f" fill-rule="evenodd"/>
      <path id="Path_78735" data-name="Path 78735" d="M2650.209,1234.076l-7.148-4.128.019,7.986,7.148,4.135Z" transform="translate(-2635.894 -1217.92)" fill="#31cfff" fill-rule="evenodd"/>
      <path id="Path_78736" data-name="Path 78736" d="M2649.914,1234.123v7.473l-6.713-3.872v-7.478l6.713,3.877Zm.227,8.081a.257.257,0,0,0,.114-.032.25.25,0,0,0,.113-.187l-.018-7.994a.21.21,0,0,0-.113-.189l-7.15-4.134a.25.25,0,0,0-.227,0,.261.261,0,0,0-.113.195l.018,7.986a.215.215,0,0,0,.113.2l7.149,4.128A.249.249,0,0,0,2650.141,1242.2Z" transform="translate(-2635.806 -1217.834)" fill="#02166f" fill-rule="evenodd"/>
      <path id="Path_78737" data-name="Path 78737" d="M2651,1233.765a.212.212,0,0,0,.189-.108.207.207,0,0,0-.076-.306l-2.118-1.224a.227.227,0,0,0-.3.082.23.23,0,0,0,.094.308l2.118,1.224A.138.138,0,0,0,2651,1233.765Z" transform="translate(-2640.938 -1218.519)" fill="#02166f" fill-rule="evenodd"/>
      <path id="Path_78738" data-name="Path 78738" d="M2651,1241.493a.215.215,0,0,0,.189-.106.209.209,0,0,0-.076-.308l-2.118-1.216a.216.216,0,0,0-.3.081.224.224,0,0,0,.094.3l2.118,1.223A.147.147,0,0,0,2651,1241.493Z" transform="translate(-2640.938 -1220.669)" fill="#02166f" fill-rule="evenodd"/>
      <path id="Path_78739" data-name="Path 78739" d="M2651,1239.562a.208.208,0,0,0,.189-.113.2.2,0,0,0-.076-.3l-2.118-1.224a.222.222,0,0,0-.3.082.228.228,0,0,0,.094.306l2.118,1.218A.113.113,0,0,0,2651,1239.562Z" transform="translate(-2640.938 -1220.13)" fill="#02166f" fill-rule="evenodd"/>
      <path id="Path_78740" data-name="Path 78740" d="M2651,1237.631a.221.221,0,0,0,.189-.111.2.2,0,0,0-.076-.3l-2.118-1.226a.219.219,0,1,0-.208.384l2.118,1.223A.14.14,0,0,0,2651,1237.631Z" transform="translate(-2640.938 -1219.593)" fill="#02166f" fill-rule="evenodd"/>
      <path id="Path_78741" data-name="Path 78741" d="M2651,1235.7a.219.219,0,0,0,.189-.113.21.21,0,0,0-.076-.309l-2.118-1.215a.218.218,0,1,0-.208.383l2.118,1.223A.145.145,0,0,0,2651,1235.7Z" transform="translate(-2640.938 -1219.057)" fill="#02166f" fill-rule="evenodd"/>
      <path id="Path_78742" data-name="Path 78742" d="M2646.271,1236.542a.224.224,0,0,0,.113-.416l-2.27-1.3a.2.2,0,0,0-.284.08.208.208,0,0,0,.076.307l2.25,1.3A.243.243,0,0,0,2646.271,1236.542Z" transform="translate(-2632.692 -1219.268)" fill="#02166f" fill-rule="evenodd"/>
      <path id="Path_78743" data-name="Path 78743" d="M2646.271,1244.275a.219.219,0,0,0,.188-.112.209.209,0,0,0-.075-.308l-2.27-1.3a.205.205,0,0,0-.284.082.209.209,0,0,0,.076.308l2.25,1.3A.274.274,0,0,0,2646.271,1244.275Z" transform="translate(-2632.692 -1221.418)" fill="#02166f" fill-rule="evenodd"/>
      <path id="Path_78744" data-name="Path 78744" d="M2646.271,1238.477a.218.218,0,0,0,.188-.112.2.2,0,0,0-.075-.3l-2.27-1.305a.2.2,0,0,0-.284.082.2.2,0,0,0,.076.3l2.25,1.305A.257.257,0,0,0,2646.271,1238.477Z" transform="translate(-2632.692 -1219.806)" fill="#02166f" fill-rule="evenodd"/>
      <path id="Path_78745" data-name="Path 78745" d="M2646.271,1242.339a.213.213,0,0,0,.188-.107.21.21,0,0,0-.075-.309l-2.27-1.3a.2.2,0,0,0-.284.08.209.209,0,0,0,.076.309l2.25,1.3A.252.252,0,0,0,2646.271,1242.339Z" transform="translate(-2632.692 -1220.88)" fill="#02166f" fill-rule="evenodd"/>
      <path id="Path_78746" data-name="Path 78746" d="M2646.271,1240.409a.207.207,0,0,0,.188-.114.2.2,0,0,0-.075-.3l-2.27-1.305a.217.217,0,0,0-.208.382l2.25,1.305A.262.262,0,0,0,2646.271,1240.409Z" transform="translate(-2632.692 -1220.343)" fill="#02166f" fill-rule="evenodd"/>
      <path id="Path_78747" data-name="Path 78747" d="M2647.951,1240.93a.221.221,0,0,0,.227-.225v-7.98a.22.22,0,0,0-.227-.219.233.233,0,0,0-.227.219v7.98A.234.234,0,0,0,2647.951,1240.93Z" transform="translate(-2637.21 -1218.631)" fill="#02166f" fill-rule="evenodd"/>
      <path id="Path_78748" data-name="Path 78748" d="M2626.535,1233.24a.4.4,0,0,0-.189.328v1.519c0,.119.076.168.189.105,1.135-.652,4.709-2.723,5.843-3.381a.379.379,0,0,0,.189-.32v-1.524c0-.119-.076-.17-.189-.108Z" transform="translate(-2606.167 -1217.887)" fill-rule="evenodd" fill="url(#linear-gradient-2)"/>
      <path id="Path_78749" data-name="Path 78749" d="M2632.252,1230.049v1.356a.179.179,0,0,1-.075.125l-5.692,3.3v-1.348a.182.182,0,0,1,.075-.133l5.692-3.3Zm-5.9,5.308a.431.431,0,0,0,.208-.057l5.844-3.381a.65.65,0,0,0,.3-.515v-1.524a.337.337,0,0,0-.171-.314.354.354,0,0,0-.359.011l-5.844,3.389a.631.631,0,0,0-.3.515V1235a.337.337,0,0,0,.169.313A.246.246,0,0,0,2626.352,1235.357Z" transform="translate(-2606.079 -1217.802)" fill="#02166f" fill-rule="evenodd"/>
    </g>
    <g id="Group_20483" data-name="Group 20483" transform="translate(66.584 291.834)">
      <path id="Path_78671" data-name="Path 78671" d="M1205.632,1808.421l-2.805-1.293,3.153-1.816.614.356c.3.177.432.4.332.647l-.78,2.338Z" transform="translate(-1198.348 -1802.03)" fill="#fff" fill-rule="evenodd"/>
      <path id="Path_78672" data-name="Path 78672" d="M1205.6,1808.132l.315.141.73-2.134c.033-.149-.05-.287-.265-.414l-.514-.3-2.738,1.573,2.472,1.136Zm.432.6a.159.159,0,0,1-.083-.017l-.5-.232h0l-2.822-1.293a.226.226,0,0,1-.116-.169.2.2,0,0,1,.1-.177l3.152-1.817a.2.2,0,0,1,.2,0l.614.356a.734.734,0,0,1,.432.88l-.8,2.338a.168.168,0,0,1-.116.116A.158.158,0,0,1,1206.031,1808.734Z" transform="translate(-1198.232 -1801.916)" fill="#02166f" fill-rule="evenodd"/>
      <path id="Path_78673" data-name="Path 78673" d="M1229.2,1816.464l-2.423-1.4c-.614-.2-1.361,1.125-.9,1.537l2.439,1.407c-.282-.239-.1-.741.034-1a1.381,1.381,0,0,1,.415-.452A.521.521,0,0,1,1229.2,1816.464Z" transform="translate(-1206.746 -1805.596)" fill="#fff" fill-rule="evenodd"/>
      <path id="Path_78674" data-name="Path 78674" d="M1226.532,1815.108c-.149,0-.382.187-.547.476-.183.312-.216.635-.083.749l1.958,1.135a1.6,1.6,0,0,1,.216-.676,1.424,1.424,0,0,1,.481-.519v-.007l-1.991-1.155-.034,0Zm1.676,2.975a.2.2,0,0,1-.1-.027l-2.439-1.405a1.017,1.017,0,0,1-.034-1.261c.249-.415.664-.77,1.079-.631l2.473,1.424a.191.191,0,0,1,.083.249.189.189,0,0,1-.232.1.3.3,0,0,0-.266.066,1.153,1.153,0,0,0-.365.383c-.116.212-.232.611-.066.755a.194.194,0,0,1-.133.342Z" transform="translate(-1206.637 -1805.482)" fill="#02166f" fill-rule="evenodd"/>
      <path id="Path_78675" data-name="Path 78675" d="M1230.12,1818.751a1.421,1.421,0,0,0,.647-1.127c0-.415-.282-.583-.647-.375a1.417,1.417,0,0,0-.646,1.127C1229.473,1818.79,1229.755,1818.958,1230.12,1818.751Z" transform="translate(-1208.117 -1806.374)" fill-rule="evenodd" fill="url(#linear-gradient-2)"/>
      <path id="Path_78676" data-name="Path 78676" d="M1230.3,1817.243a.371.371,0,0,0-.2.063,1.237,1.237,0,0,0-.548.957.313.313,0,0,0,.083.252.292.292,0,0,0,.265-.046h0a1.24,1.24,0,0,0,.548-.957.313.313,0,0,0-.084-.253.137.137,0,0,0-.066-.016Zm-.6,1.678a.566.566,0,0,1-.265-.068.646.646,0,0,1-.282-.59,1.645,1.645,0,0,1,.746-1.3.671.671,0,0,1,.664-.046.65.65,0,0,1,.282.591,1.644,1.644,0,0,1-.747,1.3h0A.817.817,0,0,1,1229.706,1818.92Z" transform="translate(-1208.002 -1806.261)" fill="#02166f" fill-rule="evenodd"/>
      <path id="Path_78677" data-name="Path 78677" d="M1224.349,1815.646q2.19-3.5,4.38-6.989a.488.488,0,0,0,.05-.473.8.8,0,0,0-.4-.413l-1.543-.893-7.086,6.12Z" transform="translate(-1204.553 -1802.604)" fill-rule="evenodd" fill="url(#linear-gradient)"/>
      <path id="Path_78678" data-name="Path 78678" d="M1219.977,1812.855l4.2,2.416,4.281-6.831a.282.282,0,0,0,.034-.3.646.646,0,0,0-.315-.313l-1.427-.825-6.77,5.854Zm4.264,2.874a.225.225,0,0,1-.1-.027l-4.6-2.647a.183.183,0,0,1-.083-.151.166.166,0,0,1,.066-.166l7.069-6.121a.206.206,0,0,1,.232-.021l1.543.894a.991.991,0,0,1,.482.511.7.7,0,0,1-.066.647l-4.381,6.99A.215.215,0,0,1,1224.241,1815.729Z" transform="translate(-1204.446 -1802.491)" fill="#02166f" fill-rule="evenodd"/>
      <path id="Path_78679" data-name="Path 78679" d="M1221.123,1822.763c-.7-.188-1.46-.383-2.141-.639a6.247,6.247,0,0,1-.747-.362l-4.812-2.779-5.093-2.94-.548-.4c-1.278-.927-2.555-1.855-3.849-2.782l-4.016-3.661c-.73-.234-.348-2.067.946-1.619l8.23,3.79,5.427,2.851,2.058,1.188,1.327.789,2.938,1.747a4.794,4.794,0,0,1,1.294,1.3c1.328,1.457,1.227,1.663,1.227,2.825a.656.656,0,0,1-.365.5l-.2.114a1.827,1.827,0,0,1-1.045.207A4.374,4.374,0,0,1,1221.123,1822.763Z" transform="translate(-1197.146 -1802.836)" fill="#fff" fill-rule="evenodd"/>
      <path id="Path_78680" data-name="Path 78680" d="M1221.061,1822.463l.066.015a3.412,3.412,0,0,0,.531.111,1.714,1.714,0,0,0,.946-.185l.182-.111c.183-.12.249-.18.266-.354v-.205c.016-.941.016-1.166-1.162-2.464a1.972,1.972,0,0,1-.215-.271,3.655,3.655,0,0,0-1.046-1l-4.265-2.535-2.057-1.186-5.409-2.849-8.23-3.784a.731.731,0,0,0-.747.109.949.949,0,0,0-.265.853.332.332,0,0,0,.216.294.122.122,0,0,1,.066.041l4.016,3.661,4.381,3.167,9.89,5.71a5.972,5.972,0,0,0,.729.349,21.093,21.093,0,0,0,2.025.612l.083.02Zm.747.518c-.05,0-.116,0-.166,0a3.811,3.811,0,0,1-.614-.122l-.067-.013v0l-.082-.02c-.68-.186-1.411-.377-2.074-.627a6.381,6.381,0,0,1-.764-.37l-9.923-5.724-4.414-3.192-4-3.647a.735.735,0,0,1-.431-.569,1.3,1.3,0,0,1,.4-1.227,1.106,1.106,0,0,1,1.145-.179l8.247,3.8,5.426,2.856,3.4,1.98,2.937,1.748a3.711,3.711,0,0,1,1.145,1.1c.083.095.149.179.2.245,1.228,1.356,1.277,1.684,1.277,2.73v.227a.848.848,0,0,1-.464.662l-.2.12A1.983,1.983,0,0,1,1221.808,1822.98Z" transform="translate(-1197.034 -1802.724)" fill="#02166f" fill-rule="evenodd"/>
      <path id="Path_78681" data-name="Path 78681" d="M1221.125,1823.124c-.7-.187-1.46-.383-2.14-.638a6.231,6.231,0,0,1-.747-.362l-4.812-2.779-5.093-2.94-.548-.4c-1.278-.927-2.556-1.855-3.849-2.782l-4.016-3.661c-.366-.116-.448-.633-.282-1.065.846,1.178,4.944,4.517,9.06,7.107,5.907,3.714,12.461,7.729,14.32,6.689a.883.883,0,0,0,.348-.353v.5a.656.656,0,0,1-.365.5l-.2.114a1.829,1.829,0,0,1-1.045.206A4.372,4.372,0,0,1,1221.125,1823.124Z" transform="translate(-1197.148 -1803.197)" fill-rule="evenodd" fill="url(#linear-gradient-2)"/>
      <path id="Path_78682" data-name="Path 78682" d="M1221.059,1822.824l.067.014a3.425,3.425,0,0,0,.531.112,1.713,1.713,0,0,0,.946-.186l.182-.111c.182-.116.249-.176.265-.341l-.05.03c-1.908,1.072-7.964-2.552-14.519-6.687a52.429,52.429,0,0,1-8.844-6.825.669.669,0,0,0,.049.265.313.313,0,0,0,.183.168.123.123,0,0,1,.066.041l4.016,3.661,4.381,3.167,9.89,5.71a5.893,5.893,0,0,0,.729.348,21.064,21.064,0,0,0,2.025.612l.083.02Zm.747.517-.166,0a3.854,3.854,0,0,1-.614-.122l-.067-.013v0l-.082-.02c-.68-.186-1.411-.377-2.074-.625a6.72,6.72,0,0,1-.764-.372l-9.922-5.724-4.414-3.192-4-3.647a.718.718,0,0,1-.365-.355,1.185,1.185,0,0,1,0-.953.188.188,0,0,1,.332-.043c.862,1.175,4.977,4.514,9.01,7.056,4.6,2.889,12.279,7.721,14.138,6.684a.759.759,0,0,0,.249-.253l.034-.045a.194.194,0,0,1,.215-.071.187.187,0,0,1,.132.185v.5a.842.842,0,0,1-.464.661l-.2.122A1.985,1.985,0,0,1,1221.806,1823.341Z" transform="translate(-1197.032 -1803.085)" fill="#02166f" fill-rule="evenodd"/>
      <path id="Path_78683" data-name="Path 78683" d="M1232.152,1826.576c-.929.536-1.659.04-2.522-.4l.381.028c1.161.09,2.705-.86,2.406-1.49C1232.932,1825.444,1233.263,1825.935,1232.152,1826.576Z" transform="translate(-1208.175 -1809.143)" fill-rule="evenodd" fill="url(#linear-gradient-2)"/>
      <path id="Path_78684" data-name="Path 78684" d="M1232.034,1826.463h0Zm-1.676-.191a1.552,1.552,0,0,0,1.576.022h0c.4-.221.6-.424.647-.624a.794.794,0,0,0-.15-.536c-.016.03-.05.062-.067.094a3.1,3.1,0,0,1-2.008,1.044Zm.863.621a3.436,3.436,0,0,1-1.527-.518l-.282-.139a.205.205,0,0,1-.1-.226.216.216,0,0,1,.216-.143l.365.029a2.8,2.8,0,0,0,2.158-.894.377.377,0,0,0,.083-.323.187.187,0,0,1,.067-.251.2.2,0,0,1,.265.058c.3.432.581.838.481,1.267-.066.316-.315.594-.813.877h0A1.785,1.785,0,0,1,1231.222,1826.892Z" transform="translate(-1208.057 -1809.029)" fill="#02166f" fill-rule="evenodd"/>
      <path id="Path_78685" data-name="Path 78685" d="M1226.217,1824.595l-.067-.042a.2.2,0,0,0-.083-.026v.331a.431.431,0,0,0,.182.332l.083.041a.14.14,0,0,0,.067.025.1.1,0,0,0,.016-.067v-.263A.406.406,0,0,0,1226.217,1824.595Z" transform="translate(-1206.869 -1809.075)" fill="#bdedf8" fill-rule="evenodd"/>
      <path id="Path_78686" data-name="Path 78686" d="M1226.283,1825.34h-.017a.373.373,0,0,1-.149-.05l-.066-.042a.627.627,0,0,1-.3-.5v-.264a.344.344,0,0,1,.017-.135.2.2,0,0,1,.215-.126.386.386,0,0,1,.149.05l.066.041a.627.627,0,0,1,.3.5v.264a.376.376,0,0,1-.033.134A.183.183,0,0,1,1226.283,1825.34Z" transform="translate(-1206.753 -1808.963)" fill="#31cfff" fill-rule="evenodd"/>
      <path id="Path_78687" data-name="Path 78687" d="M1224.32,1823.5c-.033-.013-.049-.026-.082-.039a.122.122,0,0,0-.067-.025.09.09,0,0,0-.016.066v.262a.408.408,0,0,0,.2.333c.017.013.051.029.067.04a.186.186,0,0,0,.082.027v-.329A.437.437,0,0,0,1224.32,1823.5Z" transform="translate(-1206.167 -1808.673)" fill="#bdedf8" fill-rule="evenodd"/>
      <path id="Path_78688" data-name="Path 78688" d="M1224.387,1824.241h-.033a.37.37,0,0,1-.149-.051l-.067-.041a.629.629,0,0,1-.3-.5v-.262a.364.364,0,0,1,.033-.136.189.189,0,0,1,.2-.126.348.348,0,0,1,.149.053l-.016.2v0l.083-.161a.635.635,0,0,1,.3.5v.261a.364.364,0,0,1-.016.135A.219.219,0,0,1,1224.387,1824.241Z" transform="translate(-1206.052 -1808.559)" fill="#31cfff" fill-rule="evenodd"/>
      <path id="Path_78689" data-name="Path 78689" d="M1222.417,1822.4c-.016-.013-.05-.027-.067-.04a.211.211,0,0,0-.084-.025v.329a.437.437,0,0,0,.183.334.2.2,0,0,1,.066.041.382.382,0,0,0,.084.025c0-.018.017-.042.017-.068v-.262A.456.456,0,0,0,1222.417,1822.4Z" transform="translate(-1205.475 -1808.271)" fill="#bdedf8" fill-rule="evenodd"/>
      <path id="Path_78690" data-name="Path 78690" d="M1222.485,1823.143h-.017a.377.377,0,0,1-.149-.05l-.05-.027a.616.616,0,0,1-.315-.518v-.262a.346.346,0,0,1,.017-.134.193.193,0,0,1,.2-.126.414.414,0,0,1,.166.05l.066.038v0a.617.617,0,0,1,.282.5v.262a.351.351,0,0,1-.016.134A.2.2,0,0,1,1222.485,1823.143Z" transform="translate(-1205.36 -1808.157)" fill="#31cfff" fill-rule="evenodd"/>
      <path id="Path_78691" data-name="Path 78691" d="M1220.5,1821.3a.224.224,0,0,0-.066-.04.127.127,0,0,0-.066-.025.087.087,0,0,0-.017.066v.262a.409.409,0,0,0,.2.334.24.24,0,0,0,.067.04.141.141,0,0,0,.066.027.1.1,0,0,0,.016-.068v-.262A.406.406,0,0,0,1220.5,1821.3Z" transform="translate(-1204.774 -1807.868)" fill="#bdedf8" fill-rule="evenodd"/>
      <path id="Path_78692" data-name="Path 78692" d="M1220.572,1822.046s0,0-.016,0a.362.362,0,0,1-.15-.051l-.067-.038a.638.638,0,0,1-.3-.5v-.262a.381.381,0,0,1,.033-.139.2.2,0,0,1,.2-.123.424.424,0,0,1,.149.051l.067.042a.627.627,0,0,1,.3.5v.262a.351.351,0,0,1-.033.135A.184.184,0,0,1,1220.572,1822.046Z" transform="translate(-1204.659 -1807.754)" fill="#31cfff" fill-rule="evenodd"/>
      <path id="Path_78693" data-name="Path 78693" d="M1218.609,1820.2a.222.222,0,0,1-.066-.04.263.263,0,0,0-.083-.025c0,.018-.017.041-.017.066v.262a.456.456,0,0,0,.2.334c.017.013.05.026.067.04a.214.214,0,0,0,.083.027v-.33A.435.435,0,0,0,1218.609,1820.2Z" transform="translate(-1204.073 -1807.466)" fill="#bdedf8" fill-rule="evenodd"/>
      <path id="Path_78694" data-name="Path 78694" d="M1218.686,1820.946c-.017,0-.017,0-.017,0a.356.356,0,0,1-.165-.05l-.067-.041a.612.612,0,0,1-.282-.5v-.262a.337.337,0,0,1,.017-.134.194.194,0,0,1,.2-.129.431.431,0,0,1,.167.053l.067.038a.618.618,0,0,1,.282.5v.262a.359.359,0,0,1-.017.135A.2.2,0,0,1,1218.686,1820.946Z" transform="translate(-1203.967 -1807.351)" fill="#31cfff" fill-rule="evenodd"/>
      <path id="Path_78695" data-name="Path 78695" d="M1216.706,1819.1l-.066-.04a.208.208,0,0,0-.082-.027v.331a.436.436,0,0,0,.182.334l.083.039a.129.129,0,0,0,.066.025.087.087,0,0,0,.017-.066v-.262A.408.408,0,0,0,1216.706,1819.1Z" transform="translate(-1203.382 -1807.062)" fill="#bdedf8" fill-rule="evenodd"/>
      <path id="Path_78696" data-name="Path 78696" d="M1216.773,1819.849h-.016a.379.379,0,0,1-.15-.05l-.066-.042a.634.634,0,0,1-.3-.5v-.262a.365.365,0,0,1,.033-.136.178.178,0,0,1,.2-.126.359.359,0,0,1,.149.051l.067.041a.63.63,0,0,1,.3.5v.262a.359.359,0,0,1-.033.134A.182.182,0,0,1,1216.773,1819.849Z" transform="translate(-1203.266 -1806.95)" fill="#31cfff" fill-rule="evenodd"/>
      <path id="Path_78697" data-name="Path 78697" d="M1214.862,1818.037c-.033-.013-.049-.027-.083-.04a.167.167,0,0,0-.067-.026c0,.02-.016.042-.016.068v.262a.454.454,0,0,0,.2.334c.016.013.049.026.066.04a.2.2,0,0,0,.083.025v-.328A.434.434,0,0,0,1214.862,1818.037Z" transform="translate(-1202.699 -1806.671)" fill="#bdedf8" fill-rule="evenodd"/>
      <path id="Path_78698" data-name="Path 78698" d="M1214.939,1818.782h-.016a.5.5,0,0,1-.166-.049l-.066-.041a.617.617,0,0,1-.283-.5v-.262a.364.364,0,0,1,.016-.134.2.2,0,0,1,.2-.128.361.361,0,0,1,.15.052l.082.039h0a.615.615,0,0,1,.282.5v.262a.354.354,0,0,1-.017.135A.2.2,0,0,1,1214.939,1818.782Z" transform="translate(-1202.594 -1806.559)" fill="#31cfff" fill-rule="evenodd"/>
      <path id="Path_78699" data-name="Path 78699" d="M1212.959,1816.94c-.016-.013-.05-.027-.066-.04a.182.182,0,0,0-.083-.026v.331a.433.433,0,0,0,.182.332c.034.015.05.029.083.042a.143.143,0,0,0,.066.025c0-.019.016-.042.016-.067v-.264A.407.407,0,0,0,1212.959,1816.94Z" transform="translate(-1202.008 -1806.269)" fill="#bdedf8" fill-rule="evenodd"/>
      <path id="Path_78700" data-name="Path 78700" d="M1213.027,1817.684l-.017,0a.382.382,0,0,1-.149-.05l-.082-.042a.651.651,0,0,1-.282-.5v-.264a.361.361,0,0,1,.033-.139.171.171,0,0,1,.182-.121.377.377,0,0,1,.166.053l.067.038h0a.629.629,0,0,1,.3.5v.264a.374.374,0,0,1-.034.136A.2.2,0,0,1,1213.027,1817.684Z" transform="translate(-1201.893 -1806.155)" fill="#31cfff" fill-rule="evenodd"/>
      <path id="Path_78701" data-name="Path 78701" d="M1214,1825.316l-2.439-1.407c-.6-.2-1.361,1.125-.879,1.538l2.422,1.405c-.2-.173-.15-.508-.083-.732a1.683,1.683,0,0,1,.265-.477C1213.449,1825.451,1213.732,1825.229,1214,1825.316Z" transform="translate(-1201.171 -1808.841)" fill="#fff" fill-rule="evenodd"/>
      <path id="Path_78702" data-name="Path 78702" d="M1211.309,1823.96c-.149,0-.383.188-.548.476-.183.312-.216.635-.084.75l1.975,1.134a1.466,1.466,0,0,1,.066-.375,2.161,2.161,0,0,1,.3-.539,1.284,1.284,0,0,1,.331-.287l-2.008-1.153a.115.115,0,0,0-.032-.005Zm1.676,2.974a.114.114,0,0,1-.083-.025l-2.44-1.407c-.332-.272-.332-.758-.034-1.257.232-.416.664-.771,1.079-.634l2.473,1.424a.2.2,0,0,1-.167.353c-.149-.046-.348.1-.5.266a1.383,1.383,0,0,0-.232.418c-.066.192-.083.428.034.522a.219.219,0,0,1,.034.261A.222.222,0,0,1,1212.985,1826.935Z" transform="translate(-1201.054 -1808.728)" fill="#02166f" fill-rule="evenodd"/>
      <path id="Path_78703" data-name="Path 78703" d="M1212.682,1822.377c-4.032.845-8.08,1.688-12.112,2.532a2.206,2.206,0,0,1-1.528-.2l-1.559-.9,10.6-4.087Z" transform="translate(-1196.388 -1807.316)" fill-rule="evenodd" fill="url(#linear-gradient)"/>
      <path id="Path_78704" data-name="Path 78704" d="M1197.823,1823.74l1.2.691a2.1,2.1,0,0,0,1.41.176l11.6-2.428-4.065-2.346-10.139,3.907Zm2.124,1.306a2.194,2.194,0,0,1-1.112-.278l-1.543-.9a.177.177,0,0,1-.1-.184.182.182,0,0,1,.116-.165l10.6-4.088a.186.186,0,0,1,.166.013l4.6,2.649a.187.187,0,0,1,.082.2.172.172,0,0,1-.15.16l-12.1,2.53A2.815,2.815,0,0,1,1199.948,1825.045Z" transform="translate(-1196.281 -1807.203)" fill="#02166f" fill-rule="evenodd"/>
      <path id="Path_78705" data-name="Path 78705" d="M1201.627,1811.049l-3.817.569a1.858,1.858,0,0,1-1.129-.2l-.614-.356,3.153-1.818Z" transform="translate(-1195.869 -1803.472)" fill="#fff" fill-rule="evenodd"/>
      <path id="Path_78706" data-name="Path 78706" d="M1196.335,1810.951l.332.188a1.6,1.6,0,0,0,1,.172l3.352-.5-1.925-1.445-2.754,1.583Zm1.095.763a1.915,1.915,0,0,1-.962-.239l-.614-.356a.193.193,0,0,1,0-.338l3.153-1.815a.191.191,0,0,1,.215.011l2.406,1.8a.19.19,0,0,1,.067.2.2.2,0,0,1-.149.146l-3.833.567A2.334,2.334,0,0,1,1197.43,1811.714Z" transform="translate(-1195.754 -1803.359)" fill="#02166f" fill-rule="evenodd"/>
      <path id="Path_78707" data-name="Path 78707" d="M1199.787,1805.043l-.862-4.605,1.344.77,3.136,5.667Z" transform="translate(-1196.917 -1800.242)" fill-rule="evenodd" fill="url(#linear-gradient-2)"/>
      <path id="Path_78708" data-name="Path 78708" d="M1199.862,1804.8l2.953,1.5-2.8-5.065-.913-.533.764,4.1Zm3.435,2.156a.15.15,0,0,1-.084-.02l-3.616-1.833a.176.176,0,0,1-.1-.138l-.863-4.606a.207.207,0,0,1,.066-.194.21.21,0,0,1,.216-.012l1.344.771a.382.382,0,0,1,.067.075l3.136,5.668a.194.194,0,0,1-.016.229A.238.238,0,0,1,1203.3,1806.957Z" transform="translate(-1196.808 -1800.129)" fill="#02166f" fill-rule="evenodd"/>
      <path id="Path_78709" data-name="Path 78709" d="M1230.155,1818.438a.2.2,0,0,1-.1-.026l-.381-.226a.2.2,0,0,1-.083-.265.2.2,0,0,1,.265-.072l.4.224a.18.18,0,0,1,.066.267A.186.186,0,0,1,1230.155,1818.438Z" transform="translate(-1208.152 -1806.616)" fill="#02166f" fill-rule="evenodd"/>
      <path id="Path_78710" data-name="Path 78710" d="M1215.055,1827.711a1.417,1.417,0,0,0,.647-1.126c0-.414-.282-.582-.647-.375a1.42,1.42,0,0,0-.647,1.127C1214.408,1827.75,1214.691,1827.918,1215.055,1827.711Z" transform="translate(-1202.594 -1809.659)" fill-rule="evenodd" fill="url(#linear-gradient-2)"/>
      <path id="Path_78711" data-name="Path 78711" d="M1215.238,1826.2a.378.378,0,0,0-.2.062,1.258,1.258,0,0,0-.564.958c0,.124.033.219.1.252a.289.289,0,0,0,.265-.047,1.256,1.256,0,0,0,.564-.957.314.314,0,0,0-.1-.252.145.145,0,0,0-.067-.016Zm-.6,1.679a.523.523,0,0,1-.266-.07.645.645,0,0,1-.282-.589,1.641,1.641,0,0,1,.747-1.3.662.662,0,0,1,.663-.045.681.681,0,0,1,.283.589,1.642,1.642,0,0,1-.747,1.3A.789.789,0,0,1,1214.641,1827.882Z" transform="translate(-1202.478 -1809.547)" fill="#02166f" fill-rule="evenodd"/>
      <path id="Path_78712" data-name="Path 78712" d="M1215.09,1827.4a.2.2,0,0,1-.1-.027l-.4-.224a.21.21,0,0,1-.067-.267.2.2,0,0,1,.266-.071l.4.226a.205.205,0,0,1,.067.265A.188.188,0,0,1,1215.09,1827.4Z" transform="translate(-1202.628 -1809.902)" fill="#02166f" fill-rule="evenodd"/>
    </g>
  </g>
</svg>
