<svg xmlns="http://www.w3.org/2000/svg" xmlns:xlink="http://www.w3.org/1999/xlink" width="50.628" height="56.815" viewBox="0 0 50.628 56.815">
  <defs>
    <linearGradient id="linear-gradient" x1="0.5" x2="0.5" y2="1" gradientUnits="objectBoundingBox">
      <stop offset="0" stop-color="#a6d7ff"/>
      <stop offset="1" stop-color="#ebf6ff"/>
    </linearGradient>
    <linearGradient id="linear-gradient-2" x1="0.5" x2="0.5" y2="1" gradientUnits="objectBoundingBox">
      <stop offset="0" stop-color="#ffbe68"/>
      <stop offset="1" stop-color="#fba562"/>
    </linearGradient>
  </defs>
  <g id="holiday-icon" transform="translate(0 0)">
    <path id="Path_78803" data-name="Path 78803" d="M811.927,1895.747a.373.373,0,0,0-.322,0l7.865-4.545a.534.534,0,0,1,.569.175l9.288,8.812a1.978,1.978,0,0,0,.406.31l-7.865,4.536a1.631,1.631,0,0,1-.4-.3l-9.023-8.562A2.459,2.459,0,0,0,811.927,1895.747Z" transform="translate(-798.853 -1868.76)" fill="#fff" fill-rule="evenodd"/>
    <path id="Path_78804" data-name="Path 78804" d="M812.712,1895.818c.034.039.074.06.1.1l9.1,8.627c.033.037.073.074.107.112l7.073-4.089-9.207-8.736c-.087-.076-.127-.087-.14-.087l-7.03,4.075Zm9.293,9.792a.433.433,0,0,1-.22-.063,2.193,2.193,0,0,1-.488-.36l-9.109-8.65a1.344,1.344,0,0,0-.3-.246v-.01l.042-.076v-.014l-.053.09a.4.4,0,0,1-.546-.2.453.453,0,0,1,.189-.583l7.866-4.536a.909.909,0,0,1,1.092.224l9.3,8.821a1.323,1.323,0,0,0,.312.236.459.459,0,0,1,.22.386.45.45,0,0,1-.21.386l-7.866,4.532A.46.46,0,0,1,822.005,1905.61Z" transform="translate(-798.991 -1868.891)" fill="#02166f" fill-rule="evenodd"/>
    <path id="Path_78805" data-name="Path 78805" d="M818.783,1902.242l7.865-4.548q9.38,5.4,18.742,10.826l-7.868,4.532Q828.146,1907.648,818.783,1902.242Z" transform="translate(-795.769 -1865.956)" fill-rule="evenodd" fill="url(#linear-gradient)"/>
    <path id="Path_78806" data-name="Path 78806" d="M819.8,1902.375l17.854,10.3,6.984-4.023-17.859-10.317-6.98,4.039Zm17.854,11.259a.527.527,0,0,1-.223-.063L818.7,1902.745a.425.425,0,0,1-.226-.37.437.437,0,0,1,.226-.386l7.866-4.548a.47.47,0,0,1,.445,0l18.741,10.822a.439.439,0,0,1,.21.391.462.462,0,0,1-.21.381l-7.866,4.537A.535.535,0,0,1,837.656,1913.634Z" transform="translate(-795.903 -1866.089)" fill="#02166f" fill-rule="evenodd"/>
    <path id="Path_78807" data-name="Path 78807" d="M831.89,1909.8l7.868-4.532a1.194,1.194,0,0,1,.558.966v.944l-7.866,4.536v-.933A1.209,1.209,0,0,0,831.89,1909.8Z" transform="translate(-790.137 -1862.702)" fill="#31cfff" fill-rule="evenodd"/>
    <path id="Path_78808" data-name="Path 78808" d="M832.741,1910.033a1.635,1.635,0,0,1,.289.857v.2l6.981-4.037v-.685a.83.83,0,0,0-.171-.435l-7.1,4.1Zm-.162,2.247a.382.382,0,0,1-.208-.049.451.451,0,0,1-.226-.385v-.933a.788.788,0,0,0-.359-.606.411.411,0,0,1-.2-.375.435.435,0,0,1,.21-.372l7.866-4.551a.455.455,0,0,1,.46.014,1.648,1.648,0,0,1,.771,1.331v.955a.439.439,0,0,1-.223.375l-7.866,4.547A.429.429,0,0,1,832.58,1912.28Z" transform="translate(-790.267 -1862.836)" fill="#02166f" fill-rule="evenodd"/>
    <path id="Path_78809" data-name="Path 78809" d="M811.4,1895.281l.15-.662c.075-.333.4-.371.719-.06l9.285,8.81a3.215,3.215,0,0,0,.409.312l3.817,2.2L827.7,1907l13,7.493a1.255,1.255,0,0,1,.559.981v.934l-19.394-11.2Q816.64,1900.231,811.4,1895.281Z" transform="translate(-798.944 -1867.395)" fill="#bdedf8" fill-rule="evenodd"/>
    <path id="Path_78810" data-name="Path 78810" d="M812.012,1895.266l10.29,9.753,18.651,10.762v-.176a.771.771,0,0,0-.347-.595l-18.736-10.826a2.178,2.178,0,0,1-.488-.36L812.1,1895c-.011,0-.011-.011-.027-.011l-.06.273Zm29.375,21.706a.378.378,0,0,1-.209-.049l-19.4-11.207-10.548-9.994a.414.414,0,0,1-.127-.408l.138-.659a.768.768,0,0,1,.509-.585.938.938,0,0,1,.943.3l9.3,8.811a1.372,1.372,0,0,0,.32.248l18.741,10.824a1.653,1.653,0,0,1,.783,1.353v.934a.462.462,0,0,1-.224.384A.425.425,0,0,1,841.387,1916.972Z" transform="translate(-799.074 -1867.529)" fill="#02166f" fill-rule="evenodd"/>
    <path id="Path_78811" data-name="Path 78811" d="M814.133,1899.292l6.5,3.753L837,1912.5v.583a.92.92,0,0,1-1.506.869l-19.871-11.485a3.316,3.316,0,0,1-1.491-2.595Z" transform="translate(-797.767 -1865.269)" fill-rule="evenodd" fill="url(#linear-gradient-2)"/>
    <path id="Path_78812" data-name="Path 78812" d="M814.716,1900.2a2.878,2.878,0,0,0,1.267,2.038l19.87,11.47a.671.671,0,0,0,.623.1c.144-.075.22-.3.22-.585v-.336l-21.98-12.687Zm21.584,14.526a1.768,1.768,0,0,1-.881-.262l-19.872-11.469a3.742,3.742,0,0,1-1.727-2.982v-.585a.457.457,0,0,1,.224-.386.475.475,0,0,1,.435,0l22.875,13.212a.433.433,0,0,1,.226.386v.583a1.523,1.523,0,0,1-.66,1.353A1.288,1.288,0,0,1,836.3,1914.722Z" transform="translate(-797.901 -1865.401)" fill="#02166f" fill-rule="evenodd"/>
    <path id="Path_78813" data-name="Path 78813" d="M821.45,1904.543l-9.1-5.254v-3.395Z" transform="translate(-798.533 -1866.73)" fill="#fff" fill-rule="evenodd"/>
    <path id="Path_78814" data-name="Path 78814" d="M812.919,1899.156l5.667,3.27-5.667-5.372v2.1Zm8.665,5.951a.331.331,0,0,1-.214-.06l-9.11-5.258a.422.422,0,0,1-.22-.37v-3.394a.408.408,0,0,1,.273-.4.419.419,0,0,1,.472.085l9.109,8.639a.445.445,0,0,1,.05.585A.463.463,0,0,1,821.585,1905.108Z" transform="translate(-798.667 -1866.86)" fill="#02166f" fill-rule="evenodd"/>
    <path id="Path_78815" data-name="Path 78815" d="M815.194,1877.286a26.75,26.75,0,0,0-5.233,2.289c-9.293,5.364-9.293,14.066,0,19.433a24.815,24.815,0,0,0,3.48,1.663l13.356-24.055Z" transform="translate(-802.555 -1875.014)" fill="#bdedf8" fill-rule="evenodd"/>
    <path id="Path_78816" data-name="Path 78816" d="M815.41,1877.852a26.99,26.99,0,0,0-5.094,2.225c-4.349,2.522-6.761,5.84-6.761,9.346s2.4,6.821,6.761,9.331a25.006,25.006,0,0,0,3.057,1.491l12.787-23.016-10.75.622Zm-1.839,23.388a.772.772,0,0,1-.161-.026,26.544,26.544,0,0,1-3.539-1.69c-4.638-2.685-7.186-6.264-7.186-10.1s2.548-7.432,7.2-10.107a27.218,27.218,0,0,1,5.307-2.322.387.387,0,0,1,.109-.023l11.608-.659a.473.473,0,0,1,.4.21.45.45,0,0,1,.016.449l-13.361,24.045A.418.418,0,0,1,813.572,1901.241Z" transform="translate(-802.686 -1875.144)" fill="#1a87c7" fill-rule="evenodd"/>
    <path id="Path_78817" data-name="Path 78817" d="M818.749,1886.855v27.015a.755.755,0,0,0,.522.536,2.021,2.021,0,0,0,1.716-.1.713.713,0,0,0,.336-.435v-27.015a.6.6,0,0,1-.214.334,1.894,1.894,0,0,1-2.086.063A.637.637,0,0,1,818.749,1886.855Z" transform="translate(-795.784 -1870.614)" fill="#31cfff" fill-rule="evenodd"/>
    <path id="Path_78818" data-name="Path 78818" d="M819.319,1913.992c.027,0,.074.059.262.149a1.611,1.611,0,0,0,1.315-.075c.113-.074.113-.113.124-.15l-.011-25.958a2.484,2.484,0,0,1-1.69,0v26.034Zm.842,1.129a2.585,2.585,0,0,1-.917-.174,1.22,1.22,0,0,1-.795-.845l-.016-27.115a.447.447,0,0,1,.4-.434.424.424,0,0,1,.468.347c.014.023.014.06.127.136a1.483,1.483,0,0,0,1.528-.049c.049-.048.049-.048.06-.087a.422.422,0,0,1,.471-.347.446.446,0,0,1,.4.434V1914a1.127,1.127,0,0,1-.525.8A2.337,2.337,0,0,1,820.161,1915.121Z" transform="translate(-795.919 -1870.746)" fill="#02166f" fill-rule="evenodd"/>
    <path id="Path_78819" data-name="Path 78819" d="M820.953,1886.505a1.979,1.979,0,0,0-1.829,0c-.51.286-.51.758,0,1.057a2.057,2.057,0,0,0,1.829,0A.561.561,0,0,0,820.953,1886.505Z" transform="translate(-795.787 -1870.86)" fill="#bdedf8" fill-rule="evenodd"/>
    <path id="Path_78820" data-name="Path 78820" d="M820.161,1886.858a1.557,1.557,0,0,0-.692.15c-.123.075-.15.137-.15.148s.027.076.15.151a1.605,1.605,0,0,0,1.388,0c.129-.074.163-.138.163-.151s-.034-.073-.163-.148a1.527,1.527,0,0,0-.7-.15Zm0,1.491a2.263,2.263,0,0,1-1.127-.285,1.048,1.048,0,0,1-.6-.908,1.064,1.064,0,0,1,.6-.9,2.452,2.452,0,0,1,2.259,0,.983.983,0,0,1,.014,1.813A2.32,2.32,0,0,1,820.161,1888.35Z" transform="translate(-795.919 -1870.992)" fill="#1a87c7" fill-rule="evenodd"/>
    <path id="Path_78821" data-name="Path 78821" d="M843.639,1879.9c-9.3-5.372-24.369-5.383-33.678,0-9.293,5.364-9.293,14.066,0,19.433s24.382,5.367,33.678,0S852.932,1885.262,843.639,1879.9Z" transform="translate(-802.555 -1875.336)" fill="#31cfff" fill-rule="evenodd"/>
    <path id="Path_78822" data-name="Path 78822" d="M826.928,1876.436c-6.012,0-12.027,1.314-16.612,3.962-4.349,2.522-6.761,5.841-6.761,9.346s2.4,6.821,6.761,9.332c9.159,5.291,24.071,5.291,33.241,0,4.348-2.511,6.75-5.829,6.75-9.332s-2.4-6.824-6.761-9.346c-4.575-2.648-10.6-3.962-16.618-3.962Zm0,27.487c-6.171,0-12.348-1.368-17.057-4.076-4.638-2.685-7.186-6.263-7.186-10.1s2.548-7.432,7.2-10.107c9.393-5.427,24.7-5.427,34.107,0h0c4.638,2.687,7.2,6.268,7.2,10.107s-2.558,7.417-7.2,10.1C839.3,1902.554,833.106,1903.922,826.928,1903.922Z" transform="translate(-802.686 -1875.465)" fill="#02166f" fill-rule="evenodd"/>
    <path id="Path_78823" data-name="Path 78823" d="M803.661,1900.894a.387.387,0,0,0-.323,0l7.866-4.535a.514.514,0,0,1,.571.17l9.286,8.812a2.4,2.4,0,0,0,.407.31l-7.866,4.538a1.958,1.958,0,0,1-.409-.313l-9.012-8.547A2.592,2.592,0,0,0,803.661,1900.894Z" transform="translate(-802.406 -1866.546)" fill="#fff" fill-rule="evenodd"/>
    <path id="Path_78824" data-name="Path 78824" d="M804.446,1900.973a1.215,1.215,0,0,1,.1.085l9.1,8.64a.878.878,0,0,0,.109.1l7.072-4.081-9.209-8.734c-.084-.086-.123-.1-.137-.1l-7.031,4.086Zm9.293,9.781a.486.486,0,0,1-.225-.049,3.4,3.4,0,0,1-.483-.375l-9.094-8.638a1.437,1.437,0,0,0-.31-.259l.036-.086h0l-.036.086a.414.414,0,0,1-.559-.2.446.446,0,0,1,.183-.585l7.866-4.548a.925.925,0,0,1,1.094.237l9.3,8.81a1.512,1.512,0,0,0,.307.246.435.435,0,0,1,.224.374.428.428,0,0,1-.224.383l-7.866,4.551A.4.4,0,0,1,813.739,1910.754Z" transform="translate(-802.543 -1866.677)" fill="#02166f" fill-rule="evenodd"/>
    <path id="Path_78825" data-name="Path 78825" d="M810.517,1907.385l7.866-4.538q9.357,5.4,18.741,10.81l-7.866,4.552Q819.879,1912.8,810.517,1907.385Z" transform="translate(-799.321 -1863.742)" fill-rule="evenodd" fill="url(#linear-gradient)"/>
    <path id="Path_78826" data-name="Path 78826" d="M811.534,1907.518l17.857,10.311,6.981-4.039-17.856-10.312-6.983,4.04Zm17.857,11.259a.409.409,0,0,1-.226-.064l-18.739-10.81a.448.448,0,0,1,0-.772l7.866-4.536a.452.452,0,0,1,.435,0l18.755,10.826a.423.423,0,0,1,.209.37.427.427,0,0,1-.209.386l-7.866,4.537A.4.4,0,0,1,829.391,1918.777Z" transform="translate(-799.454 -1863.875)" fill="#02166f" fill-rule="evenodd"/>
    <path id="Path_78827" data-name="Path 78827" d="M823.625,1914.961l7.867-4.553a1.216,1.216,0,0,1,.558.982v.932l-7.866,4.552v-.948A1.2,1.2,0,0,0,823.625,1914.961Z" transform="translate(-793.688 -1860.493)" fill="#bdedf8" fill-rule="evenodd"/>
    <path id="Path_78828" data-name="Path 78828" d="M824.479,1915.188a1.8,1.8,0,0,1,.283.858v.187l6.983-4.027v-.685a.827.827,0,0,0-.172-.434l-7.094,4.1Zm-.166,2.251a.392.392,0,0,1-.21-.064.437.437,0,0,1-.223-.37v-.948a.771.771,0,0,0-.36-.6.427.427,0,0,1-.2-.386.418.418,0,0,1,.209-.371l7.868-4.537a.447.447,0,0,1,.461,0,1.683,1.683,0,0,1,.771,1.33v.955a.461.461,0,0,1-.223.386l-7.866,4.536A.491.491,0,0,1,824.314,1917.439Z" transform="translate(-793.819 -1860.623)" fill="#02166f" fill-rule="evenodd"/>
    <path id="Path_78829" data-name="Path 78829" d="M803.129,1900.423l.148-.661c.064-.333.4-.359.723-.059l9.282,8.809a2.246,2.246,0,0,0,.409.313l3.817,2.2,1.926,1.119,13,7.508a1.21,1.21,0,0,1,.557.966v.948l-19.4-11.212Q808.375,1905.4,803.129,1900.423Z" transform="translate(-802.496 -1865.182)" fill="#bdedf8" fill-rule="evenodd"/>
    <path id="Path_78830" data-name="Path 78830" d="M803.747,1900.4l10.287,9.77,18.655,10.75v-.176a.8.8,0,0,0-.35-.585L813.6,1909.341a2.879,2.879,0,0,1-.483-.375l-9.282-8.811c-.016-.011-.027-.011-.027-.021l-.06.27Zm29.375,21.725a.4.4,0,0,1-.21-.063l-19.4-11.2-10.548-9.991a.472.472,0,0,1-.139-.412l.15-.659a.728.728,0,0,1,.509-.581.94.94,0,0,1,.944.3l9.3,8.811a1.531,1.531,0,0,0,.307.235l18.755,10.826a1.687,1.687,0,0,1,.782,1.352v.948a.431.431,0,0,1-.223.37A.5.5,0,0,1,833.122,1922.128Z" transform="translate(-802.628 -1865.313)" fill="#02166f" fill-rule="evenodd"/>
    <path id="Path_78831" data-name="Path 78831" d="M805.859,1904.445l6.509,3.752,16.366,9.448v.585a1.019,1.019,0,0,1-.435.967,1.049,1.049,0,0,1-1.067-.1l-19.872-11.469a3.37,3.37,0,0,1-1.5-2.61Z" transform="translate(-801.323 -1863.055)" fill-rule="evenodd" fill="url(#linear-gradient-2)"/>
    <path id="Path_78832" data-name="Path 78832" d="M806.45,1905.337a2.9,2.9,0,0,0,1.265,2.039l19.871,11.47a.494.494,0,0,0,.844-.484v-.326l-21.98-12.7Zm21.584,14.54a1.753,1.753,0,0,1-.881-.26l-19.871-11.469a3.763,3.763,0,0,1-1.727-3v-.573a.436.436,0,0,1,.222-.381.458.458,0,0,1,.439,0L829.09,1917.4a.433.433,0,0,1,.224.375v.584a1.51,1.51,0,0,1-.658,1.353A1.2,1.2,0,0,1,828.034,1919.876Z" transform="translate(-801.453 -1863.186)" fill="#02166f" fill-rule="evenodd"/>
    <path id="Path_78833" data-name="Path 78833" d="M813.188,1909.685l-9.11-5.257v-3.378Z" transform="translate(-802.088 -1864.514)" fill="#fff" fill-rule="evenodd"/>
    <path id="Path_78834" data-name="Path 78834" d="M804.658,1904.31l5.663,3.271-5.663-5.382v2.111Zm8.66,5.957a.433.433,0,0,1-.213-.064l-9.11-5.255a.445.445,0,0,1-.222-.386v-3.379a.449.449,0,0,1,.263-.412.484.484,0,0,1,.484.086l9.106,8.65a.422.422,0,0,1,.053.573A.442.442,0,0,1,813.318,1910.268Z" transform="translate(-802.219 -1864.647)" fill="#02166f" fill-rule="evenodd"/>
    <path id="Path_78835" data-name="Path 78835" d="M810.3,1900.671c9.645,3.78,25.127,3.309,33.267-3.839l-19.91-20.216Z" transform="translate(-799.414 -1875.014)" fill="#fff" fill-rule="evenodd"/>
    <path id="Path_78836" data-name="Path 78836" d="M811.069,1900.572c9.369,3.463,23.943,3.055,31.986-3.63l-19.164-19.465-12.822,23.095Zm12.886,3.018a38.418,38.418,0,0,1-13.684-2.375.463.463,0,0,1-.247-.261.405.405,0,0,1,.023-.361l13.361-24.055a.452.452,0,0,1,.322-.226.456.456,0,0,1,.376.136l19.906,20.219a.393.393,0,0,1,.123.323.374.374,0,0,1-.15.31C838.99,1901.687,831.361,1903.59,823.955,1903.59Z" transform="translate(-799.547 -1875.145)" fill="#02166f" fill-rule="evenodd"/>
    <path id="Path_78837" data-name="Path 78837" d="M836.484,1879.827a31.847,31.847,0,0,0-12.391-3.794l-4.451.835,19.91,20.216C845.643,1891.755,844.609,1884.51,836.484,1879.827Z" transform="translate(-795.4 -1875.265)" fill-rule="evenodd" fill="url(#linear-gradient-2)"/>
    <path id="Path_78838" data-name="Path 78838" d="M820.67,1877.284,839.7,1896.61c2.512-2.312,3.677-4.96,3.42-7.679-.323-3.218-2.714-6.275-6.724-8.6h0a31.55,31.55,0,0,0-12.14-3.716l-3.581.671Zm19.014,20.38a.434.434,0,0,1-.31-.137l-19.906-20.216a.43.43,0,0,1,.232-.735l4.449-.846a.273.273,0,0,1,.129,0,32.611,32.611,0,0,1,12.559,3.838h0c4.263,2.465,6.811,5.755,7.147,9.288.312,3.066-1.12,6.162-4.015,8.7A.411.411,0,0,1,839.684,1897.665Z" transform="translate(-795.531 -1875.398)" fill="#02166f" fill-rule="evenodd"/>
    <path id="Path_78839" data-name="Path 78839" d="M827.58,1876.106a39.457,39.457,0,0,0-16.054,1.506l1.591-.086,10.012-.585Z" transform="translate(-798.887 -1875.339)" fill="#fff" fill-rule="evenodd"/>
    <path id="Path_78840" data-name="Path 78840" d="M823.188,1876.425a38.283,38.283,0,0,0-6.694.6l6.747-.383,1.045-.2c-.375-.016-.734-.016-1.1-.016Zm-11.529,1.769a.446.446,0,0,1-.123-.874,40.036,40.036,0,0,1,16.23-1.517.446.446,0,0,1,.4.423.463.463,0,0,1-.363.45l-4.447.832-11.667.685Z" transform="translate(-799.02 -1875.471)" fill="#02166f" fill-rule="evenodd"/>
    <path id="Path_78841" data-name="Path 78841" d="M818.479,1876.538v1.8l.011.049a.922.922,0,0,0,.215.349,1.846,1.846,0,0,0,.894.422,2.589,2.589,0,0,0,1.664-.2,1.038,1.038,0,0,0,.51-.483.317.317,0,0,0,.026-.09l.011-.049v-1.8c-.011.037-.011.06-.027.1a.7.7,0,0,1-.123.22,1.35,1.35,0,0,1-.46.338,2.723,2.723,0,0,1-2.113,0,1.192,1.192,0,0,1-.543-.473.961.961,0,0,1-.053-.137Z" transform="translate(-795.9 -1875.047)" fill="#31cfff" fill-rule="evenodd"/>
    <path id="Path_78842" data-name="Path 78842" d="M819.055,1878.47c.014,0,.051.049.09.086a1.272,1.272,0,0,0,.67.3,2.23,2.23,0,0,0,1.38-.15.636.636,0,0,0,.3-.262v-.709a3.067,3.067,0,0,1-2.439,0v.735Zm1.217,1.318a3.473,3.473,0,0,1-.632-.063,2.32,2.32,0,0,1-1.105-.531,1.209,1.209,0,0,1-.336-.573.54.54,0,0,1-.023-.15v-1.8a.442.442,0,0,1,.4-.436.438.438,0,0,1,.472.35l.011.049a.715.715,0,0,0,.349.3,2.228,2.228,0,0,0,1.742,0,.855.855,0,0,0,.3-.224l.05.011v-.048h.209l-.2-.075a.437.437,0,0,1,.47-.362.444.444,0,0,1,.4.436v1.8c0,.037-.011.112-.011.139a.658.658,0,0,1-.064.171,1.472,1.472,0,0,1-.7.709A3.057,3.057,0,0,1,820.272,1879.789Z" transform="translate(-796.03 -1875.178)" fill="#02166f" fill-rule="evenodd"/>
    <path id="Path_78843" data-name="Path 78843" d="M821.325,1876.082a2.634,2.634,0,0,0-2.359,0,.723.723,0,0,0,0,1.366,2.617,2.617,0,0,0,2.359,0C821.981,1877.078,821.981,1876.466,821.325,1876.082Z" transform="translate(-795.899 -1875.363)" fill="#fff" fill-rule="evenodd"/>
    <path id="Path_78844" data-name="Path 78844" d="M820.276,1876.38a1.993,1.993,0,0,0-.955.219c-.2.113-.273.226-.273.3s.074.187.273.294a2.148,2.148,0,0,0,1.916,0c.2-.107.273-.22.273-.294s-.076-.188-.273-.3h0a1.97,1.97,0,0,0-.961-.219Zm0,1.925a2.906,2.906,0,0,1-1.4-.337,1.261,1.261,0,0,1-.708-1.067,1.241,1.241,0,0,1,.708-1.058,3.063,3.063,0,0,1,2.805-.014v.014a1.243,1.243,0,0,1,.708,1.058,1.282,1.282,0,0,1-.708,1.067A2.876,2.876,0,0,1,820.276,1878.3Z" transform="translate(-796.033 -1875.495)" fill="#02166f" fill-rule="evenodd"/>
  </g>
</svg>
