<svg xmlns="http://www.w3.org/2000/svg" xmlns:xlink="http://www.w3.org/1999/xlink" width="60.06" height="53.614" viewBox="0 0 60.06 53.614">
  <defs>
    <linearGradient id="linear-gradient" x1="0.5" x2="0.5" y2="1" gradientUnits="objectBoundingBox">
      <stop offset="0" stop-color="#a6d7ff"/>
      <stop offset="1" stop-color="#ebf6ff"/>
    </linearGradient>
    <linearGradient id="linear-gradient-2" x1="0.5" x2="0.5" y2="1" gradientUnits="objectBoundingBox">
      <stop offset="0" stop-color="#ffbe68"/>
      <stop offset="1" stop-color="#fba562"/>
    </linearGradient>
  </defs>
  <g id="hotel-icon" transform="translate(0 0)">
    <path id="Path_78713" data-name="Path 78713" d="M2616.809,1242.593l28.233-16.3,31.011,17.9-28.232,16.3Z" transform="translate(-2616.402 -1209.466)" fill-rule="evenodd" fill="url(#linear-gradient)"/>
    <path id="Path_78714" data-name="Path 78714" d="M2675.366,1244.281l-27.454,15.841-30.232-17.438,27.454-15.842,30.232,17.439Zm-27.454,16.7a.455.455,0,0,0,.2-.058l28.232-16.3a.36.36,0,0,0,.2-.338.377.377,0,0,0-.2-.349l-31.013-17.9a.436.436,0,0,0-.408,0l-28.232,16.3a.386.386,0,0,0-.2.348.354.354,0,0,0,.2.336l31.011,17.9A.457.457,0,0,0,2647.913,1260.979Z" transform="translate(-2616.494 -1209.556)" fill="#1a87c7" fill-rule="evenodd"/>
    <path id="Path_78715" data-name="Path 78715" d="M2616.809,1256.429l28.233-16.3v2.193l-28.233,16.3Z" transform="translate(-2585.391 -1205.402)" fill="#fff" fill-rule="evenodd"/>
    <path id="Path_78716" data-name="Path 78716" d="M2644.76,1242.183l-27.454,15.834v-1.271l27.42-15.844.034,1.281Zm-27.86,16.924a.352.352,0,0,0,.2-.056l28.233-16.291a.389.389,0,0,0,.2-.349v-2.193a.377.377,0,0,0-.2-.349.428.428,0,0,0-.407,0l-28.234,16.3a.451.451,0,0,0-.2.348v2.193a.447.447,0,0,0,.2.339A.355.355,0,0,0,2616.9,1259.107Z" transform="translate(-2585.482 -1205.493)" fill="#02166f" fill-rule="evenodd"/>
    <path id="Path_78717" data-name="Path 78717" d="M2669.645,1258.984l-31.011-17.9v-2.193l31.011,17.9Z" transform="translate(-2638.226 -1205.765)" fill="#31cfff" fill-rule="evenodd"/>
    <path id="Path_78718" data-name="Path 78718" d="M2669.331,1257.109v1.27l-30.233-17.44v-1.272l30.233,17.441Zm.406,2.36a.353.353,0,0,0,.2-.055.372.372,0,0,0,.2-.339v-2.193a.377.377,0,0,0-.2-.348l-31.048-17.9a.362.362,0,0,0-.372,0,.386.386,0,0,0-.2.348v2.193a.384.384,0,0,0,.2.347l31.011,17.891A.357.357,0,0,0,2669.737,1259.469Z" transform="translate(-2638.318 -1205.855)" fill="#02166f" fill-rule="evenodd"/>
    <path id="Path_78719" data-name="Path 78719" d="M2623.594,1256.735l19.387-11.178-.035-21.512-19.352,11.178Z" transform="translate(-2592.107 -1210.125)" fill="#fff" fill-rule="evenodd"/>
    <path id="Path_78720" data-name="Path 78720" d="M2642.693,1245.425l-18.573,10.714v-20.6l18.54-10.718.032,20.6Zm-18.979,11.8a.463.463,0,0,0,.2-.057L2643.27,1246a.379.379,0,0,0,.2-.349v-21.512a.447.447,0,0,0-.2-.345.381.381,0,0,0-.408,0l-19.353,11.174a.376.376,0,0,0-.2.349l.034,21.512a.419.419,0,0,0,.169.346A.467.467,0,0,0,2623.714,1257.23Z" transform="translate(-2592.226 -1210.216)" fill="#02166f" fill-rule="evenodd"/>
    <path id="Path_78721" data-name="Path 78721" d="M2662.035,1257.269v-21.523l-23.455-13.516.035,21.522Z" transform="translate(-2630.548 -1210.658)" fill="#fff" fill-rule="evenodd"/>
    <path id="Path_78722" data-name="Path 78722" d="M2661.72,1236.074l.034,20.6-22.674-13.053v-20.6l22.64,13.057Zm.407,21.687a.459.459,0,0,0,.2-.057.383.383,0,0,0,.2-.346v-21.522a.372.372,0,0,0-.2-.339l-23.454-13.517a.39.39,0,0,0-.407,0,.451.451,0,0,0-.2.34l.033,21.521a.375.375,0,0,0,.2.349l23.42,13.514A.465.465,0,0,0,2662.127,1257.761Z" transform="translate(-2630.64 -1210.748)" fill="#02166f" fill-rule="evenodd"/>
    <path id="Path_78723" data-name="Path 78723" d="M2661.1,1213.589l-19.354,11.178,1.458.833,17.9-10.347Z" transform="translate(-2633.718 -1213.195)" fill="#fff" fill-rule="evenodd"/>
    <path id="Path_78724" data-name="Path 78724" d="M2660.823,1215.12l-17.522,10.106-.644-.369,18.167-10.48v.743Zm-17.522,10.973a.494.494,0,0,0,.2-.053l17.9-10.344a.38.38,0,0,0,.2-.353v-1.664a.372.372,0,0,0-.2-.335.324.324,0,0,0-.374,0l-19.386,11.173a.393.393,0,0,0,0,.688l1.458.834A.487.487,0,0,0,2643.3,1226.092Z" transform="translate(-2633.81 -1213.284)" fill="#02166f" fill-rule="evenodd"/>
    <path id="Path_78725" data-name="Path 78725" d="M2645.617,1227.949l1.458-.834-23.454-13.526v1.664Z" transform="translate(-2596.235 -1213.195)" fill="#fff" fill-rule="evenodd"/>
    <path id="Path_78726" data-name="Path 78726" d="M2646.354,1227.2l-.678.374-21.59-12.459v-.743l22.268,12.828Zm-.678,1.227a.42.42,0,0,0,.2-.057l1.458-.83a.39.39,0,0,0,0-.684l-23.454-13.516a.325.325,0,0,0-.374,0,.372.372,0,0,0-.2.335v1.664a.379.379,0,0,0,.2.353l22,12.679A.238.238,0,0,0,2645.676,1228.431Z" transform="translate(-2596.293 -1213.284)" fill="#02166f" fill-rule="evenodd"/>
    <path id="Path_78727" data-name="Path 78727" d="M2646.913,1237.894l17.9-10.334-22-12.648-18.066,10.188Z" transform="translate(-2615.427 -1212.807)" fill="#fff" fill-rule="evenodd"/>
    <path id="Path_78728" data-name="Path 78728" d="M2664.123,1227.652l-17.114,9.872-21.353-12.324,17.251-9.746,21.216,12.2Zm-17.114,10.736a.513.513,0,0,0,.2-.053l17.9-10.348a.367.367,0,0,0,.2-.335.376.376,0,0,0-.2-.349l-22.029-12.648a.365.365,0,0,0-.374,0l-18.065,10.184a.4.4,0,0,0-.2.352.375.375,0,0,0,.2.347l22.166,12.8A.518.518,0,0,0,2647.008,1238.388Z" transform="translate(-2615.52 -1212.897)" fill="#02166f" fill-rule="evenodd"/>
    <path id="Path_78729" data-name="Path 78729" d="M2640.074,1225.347l4.61-2.675v-3.439l-4.61,2.664Z" transform="translate(-2615.128 -1211.537)" fill="#fff" fill-rule="evenodd"/>
    <path id="Path_78730" data-name="Path 78730" d="M2644.369,1222.536l-3.831,2.207v-2.521l3.831-2.214v2.528Zm-4.2,3.295a.258.258,0,0,0,.169-.054l4.643-2.665a.449.449,0,0,0,.2-.349v-3.438a.464.464,0,0,0-.2-.349.425.425,0,0,0-.406,0l-4.609,2.674a.372.372,0,0,0-.2.339v3.45a.374.374,0,0,0,.2.339A.353.353,0,0,0,2640.165,1225.831Z" transform="translate(-2615.22 -1211.628)" fill="#02166f" fill-rule="evenodd"/>
    <path id="Path_78731" data-name="Path 78731" d="M2644.547,1222.489l4.61-2.664-4.406-2.61-4.677,2.7Z" transform="translate(-2619.602 -1212.13)" fill="#fff" fill-rule="evenodd"/>
    <path id="Path_78732" data-name="Path 78732" d="M2648.471,1219.916l-3.831,2.2-3.694-2.117,3.864-2.236,3.662,2.15Zm-3.831,3.066a.334.334,0,0,0,.169-.054l4.643-2.678a.421.421,0,0,0,.2-.333.464.464,0,0,0-.2-.349l-4.4-2.6a.417.417,0,0,0-.408-.01l-4.678,2.7a.388.388,0,0,0-.2.349.375.375,0,0,0,.2.349l4.475,2.576A.462.462,0,0,0,2644.64,1222.982Z" transform="translate(-2619.694 -1212.221)" fill="#02166f" fill-rule="evenodd"/>
    <path id="Path_78733" data-name="Path 78733" d="M2648.111,1221.876l-4.474-2.576v3.45l4.474,2.577Z" transform="translate(-2623.165 -1211.518)" fill-rule="evenodd" fill="url(#linear-gradient-2)"/>
    <path id="Path_78734" data-name="Path 78734" d="M2647.824,1222.2v2.521l-3.694-2.115v-2.519l3.694,2.113Zm.407,3.609a.259.259,0,0,0,.169-.054.375.375,0,0,0,.2-.339v-3.45a.371.371,0,0,0-.2-.339l-4.474-2.574a.32.32,0,0,0-.374,0,.366.366,0,0,0-.2.336v3.45a.375.375,0,0,0,.2.34l4.475,2.576A.355.355,0,0,0,2648.231,1225.81Z" transform="translate(-2623.285 -1211.608)" fill="#02166f" fill-rule="evenodd"/>
    <path id="Path_78735" data-name="Path 78735" d="M2655.873,1237.346l-12.812-7.4.034,14.313,12.811,7.412Z" transform="translate(-2630.215 -1208.391)" fill="#31cfff" fill-rule="evenodd"/>
    <path id="Path_78736" data-name="Path 78736" d="M2655.592,1237.673v13.393l-12.032-6.939v-13.4l12.032,6.948Zm.406,14.484a.459.459,0,0,0,.2-.058.449.449,0,0,0,.2-.335l-.032-14.327a.376.376,0,0,0-.2-.339l-12.814-7.409a.448.448,0,0,0-.406,0,.467.467,0,0,0-.2.349l.032,14.313a.386.386,0,0,0,.2.35l12.814,7.4A.446.446,0,0,0,2656,1252.157Z" transform="translate(-2630.308 -1208.481)" fill="#02166f" fill-rule="evenodd"/>
    <path id="Path_78737" data-name="Path 78737" d="M2652.847,1235.085a.38.38,0,0,0,.339-.194.371.371,0,0,0-.135-.549l-3.8-2.193a.407.407,0,0,0-.542.146.412.412,0,0,0,.169.552l3.8,2.193A.247.247,0,0,0,2652.847,1235.085Z" transform="translate(-2634.815 -1207.759)" fill="#02166f" fill-rule="evenodd"/>
    <path id="Path_78738" data-name="Path 78738" d="M2652.847,1242.809a.386.386,0,0,0,.339-.189.374.374,0,0,0-.135-.552l-3.8-2.18a.387.387,0,0,0-.542.145.4.4,0,0,0,.169.541l3.8,2.192A.263.263,0,0,0,2652.847,1242.809Z" transform="translate(-2634.815 -1205.489)" fill="#02166f" fill-rule="evenodd"/>
    <path id="Path_78739" data-name="Path 78739" d="M2652.847,1240.883a.374.374,0,0,0,.339-.2.361.361,0,0,0-.135-.539l-3.8-2.193a.4.4,0,0,0-.542.146.409.409,0,0,0,.169.549l3.8,2.182A.2.2,0,0,0,2652.847,1240.883Z" transform="translate(-2634.815 -1206.057)" fill="#02166f" fill-rule="evenodd"/>
    <path id="Path_78740" data-name="Path 78740" d="M2652.847,1238.953a.4.4,0,0,0,.339-.2.358.358,0,0,0-.135-.539l-3.8-2.2a.392.392,0,1,0-.373.688l3.8,2.193A.25.25,0,0,0,2652.847,1238.953Z" transform="translate(-2634.815 -1206.625)" fill="#02166f" fill-rule="evenodd"/>
    <path id="Path_78741" data-name="Path 78741" d="M2652.847,1237.024a.393.393,0,0,0,.339-.2.377.377,0,0,0-.135-.554l-3.8-2.178a.391.391,0,1,0-.373.686l3.8,2.191A.258.258,0,0,0,2652.847,1237.024Z" transform="translate(-2634.815 -1207.191)" fill="#02166f" fill-rule="evenodd"/>
    <path id="Path_78742" data-name="Path 78742" d="M2648.236,1237.925a.4.4,0,0,0,.2-.745l-4.068-2.334a.365.365,0,0,0-.508.144.373.373,0,0,0,.136.551l4.032,2.336A.432.432,0,0,0,2648.236,1237.925Z" transform="translate(-2623.899 -1206.967)" fill="#02166f" fill-rule="evenodd"/>
    <path id="Path_78743" data-name="Path 78743" d="M2648.236,1245.663a.392.392,0,0,0,.337-.2.374.374,0,0,0-.134-.552l-4.068-2.339a.367.367,0,0,0-.508.146.374.374,0,0,0,.136.552l4.032,2.339A.494.494,0,0,0,2648.236,1245.663Z" transform="translate(-2623.899 -1204.699)" fill="#02166f" fill-rule="evenodd"/>
    <path id="Path_78744" data-name="Path 78744" d="M2648.236,1239.864a.392.392,0,0,0,.337-.2.362.362,0,0,0-.134-.542l-4.068-2.339a.352.352,0,0,0-.508.146.363.363,0,0,0,.136.542l4.032,2.339A.461.461,0,0,0,2648.236,1239.864Z" transform="translate(-2623.899 -1206.401)" fill="#02166f" fill-rule="evenodd"/>
    <path id="Path_78745" data-name="Path 78745" d="M2648.236,1243.726a.382.382,0,0,0,.337-.193.376.376,0,0,0-.134-.554l-4.068-2.335a.355.355,0,0,0-.508.143.375.375,0,0,0,.136.553l4.032,2.338A.449.449,0,0,0,2648.236,1243.726Z" transform="translate(-2623.899 -1205.266)" fill="#02166f" fill-rule="evenodd"/>
    <path id="Path_78746" data-name="Path 78746" d="M2648.236,1241.795a.371.371,0,0,0,.337-.2.36.36,0,0,0-.134-.538l-4.068-2.339a.39.39,0,0,0-.372.684l4.032,2.339A.465.465,0,0,0,2648.236,1241.795Z" transform="translate(-2623.899 -1205.833)" fill="#02166f" fill-rule="evenodd"/>
    <path id="Path_78747" data-name="Path 78747" d="M2648.131,1247.6a.4.4,0,0,0,.407-.4v-14.3a.4.4,0,0,0-.407-.393.417.417,0,0,0-.406.393v14.3A.419.419,0,0,0,2648.131,1247.6Z" transform="translate(-2628.88 -1207.64)" fill="#02166f" fill-rule="evenodd"/>
    <path id="Path_78748" data-name="Path 78748" d="M2626.685,1235.939a.724.724,0,0,0-.339.587v2.722c0,.214.136.3.339.189,2.033-1.168,8.439-4.88,10.472-6.059a.679.679,0,0,0,.34-.573v-2.731c0-.214-.136-.305-.34-.194Z" transform="translate(-2590.181 -1208.425)" fill-rule="evenodd" fill="url(#linear-gradient-2)"/>
    <path id="Path_78749" data-name="Path 78749" d="M2637.18,1230.466v2.43a.321.321,0,0,1-.134.225l-10.2,5.913v-2.416a.326.326,0,0,1,.135-.238l10.2-5.913Zm-10.574,9.513a.775.775,0,0,0,.373-.1l10.473-6.059a1.163,1.163,0,0,0,.542-.923v-2.731a.6.6,0,0,0-.306-.563.633.633,0,0,0-.643.019l-10.474,6.074a1.132,1.132,0,0,0-.542.923v2.722a.6.6,0,0,0,.3.562A.441.441,0,0,0,2626.606,1239.979Z" transform="translate(-2590.273 -1208.516)" fill="#02166f" fill-rule="evenodd"/>
  </g>
</svg>
