<svg xmlns="http://www.w3.org/2000/svg" width="58.306" height="47.222" viewBox="0 0 58.306 47.222">
  <g id="important" transform="translate(-3.5 -8.936)">
    <g id="Group_43055" data-name="Group 43055" transform="translate(5.427 10.863)">
      <path id="Path_131165" data-name="Path 131165" d="M61.159,19.806h-1.4V15.654a2.721,2.721,0,0,0-2.718-2.718h-42.7a2.721,2.721,0,0,0-2.718,2.718v4.152h-1.4A2.721,2.721,0,0,0,7.5,22.523v30.4a2.721,2.721,0,0,0,2.718,2.718H26.57L31.5,48.553a1.788,1.788,0,0,0-1.244,2.581h-.482a1.319,1.319,0,0,0-1.317,1.317V55.2a.761.761,0,0,0,.76.76l5.236,1.317a.761.761,0,0,0,.76-.76V53.768a1.319,1.319,0,0,0-1.317-1.317H33.41a1.776,1.776,0,0,0,.2-.825c0-.869,6.854,4.179,6.031,4.018H61.161a2.721,2.721,0,0,0,2.718-2.718v-30.4A2.723,2.723,0,0,0,61.159,19.806ZM33.41,55.644v1.021a1.791,1.791,0,0,0-1.142.758,1.793,1.793,0,0,0-1.142-.758V55.644Zm5.115,0c-.474.092-.164-.851-.425-.464-.26-.387.341,1.577-.132,1.485V55.644h.557Z" transform="translate(-7.5 -12.936)" fill="#b6c6d8"/>
    </g>
    <g id="Group_43065" data-name="Group 43065" transform="translate(3.5 8.936)">
      <g id="Group_43061" data-name="Group 43061" transform="translate(0.482 0.482)">
        <g id="Group_43056" data-name="Group 43056" transform="translate(0 6.87)">
          <path id="Path_131166" data-name="Path 131166" d="M57.677,59.068H6.736A2.236,2.236,0,0,1,4.5,56.832v-30.4a2.236,2.236,0,0,1,2.236-2.236H57.677a2.236,2.236,0,0,1,2.236,2.236v30.4A2.236,2.236,0,0,1,57.677,59.068Z" transform="translate(-4.5 -24.193)" fill="#0089ef"/>
        </g>
        <g id="Group_43057" data-name="Group 43057" transform="translate(4.121)">
          <path id="Path_131167" data-name="Path 131167" d="M57.988,47.427h-42.7a2.236,2.236,0,0,1-2.236-2.236V12.172a2.236,2.236,0,0,1,2.236-2.236h42.7a2.236,2.236,0,0,1,2.236,2.236v33.02A2.236,2.236,0,0,1,57.988,47.427Z" transform="translate(-13.053 -9.936)" fill="#d4fbff"/>
        </g>
        <g id="Group_43058" data-name="Group 43058" transform="translate(4.121 0)">
          <path id="Path_131168" data-name="Path 131168" d="M57.988,9.936h-42.7a2.236,2.236,0,0,0-2.236,2.236v1.446a2.236,2.236,0,0,1,2.236-2.236h42.7a2.236,2.236,0,0,1,2.236,2.236V12.172a2.236,2.236,0,0,0-2.236-2.236Z" transform="translate(-13.053 -9.936)" fill="#fff"/>
        </g>
        <g id="Group_43060" data-name="Group 43060" transform="translate(8.103 5.228)">
          <g id="Group_43059" data-name="Group 43059">
            <path id="Path_131169" data-name="Path 131169" d="M27.68,30.665H21.875a.559.559,0,0,1-.559-.559V21.344a.559.559,0,0,1,.559-.559H27.68a.559.559,0,0,1,.559.559v8.763A.559.559,0,0,1,27.68,30.665Z" transform="translate(-21.316 -20.785)" fill="#ffd7e5"/>
          </g>
          <path id="Path_131170" data-name="Path 131170" d="M85.767,47.732H71.672a.559.559,0,0,0-.559.559V52.9l6.99,4.713h7.663a.559.559,0,0,0,.559-.559V48.291A.558.558,0,0,0,85.767,47.732Z" transform="translate(-47.118 -34.747)" fill="#6dc9f7"/>
        </g>
      </g>
      <g id="Group_43064" data-name="Group 43064">
        <g id="Group_43063" data-name="Group 43063">
          <g id="Group_43062" data-name="Group 43062">
            <path id="Path_131172" data-name="Path 131172" d="M57.159,15.806h-1.4V11.654a2.721,2.721,0,0,0-2.718-2.718h-42.7a2.721,2.721,0,0,0-2.718,2.718v4.152h-1.4A2.721,2.721,0,0,0,3.5,18.523v30.4a2.721,2.721,0,0,0,2.718,2.718H22.57c-.718,1.031,12.765,1.1,16.578,1.606.391.052.787-.516.695-.516l-.457.079c.129-.247.457.149.457-.148,0-.869,1.407-.655.584-.815l.381-.206H57.161a2.721,2.721,0,0,0,2.718-2.718V40.718a.482.482,0,0,0-.964,0v8.208a1.756,1.756,0,0,1-1.754,1.754H40.807V47.391H53.038a2.721,2.721,0,0,0,2.718-2.718V16.77h1.4a1.756,1.756,0,0,1,1.754,1.754V32.106a.482.482,0,0,0,.964,0V18.523a2.722,2.722,0,0,0-2.718-2.718ZM8.585,11.654A1.756,1.756,0,0,1,10.339,9.9H31.207V29.606c-.043.022.041,1.135,0,1.162L23.86,34.534H12.085a.482.482,0,1,0,0,.964H22.43l-1.014,1.986a1.095,1.095,0,0,0,.612,2l-2.5.886v1.171a1.318,1.318,0,0,0,1.317,1.317h.482a1.788,1.788,0,0,0,1.244,2.581v.986H10.339a1.756,1.756,0,0,1-1.754-1.754ZM6.218,50.68a1.756,1.756,0,0,1-1.754-1.754v-30.4A1.756,1.756,0,0,1,6.218,16.77h1.4v27.9a2.721,2.721,0,0,0,2.718,2.718H22.57V50.68Zm32.8,2.447c0,.455-1.246.688-1.7.688-.266,0,.945-.266.945,0s-1.211.606-.945.606c2.264,0-13.785-1.165-13.785-9.443a.481.481,0,0,0-.16-.359A.487.487,0,0,0,23,44.5s-.911-.359-.911-.814a.826.826,0,0,1,.825-.825.482.482,0,1,0,0-.964H20.843c-.195,0-.353-.159-.353-2.006a.482.482,0,0,0-.482-.482l2.02-.886a.131.131,0,0,1-.073-.24c.448-.3,12.758-4.542,20.1.406.053.036.221.269.2.331s-.519-.08-.584-.08l1.7.469a.481.481,0,0,0-.482.482v1.653a.354.354,0,0,1-.353.353h-2.07a.482.482,0,1,0,0,.964.823.823,0,1,1-.028,1.645h-.009l-.05-.006a.487.487,0,0,0-.374.12.481.481,0,0,0-.16.359l-.457,7.835c0,.137-.261-.24-.159-.148s.023-.115.159-.129h.185c.455,0-.553.137-.553.592Zm15.774-8.454a1.756,1.756,0,0,1-1.754,1.754H40.807v-.986a1.788,1.788,0,0,0,1.244-2.581h.483a1.319,1.319,0,0,0,1.317-1.317V40.373l-.964-.482c.485,0-1.36-.25-1.218-.713s.706-.456.3-.728l.28-.08L32.17,30.707c-.041-.027.043-1.079,0-1.1V9.9H53.038a1.756,1.756,0,0,1,1.754,1.754v33.02Z" transform="translate(-3.5 -8.936)" fill="#3a2c60"/>
            <path id="Path_131173" data-name="Path 131173" d="M118.982,60.186a.481.481,0,0,0-.482.482v4.578a.482.482,0,1,0,.964,0V60.668A.482.482,0,0,0,118.982,60.186Z" transform="translate(-63.087 -35.491)" fill="#3a2c60"/>
            <path id="Path_131174" data-name="Path 131174" d="M85.808,23.691H70.6a.482.482,0,0,0,0,.964H85.808a.482.482,0,0,0,0-.964Z" transform="translate(-38.016 -16.581)" fill="#3a2c60"/>
            <path id="Path_131175" data-name="Path 131175" d="M85.808,36.385H70.6a.482.482,0,0,0,0,.964H85.808a.482.482,0,0,0,0-.964Z" transform="translate(-38.016 -23.159)" fill="#3a2c60"/>
            <path id="Path_131176" data-name="Path 131176" d="M20.8,50.33H36.01a.482.482,0,1,0,0-.964H20.8a.482.482,0,0,0,0,.964Z" transform="translate(-12.213 -29.885)" fill="#3a2c60"/>
            <path id="Path_131177" data-name="Path 131177" d="M39.072,24.655h6.407a.482.482,0,1,0,0-.964H39.072a.482.482,0,0,0,0,.964Z" transform="translate(-21.682 -16.581)" fill="#3a2c60"/>
            <path id="Path_131178" data-name="Path 131178" d="M39.072,37.349h6.407a.482.482,0,1,0,0-.964H39.072a.482.482,0,0,0,0,.964Z" transform="translate(-21.682 -23.159)" fill="#3a2c60"/>
            <g id="Group_43067" data-name="Group 43067" transform="translate(15.419 21.683)">
              <g id="Ellipse_9472" data-name="Ellipse 9472" fill="#fa759e" stroke="#3a2c60" stroke-width="1">
                <circle cx="12.769" cy="12.769" r="12.769" stroke="none"/>
                <circle cx="12.769" cy="12.769" r="12.269" fill="none"/>
              </g>
              <g id="Path_131179" data-name="Path 131179" transform="translate(3.288 3.132)" fill="#d4fbff">
                <path d="M 9.637093544006348 18.77418327331543 C 4.598883628845215 18.77418327331543 0.5000035166740417 14.67530345916748 0.5000035166740417 9.637093544006348 C 0.5000035166740417 4.598883628845215 4.598883628845215 0.5000035166740417 9.637093544006348 0.5000035166740417 C 14.67530345916748 0.5000035166740417 18.77418327331543 4.598883628845215 18.77418327331543 9.637093544006348 C 18.77418327331543 14.67530345916748 14.67530345916748 18.77418327331543 9.637093544006348 18.77418327331543 Z" stroke="none"/>
                <path d="M 9.637093544006348 1.000003814697266 C 4.87458324432373 1.000003814697266 1.000003814697266 4.87458324432373 1.000003814697266 9.637093544006348 C 1.000003814697266 14.39960289001465 4.87458324432373 18.27418327331543 9.637093544006348 18.27418327331543 C 14.39960289001465 18.27418327331543 18.27418327331543 14.39960289001465 18.27418327331543 9.637093544006348 C 18.27418327331543 4.87458324432373 14.39960289001465 1.000003814697266 9.637093544006348 1.000003814697266 M 9.637093544006348 3.814697265625e-06 C 14.95951366424561 3.814697265625e-06 19.27418327331543 4.31467342376709 19.27418327331543 9.637093544006348 C 19.27418327331543 14.95951366424561 14.95951366424561 19.27418327331543 9.637093544006348 19.27418327331543 C 4.31467342376709 19.27418327331543 3.814697265625e-06 14.95951366424561 3.814697265625e-06 9.637093544006348 C 3.814697265625e-06 4.31467342376709 4.31467342376709 3.814697265625e-06 9.637093544006348 3.814697265625e-06 Z" stroke="none" fill="#3a2c60"/>
              </g>
              <g id="Group_43066" data-name="Group 43066" transform="translate(11.625 7.035)">
                <g id="Group_43044" data-name="Group 43044">
                  <path id="Path_131155" data-name="Path 131155" d="M71.92,45.433,71.677,41.8q-.068-1.061-.068-1.523a1.384,1.384,0,0,1,.329-.981,1.131,1.131,0,0,1,.867-.352.874.874,0,0,1,.871.451,3.05,3.05,0,0,1,.219,1.3,10.158,10.158,0,0,1-.052,1.015l-.326,3.735a2.928,2.928,0,0,1-.227,1.022.6.6,0,0,1-.575.356.573.573,0,0,1-.568-.345A3.421,3.421,0,0,1,71.92,45.433Zm.841,4.984a1.191,1.191,0,0,1-.806-.3,1.048,1.048,0,0,1-.345-.837,1.124,1.124,0,0,1,1.136-1.128,1.122,1.122,0,0,1,.814.329,1.074,1.074,0,0,1,.337.8,1.058,1.058,0,0,1-.341.833A1.162,1.162,0,0,1,72.761,50.417Z" transform="translate(-71.609 -38.949)" fill="#fa759e"/>
                </g>
              </g>
            </g>
          </g>
        </g>
      </g>
    </g>
  </g>
</svg>
