<svg xmlns="http://www.w3.org/2000/svg" width="14.168" height="17.069" viewBox="0 0 14.168 17.069">
  <g id="bell" transform="translate(-2.838 -0.85)">
    <path id="Path_139704" data-name="Path 139704" d="M11.538,22.538A1.538,1.538,0,0,0,13.076,21H10A1.538,1.538,0,0,0,11.538,22.538Z" transform="translate(-1.617 -4.619)" fill="#008af8"/>
    <path id="Path_139705" data-name="Path 139705" d="M16.785,14.369a.769.769,0,0,0-.167-.838l-1.313-1.313v-4.3A5.383,5.383,0,0,0,10.691,2.6V1.769a.769.769,0,1,0-1.538,0V2.6A5.383,5.383,0,0,0,4.538,7.922v4.3L3.225,13.53a.769.769,0,0,0,.544,1.313H16.074A.769.769,0,0,0,16.785,14.369ZM5.626,13.305l.225-.225a.769.769,0,0,0,.225-.544V7.922a3.845,3.845,0,0,1,7.691,0v4.614a.769.769,0,0,0,.225.544l.225.225Z" fill="#2d2d2d" stroke="#fff" stroke-width="0.3"/>
  </g>
</svg>
