<svg xmlns="http://www.w3.org/2000/svg" width="52.841" height="54.245" viewBox="0 0 52.841 54.245">
  <g id="_01" data-name="01" transform="translate(0.25 0.25)">
    <path id="Path_244031" data-name="Path 244031" d="M52.392,56.667h-2.57a.6.6,0,0,1-.6-.549l-.165-1.993a5.533,5.533,0,0,1-1.459-.846l-1.808.856a.6.6,0,0,1-.773-.239l-1.285-2.224a.6.6,0,0,1,.179-.79l1.647-1.142a5.625,5.625,0,0,1,0-1.684l-1.647-1.142a.6.6,0,0,1-.179-.79L45.02,43.9a.6.6,0,0,1,.772-.239l1.809.852a5.71,5.71,0,0,1,1.462-.842l.165-1.994a.6.6,0,0,1,.6-.548H52.4a.6.6,0,0,1,.6.548l.165,2a5.643,5.643,0,0,1,1.456.837l1.809-.851a.6.6,0,0,1,.772.239l1.285,2.224a.6.6,0,0,1-.179.79l-1.643,1.137a5.633,5.633,0,0,1,0,1.685L58.3,50.878a.6.6,0,0,1,.179.79l-1.285,2.224a.6.6,0,0,1-.771.242l-1.814-.852a5.5,5.5,0,0,1-1.451.837l-.168,2a.6.6,0,0,1-.6.546Zm-2.02-1.2h1.47l.152-1.837a.6.6,0,0,1,.418-.522,4.347,4.347,0,0,0,1.689-.973.6.6,0,0,1,.658-.1l1.667.783.735-1.272L55.655,50.5a.6.6,0,0,1-.239-.626,4.389,4.389,0,0,0,0-1.953.6.6,0,0,1,.239-.626l1.509-1.048-.732-1.272-1.661.782a.6.6,0,0,1-.658-.1,4.423,4.423,0,0,0-1.694-.973A.6.6,0,0,1,52,44.157l-.152-1.836H50.372l-.152,1.83a.6.6,0,0,1-.418.521,4.5,4.5,0,0,0-1.7.98.6.6,0,0,1-.658.1l-1.661-.782-.735,1.271,1.514,1.049a.6.6,0,0,1,.239.626,4.389,4.389,0,0,0,0,1.953.6.6,0,0,1-.239.626l-1.516,1.05.735,1.27,1.666-.787a.6.6,0,0,1,.664.1,4.358,4.358,0,0,0,1.695.984.6.6,0,0,1,.418.521Zm.733-4.1a2.482,2.482,0,1,1,2.481-2.481,2.482,2.482,0,0,1-2.481,2.481Zm0-3.766A1.286,1.286,0,1,0,52.391,48.9a1.286,1.286,0,0,0-1.286-1.286ZM9.837,49.978a14.625,14.625,0,0,1,.281-2.849.6.6,0,1,0-1.172-.236,15.809,15.809,0,0,0-.3,3.085.6.6,0,1,0,1.2,0ZM11,44.263a17.171,17.171,0,0,1,5.786-7.132.6.6,0,1,0-.705-.967A18.367,18.367,0,0,0,9.9,43.8a.6.6,0,1,0,1.1.464ZM47.145,56a.6.6,0,1,0-.464-1.1c-9.785,4.119-29.7,3.457-36.751-1.224-1.649-1.1-2.485-2.338-2.485-3.695,0-10.608,9.881-19.238,22.026-19.238,7.6,0,14.564,3.355,18.631,8.974a.6.6,0,1,0,.968-.7c-4.291-5.927-11.619-9.466-19.6-9.466-12.8,0-23.222,9.167-23.222,20.434,0,1.782,1.016,3.36,3.019,4.691,4.055,2.69,12.2,4.109,20.367,4.109,6.515,0,13.045-.9,17.507-2.781ZM29.474,26.2A10.586,10.586,0,1,1,40.06,15.618,10.586,10.586,0,0,1,29.474,26.2Zm0-19.977a9.391,9.391,0,1,0,9.391,9.391A9.391,9.391,0,0,0,29.474,6.228ZM40.521,42.321H33.635a1.831,1.831,0,1,1,0-3.662h6.886a1.831,1.831,0,1,1,0,3.662Zm-6.886-2.466a.635.635,0,0,0,0,1.27h6.886a.635.635,0,1,0,0-1.27Z" transform="translate(-6.252 -5.032)" fill="#202020" stroke="#202020" stroke-width="0.5"/>
  </g>
</svg>
