<svg xmlns="http://www.w3.org/2000/svg" width="65.611" height="65.611" viewBox="0 0 65.611 65.611">
  <path id="profico" d="M32.806.563A32.806,32.806,0,1,0,65.611,33.368,32.8,32.8,0,0,0,32.806.563Zm0,12.7A11.641,11.641,0,1,1,21.165,24.9,11.641,11.641,0,0,1,32.806,13.261Zm0,45.5a25.349,25.349,0,0,1-19.379-9.022,14.748,14.748,0,0,1,13.03-7.91,3.237,3.237,0,0,1,.939.146,17.514,17.514,0,0,0,5.41.913,17.448,17.448,0,0,0,5.41-.913,3.237,3.237,0,0,1,.939-.146,14.748,14.748,0,0,1,13.03,7.91A25.349,25.349,0,0,1,32.806,58.766Z" transform="translate(0 -0.563)" fill="#64baff"/>
</svg>
