<svg id="megaphone_1_" data-name="megaphone (1)" xmlns="http://www.w3.org/2000/svg" width="47.003" height="42.455" viewBox="0 0 47.003 42.455">
  <path id="Path_95211" data-name="Path 95211" d="M34.347,4.316a6.63,6.63,0,0,0-6.1-.757L15.782,8.231h-6.9A6.634,6.634,0,0,0,2.25,14.859V24.5a6.616,6.616,0,0,0,4.821,6.347v9.321a5.423,5.423,0,0,0,10.847,0V31.93L28.244,35.8A6.628,6.628,0,0,0,37.2,29.6V9.764a6.628,6.628,0,0,0-2.854-5.448ZM5.866,24.5V14.859a3.017,3.017,0,0,1,3.013-3.013H14.3V27.514H8.879A3.017,3.017,0,0,1,5.866,24.5Zm6.629,17.476a1.812,1.812,0,0,1-1.808-1.808V31.13H14.3v9.039A1.812,1.812,0,0,1,12.494,41.976ZM33.586,29.6a3.01,3.01,0,0,1-4.069,2.82l-11.6-4.348V11.289l11.6-4.348a3.01,3.01,0,0,1,4.069,2.82Z" transform="translate(-2.25 -3.137)"/>
  <path id="Path_95212" data-name="Path 95212" d="M24.924,19.918h-2.41a1.808,1.808,0,1,1,0-3.616h2.41a1.808,1.808,0,1,1,0,3.616ZM21.263,9.707l2.485-2.331a1.808,1.808,0,1,0-2.473-2.637L18.789,7.07a1.808,1.808,0,1,0,2.473,2.637ZM23.83,31.319a1.806,1.806,0,0,0-.082-2.555l-2.485-2.331a1.808,1.808,0,0,0-2.473,2.637L21.275,31.4a1.807,1.807,0,0,0,2.555-.082Z" transform="translate(20.272 -1.567)" fill="#3f8cf4"/>
</svg>
