<svg xmlns="http://www.w3.org/2000/svg" width="44.984" height="55.122" viewBox="0 0 44.984 55.122">
  <g id="object" transform="translate(0.25 0.25)">
    <g id="_26" data-name="26" transform="translate(1.177 1.13)">
      <path id="Path_244034" data-name="Path 244034" d="M25.117,51.355v2.689a.6.6,0,0,1-1.2,0V51.355a.6.6,0,0,1,1.2,0Zm0-10.189a.6.6,0,0,0-1.2,0v7.515a.6.6,0,0,0,1.2,0Zm32.8,15.185V58.27a2.39,2.39,0,0,1-2.387,2.39H23.917a2.39,2.39,0,0,1-2.39-2.39V19.7a.6.6,0,0,1,.175-.422l12.19-12.19a.6.6,0,0,1,.422-.174H55.521a2.39,2.39,0,0,1,2.387,2.387V37.33a.6.6,0,0,1-1.2,0V9.305a1.2,1.2,0,0,0-1.192-1.192h-20.6v9.8a2.39,2.39,0,0,1-2.39,2.39h-9.8V58.273a1.2,1.2,0,0,0,1.2,1.2h31.61a1.2,1.2,0,0,0,1.192-1.2V56.355a.6.6,0,0,1,1.2,0ZM29.585,25.114a.6.6,0,1,0,.6.6A.6.6,0,0,0,29.585,25.114Zm20.276,0H31.71a.6.6,0,0,0,0,1.2H49.861a.6.6,0,1,0,0-1.2ZM29.585,29.7a.6.6,0,1,0,.6.6A.6.6,0,0,0,29.585,29.7Zm20.276,0H31.71a.6.6,0,0,0,0,1.2H49.861a.6.6,0,1,0,0-1.2ZM29.585,34.288a.6.6,0,1,0,.6.6A.6.6,0,0,0,29.585,34.288Zm20.276,0H31.71a.6.6,0,1,0,0,1.2H49.861a.6.6,0,1,0,0-1.2ZM29.585,38.876a.6.6,0,1,0,.6.6A.6.6,0,0,0,29.585,38.876Zm20.276,0H31.71a.6.6,0,1,0,0,1.2H49.861a.6.6,0,1,0,0-1.2Zm15.224,8a7.768,7.768,0,1,1-7.768-7.768A7.768,7.768,0,0,1,65.085,46.874ZM61.479,44.39a.6.6,0,0,0-.845,0l-4.3,4.3L54.6,46.943a.6.6,0,1,0-.845.845l2.164,2.164a.6.6,0,0,0,.845,0l4.721-4.718a.6.6,0,0,0,0-.843Z" transform="translate(-21.527 -6.918)" fill="#a2d5f2"/>
    </g>
    <g id="_03" data-name="03" transform="translate(0 0)">
      <path id="Path_244035" data-name="Path 244035" d="M55.342,37.218a7.768,7.768,0,1,0,7.768,7.768A7.768,7.768,0,0,0,55.342,37.218Zm0,14.341a6.573,6.573,0,1,1,6.573-6.573A6.573,6.573,0,0,1,55.342,51.559Zm-32.2-2.091v2.689a.6.6,0,0,1-1.2,0V49.468a.6.6,0,1,1,1.2,0Zm0-2.674a.6.6,0,0,1-1.2,0V39.28a.6.6,0,0,1,1.2,0Zm32.2,7.074a.6.6,0,0,0-.6.6v1.918a1.2,1.2,0,0,1-1.2,1.2H21.939a1.2,1.2,0,0,1-1.2-1.2V18.416h9.811a2.39,2.39,0,0,0,2.39-2.39v-9.8H53.555a1.2,1.2,0,0,1,1.2,1.2V35.444a.6.6,0,1,0,1.2,0V7.417a2.39,2.39,0,0,0-2.39-2.39H32.345a.6.6,0,0,0-.422.175l-12.19,12.19a.6.6,0,0,0-.175.422V56.38a2.39,2.39,0,0,0,2.39,2.39h31.61a2.39,2.39,0,0,0,2.39-2.39V54.462a.6.6,0,0,0-.607-.594ZM30.555,17.22H21.6L31.748,7.069v8.959A1.2,1.2,0,0,1,30.555,17.22ZM59.5,42.5a.6.6,0,0,1,0,.845l-4.718,4.718a.6.6,0,0,1-.845,0L51.777,45.9a.6.6,0,1,1,.845-.845L54.364,46.8l4.3-4.3a.6.6,0,0,1,.845,0Zm-31.3-18.679a.6.6,0,1,1-.6-.6A.6.6,0,0,1,28.208,23.824Zm20.276,0a.6.6,0,0,1-.6.6H29.735a.6.6,0,1,1,0-1.2H47.886A.6.6,0,0,1,48.484,23.824ZM28.208,28.412a.6.6,0,1,1-.6-.6A.6.6,0,0,1,28.208,28.412Zm20.276,0a.6.6,0,0,1-.6.6H29.735a.6.6,0,1,1,0-1.2H47.886A.6.6,0,0,1,48.484,28.412ZM28.208,33a.6.6,0,1,1-.6-.6A.6.6,0,0,1,28.208,33Zm20.276,0a.6.6,0,0,1-.6.6H29.735a.6.6,0,1,1,0-1.2H47.886A.6.6,0,0,1,48.484,33ZM28.208,37.586a.6.6,0,1,1-.6-.6A.6.6,0,0,1,28.208,37.586Zm20.276,0a.6.6,0,0,1-.6.6H29.735a.6.6,0,1,1,0-1.2H47.886A.6.6,0,0,1,48.484,37.586Z" transform="translate(-19.558 -5.027)" fill="#202020" stroke="#202020" stroke-width="0.5"/>
    </g>
  </g>
</svg>
