<svg xmlns="http://www.w3.org/2000/svg" width="26.915" height="25.606" viewBox="0 0 26.915 25.606">
  <path id="Icon_material-airline-seat-recline-extra" data-name="Icon material-airline-seat-recline-extra" d="M7.28,7.65a2.559,2.559,0,1,1,3.564-.626A2.571,2.571,0,0,1,7.28,7.65ZM20.885,24.717H11.853a3.821,3.821,0,0,1-3.781-3.245L5.555,9.387H3L5.542,21.856a6.4,6.4,0,0,0,6.323,5.416h9.019Zm.294-5.11H14.944L13.629,14.37a9.884,9.884,0,0,0,6.579,1.559V13.207a7.784,7.784,0,0,1-5.991-1.6l-2.1-1.622A2.89,2.89,0,0,0,11.15,9.5a2.822,2.822,0,0,0-1.265-.077H9.86A2.9,2.9,0,0,0,7.509,12.76l1.725,7.563A3.843,3.843,0,0,0,13,23.44h8.751l4.88,3.832,1.916-1.916Z" transform="translate(-2.388 -2.333)" fill="none" stroke="#b7b7b7" stroke-width="1"/>
</svg>
