<svg id="object" xmlns="http://www.w3.org/2000/svg" width="72.665" height="45.494" viewBox="0 0 72.665 45.494">
  <g id="_26" data-name="26" transform="translate(1.564 1.49)">
    <path id="Path_244036" data-name="Path 244036" d="M55.28,50.918V53.49a.791.791,0,0,1-1.581,0V50.918a.791.791,0,0,1,1.581,0ZM72.164,53.49V50.918a.791.791,0,0,0-1.581,0V53.49a.791.791,0,0,0,1.581,0ZM31.8,29.69a.788.788,0,1,0,.56.231.791.791,0,0,0-.56-.231Zm2.811,1.581h24.7a.791.791,0,0,0,0-1.581h-24.7a.791.791,0,1,0,0,1.581ZM31.8,35.76a.788.788,0,1,0,.56.231.791.791,0,0,0-.56-.231Zm2.811,1.581h24.7a.791.791,0,0,0,0-1.581h-24.7a.791.791,0,1,0,0,1.581ZM31.8,41.83a.788.788,0,1,0,.56.231.791.791,0,0,0-.56-.231Zm2.811,1.581h24.7a.791.791,0,0,0,0-1.581h-24.7a.791.791,0,0,0,0,1.581ZM60.333,59.594a.614.614,0,1,0,.613.614A.614.614,0,0,0,60.333,59.594Zm9.8-9.745V62.784a2.31,2.31,0,0,1-2.25,2.3v.924a2.05,2.05,0,1,1-4.1,0V65.1H62.073v.916a2.05,2.05,0,1,1-4.1,0v-.924a2.31,2.31,0,0,1-2.242-2.3V49.852a2.314,2.314,0,0,1,2.31-2.31h9.782a2.314,2.314,0,0,1,2.311,2.31Zm-8,5.678v-6.4h-4.1a.729.729,0,0,0-.729.729v5.676Zm.386,4.683A2.195,2.195,0,1,0,60.332,62.4,2.195,2.195,0,0,0,62.527,60.21Zm5.2,0A2.195,2.195,0,1,0,65.53,62.4a2.195,2.195,0,0,0,2.195-2.194Zm.827-10.358a.73.73,0,0,0-.73-.729h-4.1v6.4h4.83ZM65.53,59.594a.614.614,0,1,0,.614.614A.614.614,0,0,0,65.53,59.594Zm12.589-31.6V53.02a3.938,3.938,0,0,1-3.934,3.934H71.767a.791.791,0,1,1,0-1.581h2.418a2.355,2.355,0,0,0,2.352-2.352V27.993a2.356,2.356,0,0,0-2.352-2.352H28.065v29.73H53.526a.791.791,0,1,1,0,1.581H10.953a3.938,3.938,0,0,1-3.935-3.934V27.993a3.938,3.938,0,0,1,3.935-3.934H74.185a3.938,3.938,0,0,1,3.934,3.934ZM11.679,52.671a.791.791,0,1,0-.791.791A.791.791,0,0,0,11.679,52.671Zm0-3.037a.791.791,0,1,0-.23.558.791.791,0,0,0,.23-.558Zm0-3.037a.791.791,0,1,0-.791.791A.791.791,0,0,0,11.679,46.6Zm7.2,6.075a.791.791,0,0,0-.791-.791H13.7a.791.791,0,0,0,0,1.581h4.386a.791.791,0,0,0,.791-.791Zm0-3.038a.791.791,0,0,0-.791-.791H13.7a.791.791,0,1,0,0,1.581h4.386a.791.791,0,0,0,.791-.794Zm0-3.037a.791.791,0,0,0-.791-.791H13.7a.791.791,0,0,0,0,1.581h4.386a.791.791,0,0,0,.791-.791ZM24.9,39.841a.791.791,0,1,0-1.581,0v2.778a.791.791,0,1,0,1.581,0Zm0-11.833a.791.791,0,0,0-1.581,0v8.54a.791.791,0,1,0,1.581,0Z" transform="translate(-7.018 -24.059)" fill="#a2d5f2"/>
  </g>
  <g id="_07" data-name="07" transform="translate(0 0)">
    <path id="Path_244037" data-name="Path 244037" d="M65.843,45.657H56.062a2.314,2.314,0,0,0-2.31,2.314V60.9a2.31,2.31,0,0,0,2.242,2.3v.923a2.05,2.05,0,1,0,4.1,0v-.916h1.717v.916a2.05,2.05,0,1,0,4.1,0V63.2a2.31,2.31,0,0,0,2.243-2.3V47.971a2.314,2.314,0,0,0-2.311-2.314Zm.73,2.31v5.676h-4.83v-6.4h4.1a.73.73,0,0,1,.73.733Zm-10.512-.729h4.1v6.4h-4.83V47.971a.73.73,0,0,1,.729-.733Zm2.451,16.889a.469.469,0,1,1-.938,0v-.916h.938Zm5.817,0a.469.469,0,0,1-.938,0v-.916h.938Zm1.513-2.5H56.062a.73.73,0,0,1-.729-.729V55.225H66.573V60.9a.73.73,0,0,1-.73.729Zm-7.49-5.5a2.195,2.195,0,1,0,2.195,2.2A2.195,2.195,0,0,0,58.354,56.131Zm0,2.808a.614.614,0,1,1,.614-.613.614.614,0,0,1-.614.613Zm5.2-2.808a2.195,2.195,0,1,0,2.194,2.2A2.195,2.195,0,0,0,63.552,56.131Zm0,2.808a.614.614,0,1,1,.613-.613A.614.614,0,0,1,63.552,58.938ZM53.3,49.034v2.575a.791.791,0,0,1-1.581,0V49.034a.791.791,0,0,1,1.581,0ZM69.394,52.4a.791.791,0,0,1-.791-.791V49.034a.791.791,0,0,1,1.581,0v2.575A.791.791,0,0,1,69.394,52.4Zm2.812-30.222H8.974A3.938,3.938,0,0,0,5.04,26.109V51.134a3.938,3.938,0,0,0,3.934,3.935H51.551a.791.791,0,1,0,0-1.581H26.09V23.757H72.206a2.355,2.355,0,0,1,2.352,2.352V51.134a2.355,2.355,0,0,1-2.352,2.353H69.788a.791.791,0,1,0,0,1.581h2.418a3.938,3.938,0,0,0,3.934-3.935V26.109a3.938,3.938,0,0,0-3.934-3.935Zm-47.7,31.312H8.974a2.355,2.355,0,0,1-2.352-2.355V26.109a2.356,2.356,0,0,1,2.352-2.353H24.506ZM21.343,40.736V37.957a.791.791,0,1,1,1.581,0v2.778a.791.791,0,1,1-1.581,0Zm0-6.07v-8.54a.791.791,0,1,1,1.581,0v8.54a.791.791,0,0,1-1.581,0Zm9.275-6.07a.791.791,0,1,1-.791-.791.791.791,0,0,1,.791.791Zm1.23,0a.791.791,0,0,1,.791-.791h24.7a.791.791,0,0,1,0,1.581h-24.7a.791.791,0,0,1-.791-.791Zm-1.23,6.07a.791.791,0,1,1-.791-.791.791.791,0,0,1,.791.791Zm1.23,0a.791.791,0,0,1,.791-.791h24.7a.791.791,0,0,1,0,1.581h-24.7a.791.791,0,0,1-.791-.791Zm-1.23,6.07a.791.791,0,1,1-.791-.791.791.791,0,0,1,.791.791Zm1.23,0a.791.791,0,0,1,.791-.791h24.7a.791.791,0,0,1,0,1.581h-24.7a.791.791,0,0,1-.791-.791ZM9.7,50.787A.791.791,0,1,1,8.91,50,.791.791,0,0,1,9.7,50.787Zm1.23,0A.791.791,0,0,1,11.721,50h4.387a.791.791,0,1,1,0,1.581H11.721A.791.791,0,0,1,10.93,50.787ZM9.7,47.75a.791.791,0,1,1-.791-.791A.791.791,0,0,1,9.7,47.75Zm1.23,0a.791.791,0,0,1,.791-.791h4.387a.791.791,0,1,1,0,1.581H11.721A.791.791,0,0,1,10.93,47.75ZM8.91,43.922a.791.791,0,1,1-.791.791A.791.791,0,0,1,8.91,43.922Zm2.02.791a.791.791,0,0,1,.791-.791h4.387a.791.791,0,0,1,0,1.581H11.721A.791.791,0,0,1,10.93,44.713Z" transform="translate(-5.04 -22.174)" fill="#202020"/>
  </g>
</svg>
