<svg xmlns="http://www.w3.org/2000/svg" xmlns:xlink="http://www.w3.org/1999/xlink" width="48.846" height="42.424" viewBox="0 0 48.846 42.424">
  <defs>
    <linearGradient id="linear-gradient" x1="0.5" x2="0.5" y2="1" gradientUnits="objectBoundingBox">
      <stop offset="0" stop-color="#a6d7ff"/>
      <stop offset="1" stop-color="#ebf6ff"/>
    </linearGradient>
    <linearGradient id="linear-gradient-2" x1="0.5" x2="0.5" y2="1" gradientUnits="objectBoundingBox">
      <stop offset="0" stop-color="#ffbe68"/>
      <stop offset="1" stop-color="#fba562"/>
    </linearGradient>
    <clipPath id="clip-path">
      <path id="Path_95006" data-name="Path 95006" d="M28.132,42.21s3.855,5.141,4.646,8.475-2.57,3.765-3.855,2.8-6.477-7.775-6.477-7.775S27.091,46.175,28.132,42.21Z" transform="translate(6.02 -24.463)" fill="url(#linear-gradient)"/>
    </clipPath>
  </defs>
  <g id="train-icon" transform="translate(0.683 0.683)">
    <g id="Layer_1" data-name="Layer 1" transform="translate(0 -0.001)">
      <line id="Line_213" data-name="Line 213" x2="39.754" y2="22.805" transform="translate(0 16.436)" fill="none" stroke="#02166f" stroke-linecap="round" stroke-miterlimit="10" stroke-width="1"/>
      <path id="Path_94987" data-name="Path 94987" d="M37.85,23.141,60.425,36.167a12.6,12.6,0,0,1,5.16,7" transform="translate(-36.568 -16.556)" fill="none" stroke="#02166f" stroke-linecap="round" stroke-miterlimit="10" stroke-width="1"/>
      <line id="Line_214" data-name="Line 214" x2="25.566" y2="14.609" transform="translate(8.218)" fill="none" stroke="#02166f" stroke-linecap="round" stroke-miterlimit="10" stroke-width="1"/>
      <line id="Line_215" data-name="Line 215" x2="7.102" y2="4.153" transform="translate(40.377 25.978)" fill="none" stroke="#02166f" stroke-linecap="round" stroke-miterlimit="10" stroke-width="1"/>
      <line id="Line_216" data-name="Line 216" x2="5.083" y2="3.094" transform="translate(40.57 28.864)" fill="none" stroke="#02166f" stroke-linecap="round" stroke-miterlimit="10" stroke-width="1"/>
      <line id="Line_217" data-name="Line 217" x2="37.929" y2="21.884" transform="translate(0 19.175)" fill="none" stroke="#02166f" stroke-linecap="round" stroke-miterlimit="10" stroke-width="1"/>
      <path id="Path_94988" data-name="Path 94988" d="M22.31,37.143l.464.266.8.76a22.59,22.59,0,0,1,3.8,5.465c1.632,3.142,3.271,6.856,1.035,10.57-2.57,4.235-8.417,2.782-8.417,2.782" transform="translate(10.99 -22.84)" fill="none" stroke="#02166f" stroke-linecap="round" stroke-miterlimit="10" stroke-width="1"/>
      <path id="Path_94989" data-name="Path 94989" d="M56.542,27.83,47.72,33.157V43.573" transform="translate(-33.867 -19.323)" fill="none" stroke="#02166f" stroke-linecap="round" stroke-miterlimit="10" stroke-width="1"/>
      <path id="Path_94991" data-name="Path 94991" d="M63.795,25.471l-1.009.585a1.928,1.928,0,0,1-1.928,0l-3.149-1.9" transform="translate(-48.953 -17.932)" fill="none" stroke="#02166f" stroke-linecap="round" stroke-miterlimit="10" stroke-width="1"/>
      <path id="Path_94994" data-name="Path 94994" d="M65.522,39.668,69.9,42.093l.238-4.241-4.254-2.327Z" transform="translate(-58.805 -22.418)" fill="url(#linear-gradient-2)"/>
      <path id="Path_95081" data-name="Path 95081" d="M65.522,39.668,69.9,42.093l.238-4.241-4.254-2.327Z" transform="translate(-64.241 -25.418)" fill="url(#linear-gradient-2)"/>
      <path id="Path_95080" data-name="Path 95080" d="M65.38,41.437l3.4,1.589.179-4.947L65.568,36.49Z" transform="translate(-48.206 -17.783)" fill="#31cfff" stroke="rgba(0,0,0,0)" stroke-miterlimit="10" stroke-width="1"/>
      <path id="Path_94995" data-name="Path 94995" d="M51.6,49.263l1.182.61a1.105,1.105,0,0,0,1.613-.983V45.581a1.112,1.112,0,0,0-.6-.99l-1.182-.61A1.105,1.105,0,0,0,51,44.964v3.309a1.112,1.112,0,0,0,.6.99Z" transform="translate(-33.825 -25.051)" fill="none" stroke="#02166f" stroke-linecap="round" stroke-miterlimit="10" stroke-width="1"/>
      <path id="Path_95002" data-name="Path 95002" d="M28.132,42.21s3.855,5.141,4.646,8.475-2.57,3.765-3.855,2.8-6.477-7.775-6.477-7.775S27.091,46.175,28.132,42.21Z" transform="translate(6.019 -24.462)" fill="#31cfff"/>
      <g id="Mask_Group_161" data-name="Mask Group 161" clip-path="url(#clip-path)">
        <path id="Path_95005" data-name="Path 95005" d="M29.494,42.21s4.779,6.121,5.758,10.092-3.186,4.484-4.779,3.336-8.028-9.258-8.028-9.258S28.2,46.931,29.494,42.21Z" transform="translate(2.023 -29.581)" stroke="rgba(0,0,0,0)" stroke-miterlimit="10" stroke-width="1" fill="url(#linear-gradient)"/>
      </g>
    </g>
  </g>
</svg>
