<svg xmlns="http://www.w3.org/2000/svg" width="49.302" height="53.139" viewBox="0 0 49.302 53.139">
  <g id="trvl-guid" transform="translate(-8 678.495)">
    <g id="guide" transform="translate(0.132 -681.995)">
      <g id="Group_43026" data-name="Group 43026" transform="translate(9.625 5.257)">
        <path id="Path_131134" data-name="Path 131134" d="M58.617,16.016l-8.72-5.3a1.657,1.657,0,0,0-2.518,1.416v.751h-10V9.471a1.971,1.971,0,1,0-3.942,0V26.651H23.9V25.9a1.657,1.657,0,0,0-2.518-1.416l-8.72,5.3a1.658,1.658,0,0,0,0,2.833l8.72,5.3A1.657,1.657,0,0,0,23.9,36.5v-.751h9.53V50.062H28.084a1.319,1.319,0,0,0-1.317,1.317v1.643H23.692a1.319,1.319,0,0,0-1.317,1.317v4.1a.439.439,0,0,0,.439.439H47.994a.439.439,0,0,0,.439-.439v-4.1a1.319,1.319,0,0,0-1.317-1.317H44.041V51.38a1.319,1.319,0,0,0-1.317-1.317H37.375V21.979h10v.751a1.638,1.638,0,0,0,.845,1.444,1.638,1.638,0,0,0,1.674-.028l8.72-5.3a1.658,1.658,0,0,0,0-2.833Z" transform="translate(-11.868 -7.5)" fill="rgba(119,124,140,0.34)"/>
      </g>
      <g id="Group_43033" data-name="Group 43033" transform="translate(7.868 3.5)">
        <g id="Group_43027" data-name="Group 43027" transform="translate(22.003 0.439)">
          <path id="Path_131135" data-name="Path 131135" d="M61.035,47.062H57.971V6.032a1.532,1.532,0,1,1,3.064,0Z" transform="translate(-57.971 -4.5)" fill="#6dc9f7"/>
        </g>
        <g id="Group_43030" data-name="Group 43030" transform="translate(0.439 3.414)">
          <g id="Group_43028" data-name="Group 43028" transform="translate(24.629 0)">
            <path id="Path_131136" data-name="Path 131136" d="M86.4,16.751l-8.72-5.3a1.218,1.218,0,0,0-1.851,1.041v1.191H64.95V21.9H75.832V23.09a1.218,1.218,0,0,0,1.851,1.041l8.72-5.3A1.218,1.218,0,0,0,86.4,16.751Z" transform="translate(-64.95 -11.274)" fill="#fa759e"/>
          </g>
          <g id="Group_43029" data-name="Group 43029" transform="translate(35.881)">
            <path id="Path_131137" data-name="Path 131137" d="M100.772,16.751l-8.72-5.3a1.214,1.214,0,0,0-1.482.167l9.541,5.8a.439.439,0,0,1,0,.751l-9.541,5.8a1.214,1.214,0,0,0,1.482.167l8.72-5.3A1.218,1.218,0,0,0,100.772,16.751Z" transform="translate(-90.57 -11.273)" fill="#fff"/>
          </g>
          <path id="Path_131138" data-name="Path 131138" d="M9.453,50.177l8.72,5.3a1.218,1.218,0,0,0,1.851-1.041V53.244H30.432V45.029H20.023V43.838A1.218,1.218,0,0,0,18.173,42.8l-8.72,5.3A1.218,1.218,0,0,0,9.453,50.177Z" transform="translate(-8.867 -28.853)" fill="#ffd7e5"/>
        </g>
        <path id="Path_131139" data-name="Path 131139" d="M59.189,104.376h-16.4v-2.082a.878.878,0,0,1,.878-.878h14.64a.878.878,0,0,1,.878.878Z" transform="translate(-27.455 -58.415)" fill="#0089ef"/>
        <g id="Group_43032" data-name="Group 43032">
          <path id="Path_131140" data-name="Path 131140" d="M57.094,108.157H33.671a.878.878,0,0,0-.878.878v4.1H57.972v-4.1A.879.879,0,0,0,57.094,108.157Z" transform="translate(-21.847 -62.195)" fill="#0089ef"/>
          <g id="Group_43031" data-name="Group 43031">
            <path id="Path_131141" data-name="Path 131141" d="M64.388,75.538a.439.439,0,0,0-.439.439V79.71a.439.439,0,0,0,.878,0V75.977A.439.439,0,0,0,64.388,75.538Z" transform="translate(-39.32 -43.902)" fill="#3a2c60"/>
            <path id="Path_131142" data-name="Path 131142" d="M54.617,12.016l-8.72-5.3a1.658,1.658,0,0,0-2.518,1.416v.751h-10V5.471a1.971,1.971,0,1,0-3.942,0V22.651H19.9V21.9a1.657,1.657,0,0,0-2.518-1.416l-8.72,5.3a1.658,1.658,0,0,0,0,2.833l8.72,5.3A1.657,1.657,0,0,0,19.9,32.5v-.751h9.53V46.062H24.084a1.319,1.319,0,0,0-1.317,1.317v1.643H19.692a1.319,1.319,0,0,0-1.317,1.317v4.1a.439.439,0,0,0,.439.439H43.994a.439.439,0,0,0,.439-.439v-4.1a1.319,1.319,0,0,0-1.317-1.317H40.041V47.38a1.319,1.319,0,0,0-1.317-1.317H33.375v-5.07a.439.439,0,0,0-.878,0v5.07H30.311V5.471a1.093,1.093,0,1,1,2.186,0V33.716a.439.439,0,0,0,.878,0V17.979h10v.751a1.638,1.638,0,0,0,.845,1.444,1.637,1.637,0,0,0,1.673-.028l8.72-5.3a1.658,1.658,0,0,0,0-2.833ZM43.554,50.34V54h-24.3V50.34a.44.44,0,0,1,.439-.439H43.115A.44.44,0,0,1,43.554,50.34Zm-4.392-2.96v1.643H23.645V47.38a.44.44,0,0,1,.439-.439h14.64A.439.439,0,0,1,39.163,47.38Zm-19.7-16.514a.439.439,0,0,0-.439.439V32.5a.779.779,0,0,1-1.183.665l-8.72-5.3a.779.779,0,0,1,0-1.332l8.72-5.3a.779.779,0,0,1,1.183.665v1.191a.439.439,0,0,0,.439.439h9.969v7.337ZM54.161,14.1l-8.72,5.3a.779.779,0,0,1-1.183-.665V17.54a.439.439,0,0,0-.439-.439H33.375V9.764H43.819a.439.439,0,0,0,.439-.439V8.134a.779.779,0,0,1,1.183-.665l8.72,5.3a.779.779,0,0,1,0,1.332Z" transform="translate(-7.868 -3.5)" fill="#3a2c60"/>
          </g>
        </g>
      </g>
    </g>
  </g>
</svg>
