<svg xmlns="http://www.w3.org/2000/svg" width="42.587" height="55.159" viewBox="0 0 42.587 55.159">
  <g id="object" transform="translate(0.25 0.286)">
    <g id="_26" data-name="26" transform="translate(1.183 1.128)">
      <path id="Path_244032" data-name="Path 244032" d="M50.942,42.659a7.772,7.772,0,1,0,7.772,7.772A7.772,7.772,0,0,0,50.942,42.659ZM55.1,48.792l-4.723,4.723a.6.6,0,0,1-.845,0l-2.165-2.165a.6.6,0,1,1,.845-.845l1.743,1.743,4.3-4.3a.6.6,0,0,1,.846.845ZM38.136,60.678a.6.6,0,0,1-.377-.133L26.1,51.092a22.966,22.966,0,0,1-8.539-17.916V18.914a.6.6,0,0,1,.381-.557c8.554-3.336,15.03-7.024,19.8-11.272a.6.6,0,0,1,.8,0c4.768,4.248,11.244,7.935,19.8,11.272a.6.6,0,0,1,.381.557V33.176a22.906,22.906,0,0,1-2.092,9.593.6.6,0,1,1-1.087-.5,21.724,21.724,0,0,0,1.985-9.1V19.322c-8.27-3.259-14.62-6.86-19.382-10.994-4.762,4.134-11.112,7.736-19.381,10.994V33.176a21.776,21.776,0,0,0,8.1,16.987L38.134,59.31l5.255-4.26a.6.6,0,0,1,.753.929l-5.631,4.565A.6.6,0,0,1,38.136,60.678Zm0-3.848a.6.6,0,0,1-.377-.133L27.98,48.77a19.989,19.989,0,0,1-7.432-15.593V20.937a.6.6,0,0,1,.371-.553,69.156,69.156,0,0,0,16.846-9.42.6.6,0,0,1,.742,0,69.19,69.19,0,0,0,16.846,9.42.6.6,0,0,1,.371.553V33.176A19.933,19.933,0,0,1,53.785,41.8a.6.6,0,0,1-1.08-.514,18.744,18.744,0,0,0,1.824-8.114V21.339a70.455,70.455,0,0,1-16.392-9.147,70.6,70.6,0,0,1-16.392,9.147V33.176a18.8,18.8,0,0,0,6.99,14.664l9.4,7.622,3.818-3.1a.6.6,0,1,1,.753.928l-4.195,3.4a.6.6,0,0,1-.377.135ZM24.587,39.691a.6.6,0,0,1-.561-.391,17.717,17.717,0,0,1-.818-3.039.6.6,0,1,1,1.178-.207,16.4,16.4,0,0,0,.762,2.832.6.6,0,0,1-.561.8Zm-.452-6.516V23.9a.6.6,0,1,0-1.2,0v9.274a.6.6,0,1,0,1.2,0Zm18.418.63a4.418,4.418,0,1,0-4.418,4.418A4.418,4.418,0,0,0,42.553,33.8Z" transform="translate(-17.559 -6.934)" fill="#a2d5f2"/>
    </g>
    <g id="_09" data-name="09" transform="translate(0 0)">
      <path id="Path_244033" data-name="Path 244033" d="M48.962,56.317a7.772,7.772,0,1,1,7.772-7.772A7.772,7.772,0,0,1,48.962,56.317Zm0-14.348a6.576,6.576,0,1,0,6.576,6.576A6.576,6.576,0,0,0,48.962,41.97ZM48.4,51.627,53.128,46.9a.6.6,0,1,0-.845-.845l-4.3,4.3-1.743-1.743a.6.6,0,1,0-.845.845l2.165,2.165a.6.6,0,0,0,.845,0ZM36.533,58.66l5.631-4.566a.6.6,0,1,0-.753-.928l-5.255,4.26L24.872,48.279a21.775,21.775,0,0,1-8.1-16.988V17.436c8.27-3.258,14.619-6.858,19.381-10.994,4.762,4.134,11.112,7.736,19.381,10.994V31.291a21.716,21.716,0,0,1-1.982,9.1.6.6,0,0,0,1.087.5,22.906,22.906,0,0,0,2.092-9.593V17.028a.6.6,0,0,0-.381-.557C47.8,13.135,41.322,9.448,36.554,5.2a.6.6,0,0,0-.8,0c-4.768,4.248-11.244,7.935-19.8,11.272a.6.6,0,0,0-.381.557V31.291a22.966,22.966,0,0,0,8.539,17.915L35.78,58.659a.6.6,0,0,0,.753,0Zm0-3.848,4.195-3.4a.6.6,0,0,0-.753-.929l-3.819,3.1-9.4-7.622a18.8,18.8,0,0,1-6.99-14.664V19.454a70.73,70.73,0,0,0,16.392-9.147,70.62,70.62,0,0,0,16.392,9.147V31.29a18.736,18.736,0,0,1-1.823,8.115.6.6,0,0,0,1.08.514,19.929,19.929,0,0,0,1.939-8.628V19.052a.6.6,0,0,0-.371-.553,69.156,69.156,0,0,1-16.846-9.42.6.6,0,0,0-.742,0A69.19,69.19,0,0,1,18.94,18.5a.6.6,0,0,0-.371.553V31.291A19.989,19.989,0,0,0,26,46.884l9.778,7.927a.6.6,0,0,0,.753,0ZM22.815,37.769A.6.6,0,0,0,23.169,37a16.419,16.419,0,0,1-.762-2.832.6.6,0,0,0-1.178.206,17.7,17.7,0,0,0,.82,3.039.6.6,0,0,0,.768.355Zm-.658-6.478V22.017a.6.6,0,1,0-1.2,0v9.274a.6.6,0,0,0,1.2,0Zm14,5.047a4.418,4.418,0,1,1,4.418-4.418,4.418,4.418,0,0,1-4.418,4.418Zm0-7.64a3.222,3.222,0,1,0,3.222,3.222A3.222,3.222,0,0,0,36.157,28.7Z" transform="translate(-15.58 -5.047)" fill="#202020" stroke="#202020" stroke-width="0.5"/>
    </g>
  </g>
</svg>
