<svg xmlns="http://www.w3.org/2000/svg" width="22.982" height="26.123" viewBox="0 0 22.982 26.123">
  <path id="Icon_awesome-user" data-name="Icon awesome-user" d="M10.991,12.561A6.281,6.281,0,1,0,4.711,6.281,6.28,6.28,0,0,0,10.991,12.561Zm4.4,1.57h-.819a8.542,8.542,0,0,1-7.154,0H6.595A6.6,6.6,0,0,0,0,20.726v2.041a2.356,2.356,0,0,0,2.355,2.355H19.627a2.356,2.356,0,0,0,2.355-2.355V20.726A6.6,6.6,0,0,0,15.388,14.132Z" transform="translate(0.5 0.5)" fill="none" stroke="#b7b7b7" stroke-width="1"/>
</svg>
