<svg xmlns="http://www.w3.org/2000/svg" xmlns:xlink="http://www.w3.org/1999/xlink" width="11.341" height="21" viewBox="0 0 11.341 21">
  <defs>
    <linearGradient id="linear-gradient" x1="0.5" x2="0.5" y2="1" gradientUnits="objectBoundingBox">
      <stop offset="0" stop-color="#a6d7ff"/>
      <stop offset="1" stop-color="#ebf6ff"/>
    </linearGradient>
  </defs>
  <g id="Visa" transform="translate(-15995.089 -5003.268)">
    <g id="Group_52928" data-name="Group 52928" transform="translate(15158.478 3349.359)">
      <path id="Path_148332" data-name="Path 148332" d="M842.226,1660.979l3.961-2.292h0l4.012-2.313c.012-.007.027-.012.027-.019s.027-.012.027-.019a.021.021,0,0,0,.012-.022h0c.012-.007.012-.017.027-.024h0a.067.067,0,0,0,.012-.029h0a.041.041,0,0,1,.012-.029v.906l-7.323,4.239a.827.827,0,0,1-.8.061.259.259,0,0,1,0-.431c.114-.063.024-.015.039-.019h0Z" transform="translate(-4.14 -1.714)" fill-rule="evenodd" fill="url(#linear-gradient)"/>
      <path id="Path_148333" data-name="Path 148333" d="M841.8,1660.649l-.012.01a.155.155,0,0,0-.051.1c0,.022.012.046.051.07a.69.69,0,0,0,.647-.061l7.26-4.2v-.487l-7.844,4.527s0,.008-.012.01h0c-.012.007-.012.012-.024.015s-.012,0-.012,0h0Zm.228.542a.794.794,0,0,1-.393-.1.365.365,0,0,1-.191-.329.419.419,0,0,1,.191-.361.236.236,0,0,1,.027-.012s.012-.007.012-.01l7.972-4.607.051.012-.012-.036h.012v-.053a.143.143,0,0,1,.141-.146.146.146,0,0,1,.153.148v.967a.139.139,0,0,1-.075.128l-7.338,4.239a1.092,1.092,0,0,1-.545.16Z" transform="translate(-3.659 -1.244)" fill="#02166f" fill-rule="evenodd"/>
      <path id="Path_148334" data-name="Path 148334" d="M839.654,1678.973a2.813,2.813,0,0,1-1.359.058c-.482-.116-1.078-.368-1.1-.95v-14.3c.027.489.431.729.85.879a2.727,2.727,0,0,0,1.611.01,3.745,3.745,0,0,0,.71-.356l7.757-4.481.024-.017.024-.022.012-.022.027-.027.012-.029.012-.029v14.307l-.012.029-.012.026-.027.024-.012.024-.024.019-.024.017-7.718,4.457a3.833,3.833,0,0,1-.749.383Z" transform="translate(-0.438 -4.328)" fill="#fff" fill-rule="evenodd"/>
      <path id="Path_166526" data-name="Path 166526" d="M3.226-.136c.939,0,1.183-.272,2,.177.152.051.848.684.848,1.042,0,.828-1.543,2.121-3.2,2.121S.4,2.761.4,1.932,1.569-.136,3.226-.136Z" transform="translate(840.341 1663.671) rotate(-45)" fill="#feb766"/>
      <path id="Path_148335" data-name="Path 148335" d="M836.913,1664v13.648c.012.38.341.652.991.8a2.609,2.609,0,0,0,1.269-.056,2.956,2.956,0,0,0,.6-.288l.126-.08,7.718-4.455.126.09-.1-.121.165.015-.141-.058-.012-13.914-7.757,4.486a3.731,3.731,0,0,1-.622.3,2.867,2.867,0,0,1-1.7-.007,1.946,1.946,0,0,1-.661-.366h0Zm2.309,14.539Zm-.773.264a3.182,3.182,0,0,1-.61-.061c-.991-.235-1.206-.722-1.218-1.09v-14.309a.144.144,0,0,1,.141-.148h0a.144.144,0,0,1,.153.143c.012.332.242.562.749.746a2.59,2.59,0,0,0,1.512.007,2.971,2.971,0,0,0,.572-.276l.114-.068,7.757-4.481.039.034v-.063h0l.012-.048a.144.144,0,0,1,.153-.141.142.142,0,0,1,.141.141v14.348c-.012.007-.012.063-.012.068a.092.092,0,0,0-.024.048c0,.007-.012.039-.012.046s-.024.034-.039.039-.024.034-.024.039-.039.029-.051.031a.194.194,0,0,1-.024.022l-7.856,4.535a3.1,3.1,0,0,1-.635.315c-.008,0-.012,0-.012,0a2.829,2.829,0,0,1-.812.121Z" transform="translate(-0.006 -3.896)" fill="#02166f" fill-rule="evenodd"/>
      <path id="Path_148336" data-name="Path 148336" d="M841.974,1659.558l-1.485.855a3.024,3.024,0,0,1-.976.453,2.581,2.581,0,0,1-1.778-.216c-.47-.276-.61-.722-.356-1.075a1.609,1.609,0,0,1,.584-.434l1.117-.644h0l6.715-3.885a.573.573,0,0,1,.572,0l.177.106a.229.229,0,0,1,.114.206.232.232,0,0,1-.114.208l-4.011,2.313h0l-3.769,2.183c-.126.073-.279.135-.317.254a.228.228,0,0,0,.09.31.815.815,0,0,0,.8-.061l8.086-4.678a.552.552,0,0,1,.56,0l.191.107a.229.229,0,0,1,.114.206.233.233,0,0,1-.114.208l-6.194,3.58Z" transform="translate(-0.486 -0.475)" fill="#fff" fill-rule="evenodd"/>
      <path id="Path_148337" data-name="Path 148337" d="M845.6,1654.209a.451.451,0,0,0-.216.058l-7.946,4.591a1.232,1.232,0,0,0-.431.329.462.462,0,0,0-.078.38.774.774,0,0,0,.395.48,2.422,2.422,0,0,0,1.676.2,2.535,2.535,0,0,0,.761-.337l1.65-.954h0l6.194-3.58a.1.1,0,0,0,0-.155l-.191-.107a.4.4,0,0,0-.407,0l-8.1,4.678a.937.937,0,0,1-.94.061.377.377,0,0,1-.153-.5.68.68,0,0,1,.317-.286l.063-.036,7.781-4.5a.078.078,0,0,0,.051-.08.075.075,0,0,0-.051-.078l-.177-.107a.444.444,0,0,0-.2-.058h0Zm-7.185,6.4a2.53,2.53,0,0,1-1.231-.3,1.1,1.1,0,0,1-.56-.676.774.774,0,0,1,.141-.618,1.411,1.411,0,0,1,.533-.417l1.219-.7,6.715-3.888a.7.7,0,0,1,.71,0l.191.106a.4.4,0,0,1,.191.337.394.394,0,0,1-.191.337l-7.858,4.535a.577.577,0,0,0-.191.143.094.094,0,0,0,.039.124.7.7,0,0,0,.647-.058l8.086-4.678a.7.7,0,0,1,.71,0l.191.107a.4.4,0,0,1,.191.337.394.394,0,0,1-.191.337l-7.844,4.532a2.633,2.633,0,0,1-.85.373,2.941,2.941,0,0,1-.647.073Z" transform="translate(0)" fill="#02166f" fill-rule="evenodd"/>
      <path id="Path_148338" data-name="Path 148338" d="M851,1658.646l-.368-.206-8.137,4.7.012.01a.805.805,0,0,0,.8-.061l7.691-4.448Z" transform="translate(-4.455 -3.434)" fill="#fff" fill-rule="evenodd"/>
      <path id="Path_148339" data-name="Path 148339" d="M850.195,1658.142l-7.73,4.465a.883.883,0,0,0,.329-.114l7.464-4.319-.063-.034h0Zm-7.819,4.77a.727.727,0,0,1-.38-.1.179.179,0,0,1-.075-.136.131.131,0,0,1,.063-.131l8.149-4.7a.124.124,0,0,1,.14,0l.368.206a.166.166,0,0,1,.075.128.173.173,0,0,1-.075.128l-7.706,4.448a1.061,1.061,0,0,1-.56.162Z" transform="translate(-4.023 -2.964)" fill="#02166f" fill-rule="evenodd"/>
      <path id="Path_148340" data-name="Path 148340" d="M839.082,1692.09v-14.3c-.647.044-1.853-.155-1.892-1v14.3c.039.841,1.245,1.039,1.892,1Z" transform="translate(-0.438 -17.339)" fill-rule="evenodd" fill="url(#linear-gradient)"/>
      <path id="Path_148341" data-name="Path 148341" d="M836.913,1676.987v13.643a.684.684,0,0,0,.228.463,2.19,2.19,0,0,0,1.359.39v-14.006a2.488,2.488,0,0,1-1.562-.468c0-.007-.012-.015-.024-.024h0Zm1.737,14.641Zm-.165.155a2.448,2.448,0,0,1-1.548-.468.894.894,0,0,1-.317-.678v-14.309a.144.144,0,0,1,.141-.148h0a.144.144,0,0,1,.153.143.7.7,0,0,0,.228.47,2.248,2.248,0,0,0,1.5.385.146.146,0,0,1,.114.039.184.184,0,0,1,.051.109v14.3a.15.15,0,0,1-.141.148C838.611,1691.783,838.548,1691.783,838.485,1691.783Z" transform="translate(-0.006 -16.876)" fill="#02166f" fill-rule="evenodd"/>
      <path id="Path_148342" data-name="Path 148342" d="M859.108,1678.392Zm.916-.126a1.8,1.8,0,0,0-.85.257h0a4.149,4.149,0,0,0-1.88,3.331,1.312,1.312,0,0,0,.521,1.187,1.273,1.273,0,0,0,1.269-.133,4.282,4.282,0,0,0,1.943-3.367,1.265,1.265,0,0,0-.521-1.153.946.946,0,0,0-.482-.124h0Zm-1.754,5.191a1.2,1.2,0,0,1-.61-.157,1.6,1.6,0,0,1-.659-1.446,4.464,4.464,0,0,1,2.03-3.59h0a1.617,1.617,0,0,1,1.625-.133,1.534,1.534,0,0,1,.659,1.412,4.624,4.624,0,0,1-2.081,3.626,2.027,2.027,0,0,1-.964.288Z" transform="translate(-15.45 -18.231)" fill="#02166f" fill-rule="evenodd"/>
      <path id="Path_148343" data-name="Path 148343" d="M863.029,1684.063a.514.514,0,0,1-.356-.153,2.747,2.747,0,0,1-.533-1.906,4.931,4.931,0,0,1,.736-2.829.154.154,0,0,1,.216-.022.15.15,0,0,1,.024.208,4.454,4.454,0,0,0-.673,2.643,2.482,2.482,0,0,0,.419,1.686.238.238,0,0,0,.177.075.16.16,0,0,1,.165.136.163.163,0,0,1-.141.162h-.039Z" transform="translate(-19.344 -19.103)" fill="#02166f" fill-rule="evenodd"/>
      <path id="Path_148344" data-name="Path 148344" d="M865.281,1684.054a.135.135,0,0,1-.1-.044.152.152,0,0,1-.012-.211,4.067,4.067,0,0,0,.724-2.662,2.394,2.394,0,0,0-.38-1.606.34.34,0,0,0-.279-.124h0a.147.147,0,0,1-.153-.148.158.158,0,0,1,.153-.15.7.7,0,0,1,.494.211,2.654,2.654,0,0,1,.47,1.817,4.4,4.4,0,0,1-.812,2.871.132.132,0,0,1-.1.044Z" transform="translate(-21.572 -19.097)" fill="#02166f" fill-rule="evenodd"/>
      <path id="Path_148345" data-name="Path 148345" d="M857.131,1686.467a.142.142,0,0,1-.126-.073.149.149,0,0,1,.063-.2c.584-.344,1.194-.688,1.8-1.037.736-.419,1.473-.843,2.221-1.277a.154.154,0,0,1,.2.053.151.151,0,0,1-.063.2c-.736.434-1.485.858-2.221,1.277-.61.349-1.206.693-1.8,1.034a.145.145,0,0,1-.075.019Z" transform="translate(-15.44 -22.694)" fill="#02166f" fill-rule="evenodd"/>
    </g>
    <g id="Path_166527" data-name="Path 166527" transform="translate(15998 5018)" fill="#31cfff">
      <path d="M 1.290112495422363 2.071834087371826 L 1.290112495422363 0.4161131978034973 L 6.850512504577637 -2.7878737449646 L 6.850512504577637 -1.179554343223572 L 1.290112495422363 2.071834087371826 Z" stroke="none"/>
      <path d="M 1.460112452507019 1.775501728057861 L 6.680512428283691 -1.277075052261353 L 6.680512428283691 -2.493717908859253 L 1.460112452507019 0.5143557786941528 L 1.460112452507019 1.775501728057861 M 1.120112538337708 2.368166446685791 L 1.120112538337708 0.3178664147853851 L 7.020512580871582 -3.082033634185791 L 7.020512580871582 -1.082033634185791 L 1.120112538337708 2.368166446685791 Z" stroke="none" fill="#02166f"/>
    </g>
  </g>
</svg>
